<svg width="932" height="546" viewBox="0 0 932 546" fill="none" xmlns="http://www.w3.org/2000/svg">
<g clip-path="url(#clip0_28_644)">
<rect width="932" height="545.827" fill="#0F1216"/>
<g clip-path="url(#clip1_28_644)">
<rect width="1920" height="5000" transform="translate(-494 -2227)" fill="white"/>
<rect x="-494" y="-2227" width="1920" height="5000" fill="#1E1E1E"/>
<g opacity="0.25">
<path fill-rule="evenodd" clip-rule="evenodd" d="M420.874 558.922C421.874 552.778 417.737 546.992 411.632 545.999L386.467 541.889L385.495 547.841L410.661 551.951C412.021 552.17 413.239 552.926 414.045 554.053C414.85 555.181 415.179 556.587 414.958 557.962C414.277 562.154 409.185 563.843 406.169 560.877L400.662 555.46C394.124 549.027 383.074 552.69 381.595 561.784C380.586 567.982 384.76 573.818 390.919 574.826L416.414 578.989L417.385 573.037L391.89 568.874C391.203 568.763 390.545 568.517 389.953 568.149C389.361 567.781 388.847 567.299 388.441 566.73C388.034 566.16 387.743 565.516 387.583 564.832C387.423 564.148 387.399 563.439 387.51 562.744C388.205 558.472 393.395 556.751 396.468 559.773L401.975 565.191C408.458 571.567 419.408 567.935 420.874 558.922Z" fill="white"/>
<path fill-rule="evenodd" clip-rule="evenodd" d="M82.0008 27.8639C82.569 21.6661 78.0386 16.183 71.8791 15.6178L46.4881 13.2755L45.9346 19.281L71.3256 21.6233C72.6983 21.7467 73.9654 22.4161 74.8481 23.4844C75.7308 24.5527 76.1568 25.9323 76.0326 27.3199C75.6453 31.5492 70.6836 33.5896 67.4686 30.8418L61.5965 25.8224C54.6252 19.8614 43.8582 24.2873 43.0173 33.4624C42.4443 39.7159 47.0153 45.2455 53.2294 45.8212L78.9527 48.1941L79.5062 42.1887L53.7829 39.8158C53.0899 39.7534 52.4161 39.5537 51.8 39.2281C51.1839 38.9024 50.6375 38.4572 50.192 37.9178C49.7465 37.3784 49.4107 36.7555 49.2037 36.0845C48.9967 35.4135 48.9226 34.7076 48.9856 34.0071C49.3807 29.697 54.4372 27.6175 57.7139 30.418L63.586 35.4374C70.4986 41.3452 81.1677 36.9581 82.0008 27.8639Z" fill="white"/>
<path fill-rule="evenodd" clip-rule="evenodd" d="M562.101 28.7077C563.101 22.5646 558.964 16.7785 552.859 15.7847L527.694 11.6751L526.722 17.6272L551.888 21.7368C553.248 21.9558 554.466 22.712 555.272 23.8394C556.077 24.9667 556.406 26.3727 556.185 27.7482C555.504 31.9401 550.412 33.6291 547.396 30.6635L541.889 25.2464C535.351 18.8131 524.301 22.4763 522.822 31.5703C521.813 37.7685 525.987 43.6038 532.146 44.612L557.641 48.7754L558.612 42.8232L533.117 38.6599C532.43 38.5493 531.772 38.3031 531.18 37.9352C530.588 37.5673 530.074 37.085 529.668 36.5158C529.261 35.9467 528.97 35.3018 528.81 34.6179C528.65 33.9341 528.626 33.2248 528.737 32.5304C529.432 28.2584 534.622 26.5371 537.695 29.5596L543.202 34.9768C549.685 41.3529 560.635 37.7215 562.101 28.7077Z" fill="white"/>
<path fill-rule="evenodd" clip-rule="evenodd" d="M68.5793 375.867C69.1474 369.669 64.617 364.186 58.4575 363.621L33.0665 361.278L32.513 367.284L57.904 369.626C59.2768 369.75 60.5438 370.419 61.4265 371.487C62.3092 372.556 62.7353 373.935 62.611 375.323C62.2237 379.552 57.262 381.593 54.047 378.845L48.1749 373.825C41.2036 367.864 30.4367 372.29 29.5958 381.465C29.0227 387.719 33.5937 393.248 39.8078 393.824L65.5312 396.197L66.0847 390.192L40.3613 387.819C39.6683 387.756 38.9945 387.557 38.3784 387.231C37.7623 386.905 37.2159 386.46 36.7704 385.921C36.3249 385.381 35.9891 384.758 35.7821 384.087C35.5751 383.416 35.501 382.71 35.564 382.01C35.9591 377.7 41.0157 375.62 44.2923 378.421L50.1644 383.44C57.077 389.348 67.7462 384.961 68.5793 375.867Z" fill="white"/>
<path fill-rule="evenodd" clip-rule="evenodd" d="M524.411 374.924C525.411 368.781 521.274 362.995 515.169 362.001L490.004 357.891L489.032 363.843L514.198 367.953C515.559 368.172 516.776 368.928 517.582 370.056C518.388 371.183 518.716 372.589 518.496 373.964C517.814 378.156 512.722 379.845 509.707 376.88L504.199 371.463C497.661 365.029 486.612 368.693 485.132 377.787C484.124 383.985 488.297 389.82 494.456 390.828L519.951 394.992L520.923 389.039L495.428 384.876C494.741 384.766 494.083 384.519 493.491 384.151C492.899 383.784 492.385 383.301 491.978 382.732C491.571 382.163 491.28 381.518 491.12 380.834C490.961 380.15 490.936 379.441 491.048 378.747C491.743 374.475 496.932 372.753 500.005 375.776L505.513 381.193C511.996 387.569 522.945 383.938 524.411 374.924Z" fill="white"/>
<path fill-rule="evenodd" clip-rule="evenodd" d="M972.268 397.86C973.632 391.787 969.848 385.765 963.813 384.409L938.937 378.807L937.613 384.69L962.489 390.292C963.834 390.592 965.004 391.42 965.741 392.593C966.479 393.766 966.723 395.189 966.42 396.549C965.49 400.693 960.306 402.076 957.473 398.936L952.299 393.2C946.156 386.388 934.907 389.387 932.888 398.376C931.512 404.503 935.331 410.577 941.419 411.951L966.62 417.626L967.945 411.742L942.743 406.067C942.064 405.916 941.422 405.631 940.853 405.228C940.284 404.826 939.8 404.313 939.427 403.721C939.055 403.129 938.803 402.468 938.684 401.775C938.566 401.083 938.583 400.374 938.736 399.687C939.685 395.464 944.968 394.055 947.855 397.256L953.03 402.991C959.121 409.742 970.268 406.77 972.268 397.86Z" fill="white"/>
<path fill-rule="evenodd" clip-rule="evenodd" d="M454.381 249.572C455.381 243.429 451.245 237.643 445.139 236.649L419.974 232.54L419.002 238.492L444.168 242.602C445.529 242.821 446.746 243.577 447.552 244.704C448.358 245.831 448.687 247.237 448.466 248.613C447.784 252.805 442.692 254.494 439.677 251.528L434.169 246.111C427.631 239.678 416.582 243.341 415.102 252.435C414.094 258.633 418.267 264.469 424.426 265.477L449.921 269.64L450.893 263.688L425.398 259.525C424.711 259.414 424.053 259.168 423.461 258.8C422.869 258.432 422.355 257.95 421.948 257.381C421.541 256.811 421.25 256.167 421.09 255.483C420.931 254.799 420.906 254.09 421.018 253.395C421.713 249.123 426.902 247.402 429.975 250.424L435.483 255.842C441.966 262.218 452.915 258.586 454.381 249.572Z" fill="white"/>
<path fill-rule="evenodd" clip-rule="evenodd" d="M909.833 268.558C911.197 262.485 907.413 256.463 901.378 255.107L876.502 249.505L875.178 255.388L900.053 260.99C901.399 261.29 902.569 262.118 903.306 263.291C904.043 264.464 904.288 265.887 903.985 267.247C903.055 271.391 897.871 272.774 895.038 269.634L889.863 263.898C883.72 257.086 872.472 260.085 870.453 269.074C869.077 275.201 872.896 281.275 878.983 282.648L904.185 288.324L905.509 282.44L880.308 276.765C879.629 276.613 878.987 276.328 878.418 275.926C877.849 275.523 877.364 275.011 876.992 274.419C876.62 273.827 876.368 273.165 876.249 272.473C876.13 271.781 876.148 271.072 876.301 270.385C877.25 266.162 882.532 264.753 885.42 267.953L890.595 273.689C896.686 280.44 907.833 277.468 909.833 268.558Z" fill="white"/>
<path fill-rule="evenodd" clip-rule="evenodd" d="M28.5336 521.223C23.1566 518.088 16.2725 519.877 13.1573 525.221L0.303699 547.243L5.51255 550.282L18.3661 528.26C19.0581 527.068 20.2003 526.203 21.5415 525.854C22.8827 525.506 24.3132 525.703 25.5183 526.402C29.1876 528.54 28.94 533.899 25.0909 535.652L18.0601 538.852C9.71143 542.651 9.17232 554.28 17.1324 558.92C22.5578 562.082 29.5011 560.276 32.6491 554.887L45.6708 532.577L40.462 529.537L27.4402 551.848C27.0909 552.449 26.6251 552.976 26.0696 553.397C25.5141 553.817 24.8796 554.124 24.2025 554.3C23.5254 554.476 22.8189 554.517 22.1233 554.421C21.4277 554.325 20.7566 554.094 20.1484 553.741C16.409 551.561 16.6614 546.099 20.5843 544.313L27.6151 541.113C35.8907 537.345 36.4237 525.821 28.5336 521.223Z" fill="white"/>
<path fill-rule="evenodd" clip-rule="evenodd" d="M474.313 517.128C469.168 513.626 462.176 514.93 458.695 520.043L444.335 541.114L449.319 544.51L463.679 523.439C464.453 522.298 465.652 521.515 467.015 521.261C468.377 521.007 469.79 521.303 470.944 522.084C474.455 524.474 473.833 529.803 469.871 531.282L462.634 533.984C454.041 537.191 452.691 548.753 460.307 553.937C465.499 557.471 472.551 556.154 476.068 550.998L490.616 529.652L485.632 526.256L471.084 547.603C470.693 548.178 470.192 548.671 469.609 549.052C469.025 549.433 468.371 549.695 467.683 549.823C466.995 549.951 466.288 549.942 465.6 549.798C464.913 549.654 464.26 549.376 463.678 548.982C460.1 546.546 460.733 541.116 464.771 539.608L472.008 536.906C480.527 533.725 481.863 522.267 474.313 517.128Z" fill="white"/>
<path fill-rule="evenodd" clip-rule="evenodd" d="M913.785 536.826C908.858 533.023 901.8 533.908 898.021 538.804L882.431 558.982L887.203 562.669L902.794 542.491C903.634 541.399 904.878 540.688 906.253 540.516C907.628 540.343 909.021 540.723 910.126 541.572C913.488 544.167 912.551 549.449 908.507 550.69L901.122 552.955C892.353 555.644 890.316 567.106 897.61 572.735C902.582 576.571 909.7 575.677 913.518 570.74L929.312 550.298L924.539 546.612L908.745 567.053C908.321 567.605 907.791 568.067 907.186 568.412C906.581 568.758 905.912 568.98 905.218 569.067C904.524 569.154 903.818 569.103 903.14 568.918C902.463 568.733 901.827 568.417 901.27 567.989C897.843 565.344 898.799 559.961 902.92 558.697L910.305 556.431C918.998 553.763 921.015 542.405 913.785 536.826Z" fill="white"/>
<path fill-rule="evenodd" clip-rule="evenodd" d="M437.499 352.803C432.354 349.301 425.362 350.604 421.881 355.717L407.521 376.788L412.505 380.184L426.865 359.113C427.639 357.972 428.838 357.189 430.201 356.935C431.563 356.681 432.976 356.977 434.13 357.759C437.641 360.148 437.019 365.477 433.057 366.956L425.82 369.658C417.227 372.865 415.877 384.427 423.493 389.611C428.685 393.145 435.737 391.828 439.254 386.673L453.802 365.326L448.818 361.93L434.27 383.277C433.879 383.853 433.378 384.345 432.795 384.726C432.211 385.107 431.557 385.369 430.869 385.497C430.181 385.625 429.473 385.617 428.786 385.472C428.099 385.328 427.446 385.051 426.864 384.656C423.286 382.221 423.919 376.79 427.957 375.282L435.194 372.58C443.713 369.399 445.049 357.941 437.499 352.803Z" fill="white"/>
<path fill-rule="evenodd" clip-rule="evenodd" d="M886.829 370.598C881.902 366.796 874.845 367.68 871.065 372.577L855.475 392.754L860.248 396.441L875.838 376.264C876.678 375.171 877.923 374.46 879.298 374.288C880.673 374.116 882.066 374.496 883.17 375.345C886.533 377.939 885.595 383.221 881.552 384.462L874.167 386.728C865.397 389.417 863.361 400.878 870.655 406.507C875.626 410.343 882.745 409.45 886.562 404.513L902.357 384.071L897.584 380.384L881.79 400.826C881.366 401.377 880.836 401.839 880.231 402.184C879.625 402.53 878.957 402.752 878.262 402.839C877.568 402.926 876.862 402.876 876.185 402.691C875.508 402.506 874.872 402.19 874.314 401.761C870.888 399.117 871.844 393.733 875.964 392.469L883.35 390.203C892.043 387.535 894.059 376.177 886.829 370.598Z" fill="white"/>
<path fill-rule="evenodd" clip-rule="evenodd" d="M58.3077 98.467C52.9306 95.3327 46.0466 97.1214 42.9313 102.465L30.0778 124.487L35.2866 127.527L48.1402 105.505C48.8322 104.313 49.9744 103.447 51.3156 103.099C52.6568 102.75 54.0873 102.947 55.2924 103.646C58.9617 105.785 58.7141 111.144 54.865 112.896L47.8342 116.097C39.4855 119.896 38.9464 131.524 46.9065 136.164C52.3319 139.326 59.2752 137.52 62.4232 132.132L75.4449 109.821L70.236 106.782L57.2143 129.092C56.865 129.694 56.3992 130.22 55.8437 130.641C55.2882 131.062 54.6537 131.369 53.9766 131.545C53.2995 131.72 52.593 131.761 51.8974 131.665C51.2017 131.569 50.5307 131.338 49.9224 130.985C46.1831 128.806 46.4355 123.344 50.3584 121.558L57.3892 118.357C65.6648 114.589 66.1978 103.065 58.3077 98.467Z" fill="white"/>
<path fill-rule="evenodd" clip-rule="evenodd" d="M533.536 97.4839C528.39 93.9818 521.398 95.2854 517.918 100.398L503.558 121.469L508.541 124.865L522.901 103.794C523.675 102.654 524.875 101.87 526.237 101.616C527.599 101.362 529.013 101.658 530.166 102.44C533.677 104.829 533.056 110.158 529.094 111.637L521.857 114.339C513.263 117.546 511.913 129.109 519.53 134.293C524.721 137.826 531.774 136.51 535.29 131.354L549.838 110.007L544.854 106.611L530.306 127.958C529.916 128.534 529.414 129.026 528.831 129.407C528.247 129.788 527.593 130.05 526.905 130.178C526.217 130.306 525.51 130.298 524.823 130.154C524.135 130.009 523.482 129.732 522.9 129.337C519.322 126.902 519.955 121.471 523.993 119.963L531.23 117.261C539.749 114.08 541.085 102.622 533.536 97.4839Z" fill="white"/>
<path fill-rule="evenodd" clip-rule="evenodd" d="M7.05697 199.594C8.64285 205.612 14.7754 209.215 20.7567 207.639L45.4176 201.156L43.8837 195.324L19.2229 201.807C17.8907 202.16 16.4711 201.965 15.2763 201.263C14.0814 200.561 13.2092 199.41 12.8514 198.064C11.7688 193.957 15.7334 190.343 19.6943 191.825L26.929 194.533C35.5187 197.751 44.1226 189.909 41.7747 181C40.1744 174.927 33.9878 171.295 27.9516 172.879L2.96794 179.447L4.5018 185.28L29.4854 178.712C30.1579 178.533 30.8594 178.49 31.5497 178.586C32.2401 178.681 32.9058 178.912 33.5089 179.267C34.112 179.621 34.6406 180.092 35.0646 180.652C35.4886 181.211 35.7997 181.849 35.9801 182.529C37.083 186.714 33.0426 190.398 29.0057 188.887L21.771 186.179C13.2547 182.991 4.72943 190.763 7.05697 199.594Z" fill="white"/>
<path fill-rule="evenodd" clip-rule="evenodd" d="M475.348 194.785C476.51 200.899 482.376 204.922 488.453 203.768L513.506 199.022L512.383 193.097L487.33 197.842C485.976 198.102 484.574 197.808 483.431 197.024C482.288 196.24 481.498 195.031 481.235 193.663C480.442 189.491 484.65 186.162 488.497 187.918L495.525 191.125C503.869 194.934 513 187.712 511.28 178.661C510.107 172.491 504.189 168.436 498.057 169.595L472.676 174.402L473.799 180.327L499.18 175.52C499.863 175.389 500.566 175.395 501.248 175.538C501.93 175.682 502.578 175.959 503.155 176.355C503.732 176.751 504.226 177.257 504.61 177.845C504.994 178.433 505.26 179.091 505.392 179.782C506.2 184.034 501.913 187.426 497.991 185.637L490.963 182.43C482.69 178.656 473.643 185.813 475.348 194.785Z" fill="white"/>
<path fill-rule="evenodd" clip-rule="evenodd" d="M934.028 215.117C934.823 221.29 940.439 225.655 946.574 224.865L971.865 221.621L971.098 215.639L945.806 218.883C944.439 219.061 943.057 218.684 941.963 217.834C940.869 216.983 940.152 215.73 939.971 214.348C939.428 210.136 943.827 207.064 947.563 209.046L954.387 212.666C962.489 216.965 972.034 210.301 970.856 201.163C970.054 194.935 964.388 190.533 958.198 191.325L932.575 194.611L933.343 200.593L958.966 197.307C959.656 197.216 960.357 197.265 961.029 197.448C961.701 197.632 962.331 197.947 962.884 198.377C963.436 198.806 963.899 199.341 964.247 199.951C964.596 200.561 964.822 201.234 964.913 201.931C965.466 206.224 960.984 209.355 957.176 207.335L950.351 203.715C942.318 199.454 932.86 206.06 934.028 215.117Z" fill="white"/>
<path fill-rule="evenodd" clip-rule="evenodd" d="M429.865 103.186C431.026 109.301 436.892 113.323 442.969 112.169L468.022 107.424L466.9 101.498L441.846 106.243C440.493 106.503 439.09 106.209 437.947 105.425C436.804 104.641 436.015 103.433 435.752 102.064C434.959 97.8923 439.166 94.5635 443.013 96.319L450.041 99.5259C458.385 103.335 467.516 96.1135 465.796 87.062C464.624 80.8927 458.706 76.8367 452.574 77.9957L427.192 82.8032L428.315 88.7287L453.696 83.9212C454.38 83.7901 455.082 83.7964 455.764 83.9397C456.446 84.0829 457.094 84.3604 457.671 84.7561C458.248 85.1519 458.743 85.6582 459.127 86.2461C459.51 86.8341 459.776 87.4923 459.909 88.183C460.717 92.4351 456.429 95.8275 452.507 94.0383L445.479 90.8314C437.206 87.0572 428.159 94.2145 429.865 103.186Z" fill="white"/>
<path fill-rule="evenodd" clip-rule="evenodd" d="M894.084 120.97C894.879 127.143 900.495 131.508 906.629 130.718L931.921 127.474L931.153 121.492L905.862 124.736C904.495 124.915 903.113 124.537 902.019 123.687C900.924 122.837 900.208 121.583 900.027 120.201C899.484 115.989 903.882 112.917 907.618 114.899L914.443 118.519C922.545 122.819 932.09 116.154 930.912 107.016C930.109 100.788 924.444 96.3865 918.254 97.178L892.631 100.464L893.399 106.446L919.021 103.16C919.711 103.07 920.412 103.118 921.085 103.302C921.757 103.485 922.387 103.801 922.939 104.23C923.492 104.66 923.955 105.194 924.303 105.804C924.651 106.414 924.877 107.087 924.968 107.784C925.522 112.077 921.039 115.208 917.231 113.188L910.407 109.568C902.374 105.308 892.916 111.913 894.084 120.97Z" fill="white"/>
<path fill-rule="evenodd" clip-rule="evenodd" d="M428.279 474.351C432.993 470.287 433.544 463.196 429.506 458.51L412.87 439.186L408.299 443.121L424.936 462.446C425.837 463.488 426.284 464.85 426.176 466.231C426.069 467.613 425.417 468.901 424.364 469.813C421.147 472.586 416.161 470.607 415.757 466.397L415.02 458.707C414.147 449.576 403.328 445.28 396.349 451.295C391.593 455.395 391.039 462.548 395.109 467.279L411.963 486.856L416.533 482.921L399.679 463.344C399.224 462.818 398.878 462.206 398.661 461.544C398.444 460.882 398.36 460.182 398.414 459.484C398.469 458.787 398.66 458.106 398.977 457.479C399.295 456.853 399.732 456.293 400.264 455.833C403.542 453.008 408.624 455.025 409.035 459.315L409.772 467.005C410.64 476.057 421.362 480.313 428.279 474.351Z" fill="white"/>
<path fill-rule="evenodd" clip-rule="evenodd" d="M870.381 491.381C875.33 487.606 876.302 480.56 872.55 475.642L857.095 455.36L852.299 459.016L867.754 479.298C868.592 480.392 868.956 481.778 868.767 483.151C868.577 484.523 867.85 485.771 866.744 486.618C863.368 489.194 858.508 486.921 858.356 482.695L858.079 474.975C857.751 465.808 847.207 460.875 839.882 466.463C834.89 470.273 833.911 477.38 837.692 482.345L853.349 502.892L858.146 499.236L842.488 478.689C842.065 478.137 841.756 477.506 841.579 476.832C841.402 476.158 841.36 475.454 841.456 474.761C841.552 474.068 841.783 473.399 842.137 472.793C842.491 472.186 842.961 471.654 843.52 471.227C846.961 468.601 851.913 470.918 852.068 475.225L852.345 482.945C852.672 492.033 863.121 496.92 870.381 491.381Z" fill="white"/>
<path fill-rule="evenodd" clip-rule="evenodd" d="M67.977 266.756C72.3961 262.373 72.4501 255.261 68.0949 250.869L50.1498 232.754L45.8656 236.998L63.8106 255.114C64.7829 256.09 65.3232 257.418 65.3127 258.803C65.3022 260.189 64.7418 261.52 63.7547 262.503C60.7395 265.494 55.627 263.868 54.9305 259.696L53.6586 252.077C52.1499 243.029 41.057 239.499 34.5152 245.987C30.0566 250.409 30.0038 257.583 34.394 262.018L52.574 280.371L56.8582 276.126L38.6782 257.774C38.1874 257.28 37.7997 256.694 37.537 256.049C37.2744 255.403 37.142 254.711 37.1474 254.012C37.1529 253.312 37.2961 252.619 37.5688 251.972C37.8416 251.325 38.2385 250.736 38.737 250.24C41.8102 247.192 47.0204 248.85 47.7303 253.101L49.0022 260.721C50.5001 269.69 61.4931 273.187 67.977 266.756Z" fill="white"/>
<path fill-rule="evenodd" clip-rule="evenodd" d="M517.577 263.331C522.292 259.267 522.842 252.176 518.804 247.491L502.168 228.166L497.598 232.102L514.234 251.426C515.136 252.468 515.582 253.83 515.475 255.212C515.368 256.593 514.716 257.882 513.662 258.793C510.446 261.566 505.459 259.587 505.056 255.377L504.319 247.687C503.446 238.557 492.626 234.26 485.648 240.275C480.891 244.375 480.337 251.528 484.407 256.259L501.261 275.837L505.831 271.901L488.977 252.324C488.522 251.798 488.176 251.186 487.959 250.524C487.742 249.862 487.659 249.162 487.713 248.465C487.767 247.767 487.958 247.086 488.276 246.459C488.593 245.833 489.03 245.274 489.562 244.813C492.84 241.988 497.922 244.005 498.334 248.296L499.07 255.985C499.938 265.037 510.66 269.293 517.577 263.331Z" fill="white"/>
<path fill-rule="evenodd" clip-rule="evenodd" d="M864.266 325.953C869.214 322.178 870.186 315.132 866.434 310.214L850.979 289.933L846.183 293.589L861.638 313.87C862.476 314.964 862.84 316.35 862.651 317.723C862.461 319.096 861.734 320.343 860.628 321.19C857.252 323.767 852.392 321.494 852.24 317.267L851.963 309.547C851.636 300.381 841.092 295.447 833.767 301.036C828.774 304.845 827.795 311.952 831.576 316.917L847.233 337.464L852.03 333.808L836.372 313.262C835.949 312.709 835.641 312.078 835.464 311.404C835.286 310.73 835.245 310.026 835.34 309.333C835.436 308.64 835.668 307.972 836.022 307.365C836.376 306.759 836.845 306.227 837.404 305.799C840.845 303.174 845.797 305.49 845.952 309.798L846.229 317.518C846.556 326.605 857.005 331.493 864.266 325.953Z" fill="white"/>
<path fill-rule="evenodd" clip-rule="evenodd" d="M-6.48096 33.7955C-2.0618 29.4129 -2.00781 22.3005 -6.36304 17.9083L-24.3081 -0.20701L-28.5923 4.03764L-10.6473 22.153C-9.67499 23.1299 -9.13468 24.4571 -9.14518 25.8429C-9.15568 27.2286 -9.71612 28.5594 -10.7033 29.5424C-13.7184 32.5333 -18.8309 30.9071 -19.5274 26.7356L-20.7994 19.116C-22.308 10.0685 -33.4009 6.53806 -39.9427 13.0261C-44.4013 17.4482 -44.4541 24.6223 -40.0639 29.0577L-21.8839 47.41L-17.5997 43.1654L-35.7797 24.813C-36.2705 24.3198 -36.6583 23.7337 -36.9209 23.0882C-37.1836 22.4427 -37.3159 21.7504 -37.3105 21.0509C-37.305 20.3514 -37.1618 19.6583 -36.8891 19.0112C-36.6164 18.3641 -36.2194 17.7757 -35.7209 17.2797C-32.6477 14.2319 -27.4375 15.8892 -26.7276 20.1407L-25.4557 27.7603C-23.9578 36.7293 -12.9648 40.2266 -6.48096 33.7955Z" fill="white"/>
<path fill-rule="evenodd" clip-rule="evenodd" d="M473.421 28.4461C478.135 24.3828 478.686 17.2916 474.648 12.606L458.012 -6.71824L453.442 -2.78312L470.078 16.5411C470.98 17.5835 471.426 18.9453 471.319 20.3269C471.211 21.7085 470.559 22.9969 469.506 23.9086C466.289 26.6816 461.303 24.7024 460.899 20.4924L460.163 12.8026C459.29 3.67186 448.47 -0.62458 441.491 5.39078C436.735 9.49075 436.181 16.6437 440.251 21.3748L457.105 40.9518L461.675 37.0167L444.821 17.4397C444.366 16.9134 444.02 16.3017 443.803 15.6394C443.586 14.9771 443.502 14.2773 443.557 13.5798C443.611 12.8824 443.802 12.201 444.12 11.5745C444.437 10.9481 444.874 10.3889 445.406 9.92878C448.684 7.10304 453.766 9.12016 454.177 13.4109L454.914 21.1007C455.782 30.1523 466.504 34.4087 473.421 28.4461Z" fill="white"/>
<path fill-rule="evenodd" clip-rule="evenodd" d="M942.017 48.959C946.965 45.1839 947.938 38.138 944.186 33.2202L928.731 12.9388L923.935 16.5946L939.39 36.8759C940.228 37.9702 940.592 39.3561 940.403 40.7289C940.213 42.1017 939.486 43.3489 938.38 44.1963C935.003 46.7726 930.144 44.4997 929.992 40.2732L929.715 32.5532C929.387 23.3866 918.843 18.4531 911.518 24.0418C906.526 27.851 905.547 34.9583 909.328 39.9235L924.985 60.4702L929.782 56.8144L914.124 36.2677C913.701 35.7153 913.392 35.084 913.215 34.41C913.038 33.736 912.996 33.0324 913.092 32.3394C913.188 31.6464 913.419 30.9776 913.773 30.3712C914.127 29.7648 914.597 29.2326 915.155 28.805C918.596 26.1797 923.549 28.4961 923.704 32.8037L923.981 40.5237C924.308 49.611 934.757 54.4988 942.017 48.959Z" fill="white"/>
<path fill-rule="evenodd" clip-rule="evenodd" d="M22.0477 443.903C16.0293 445.489 12.4263 451.621 14.002 457.603L20.4852 482.264L26.3177 480.73L19.8346 456.069C19.481 454.737 19.6767 453.317 20.3787 452.122C21.0806 450.927 22.2313 450.055 23.5778 449.697C27.6844 448.615 31.2988 452.579 29.8163 456.54L27.108 463.775C23.8908 472.365 31.7323 480.968 40.6417 478.621C46.714 477.02 50.3468 470.834 48.7625 464.797L42.1943 439.814L36.3617 441.348L42.9299 466.331C43.1083 467.004 43.1511 467.705 43.0558 468.396C42.9605 469.086 42.729 469.752 42.3745 470.355C42.02 470.958 41.5495 471.487 40.9898 471.911C40.43 472.335 39.7921 472.646 39.1123 472.826C34.927 473.929 31.2434 469.888 32.7544 465.852L35.4627 458.617C38.65 450.101 30.8784 441.575 22.0477 443.903Z" fill="white"/>
<path fill-rule="evenodd" clip-rule="evenodd" d="M473.242 439.545C467.128 440.706 463.106 446.572 464.26 452.649L469.005 477.702L474.93 476.58L470.185 451.526C469.925 450.173 470.22 448.77 471.004 447.627C471.787 446.484 472.996 445.695 474.364 445.432C478.536 444.639 481.865 448.846 480.11 452.694L476.903 459.722C473.094 468.066 480.315 477.196 489.367 475.476C495.536 474.304 499.592 468.386 498.433 462.254L493.625 436.872L487.7 437.995L492.507 463.376C492.638 464.06 492.632 464.763 492.489 465.445C492.346 466.127 492.068 466.774 491.673 467.351C491.277 467.928 490.77 468.423 490.182 468.807C489.594 469.19 488.936 469.456 488.246 469.589C483.994 470.397 480.601 466.109 482.39 462.187L485.597 455.159C489.371 446.887 482.214 437.839 473.242 439.545Z" fill="white"/>
<path fill-rule="evenodd" clip-rule="evenodd" d="M917.339 459.316C911.167 460.111 906.802 465.727 907.592 471.862L910.835 497.154L916.817 496.386L913.573 471.094C913.395 469.727 913.772 468.345 914.623 467.251C915.473 466.157 916.727 465.44 918.108 465.26C922.32 464.716 925.392 469.115 923.411 472.851L919.791 479.675C915.491 487.777 922.156 497.322 931.294 496.144C937.522 495.342 941.923 489.676 941.132 483.486L937.845 457.863L931.864 458.631L935.15 484.254C935.24 484.944 935.192 485.645 935.008 486.317C934.825 486.989 934.509 487.619 934.08 488.172C933.65 488.724 933.115 489.187 932.505 489.536C931.896 489.884 931.223 490.11 930.525 490.201C926.233 490.754 923.102 486.272 925.122 482.464L928.742 475.639C933.002 467.606 926.397 458.148 917.339 459.316Z" fill="white"/>
<path fill-rule="evenodd" clip-rule="evenodd" d="M431.024 150.485C424.909 151.647 420.887 157.513 422.041 163.59L426.786 188.643L432.712 187.52L427.966 162.467C427.707 161.113 428.001 159.711 428.785 158.568C429.568 157.425 430.777 156.635 432.145 156.372C436.318 155.579 439.646 159.787 437.891 163.634L434.684 170.662C430.875 179.006 438.096 188.137 447.148 186.417C453.317 185.244 457.373 179.327 456.214 173.194L451.407 147.813L445.481 148.936L450.289 174.317C450.42 175.001 450.413 175.703 450.27 176.385C450.127 177.067 449.849 177.715 449.454 178.292C449.058 178.869 448.552 179.363 447.964 179.747C447.376 180.131 446.718 180.397 446.027 180.53C441.775 181.337 438.382 177.05 440.172 173.128L443.378 166.1C447.153 157.827 439.995 148.78 431.024 150.485Z" fill="white"/>
<path fill-rule="evenodd" clip-rule="evenodd" d="M892.422 168.255C886.249 169.05 881.885 174.666 882.675 180.801L885.918 206.092L891.9 205.325L888.656 180.033C888.478 178.666 888.855 177.284 889.706 176.19C890.556 175.095 891.81 174.379 893.191 174.198C897.403 173.655 900.475 178.053 898.494 181.79L894.874 188.614C890.574 196.716 897.239 206.261 906.377 205.083C912.605 204.281 917.006 198.615 916.215 192.425L912.928 166.802L906.946 167.57L910.233 193.192C910.323 193.882 910.275 194.583 910.091 195.256C909.907 195.928 909.592 196.558 909.162 197.11C908.733 197.663 908.198 198.126 907.588 198.474C906.979 198.822 906.306 199.048 905.608 199.14C901.316 199.693 898.185 195.21 900.205 191.402L903.825 184.578C908.085 176.545 901.48 167.087 892.422 168.255Z" fill="white"/>
<path fill-rule="evenodd" clip-rule="evenodd" d="M0.651032 303.898C-5.36739 305.484 -8.97034 311.617 -7.39468 317.598L-0.911487 342.259L4.92108 340.725L-1.5621 316.064C-1.91567 314.732 -1.71997 313.312 -1.01801 312.117C-0.316047 310.923 0.83468 310.05 2.18111 309.693C6.28775 308.61 9.90217 312.575 8.41964 316.535L5.71136 323.77C2.49416 332.36 10.3356 340.964 19.245 338.616C25.3174 337.016 28.9502 330.829 27.3658 324.793L20.7976 299.809L14.9651 301.343L21.5332 326.327C21.7117 326.999 21.7544 327.701 21.6592 328.391C21.5639 329.081 21.3324 329.747 20.9779 330.35C20.6234 330.953 20.1528 331.482 19.5931 331.906C19.0334 332.33 18.3954 332.641 17.7156 332.821C13.5303 333.924 9.84676 329.884 11.3577 325.847L14.066 318.612C17.2533 310.096 9.48172 301.571 0.651032 303.898Z" fill="white"/>
<path fill-rule="evenodd" clip-rule="evenodd" d="M461.674 298.387C455.56 299.549 451.538 305.415 452.692 311.492L457.437 336.545L463.363 335.422L458.617 310.369C458.358 309.015 458.652 307.613 459.436 306.47C460.219 305.327 461.428 304.537 462.796 304.275C466.968 303.481 470.297 307.689 468.542 311.536L465.335 318.564C461.526 326.908 468.747 336.039 477.799 334.319C483.968 333.146 488.024 327.229 486.865 321.096L482.057 295.715L476.132 296.838L480.94 322.219C481.071 322.903 481.064 323.605 480.921 324.287C480.778 324.969 480.5 325.617 480.105 326.194C479.709 326.771 479.203 327.266 478.615 327.649C478.027 328.033 477.368 328.299 476.678 328.432C472.426 329.239 469.033 324.952 470.822 321.03L474.029 314.002C477.803 305.729 470.646 296.682 461.674 298.387Z" fill="white"/>
<path fill-rule="evenodd" clip-rule="evenodd" d="M914.205 317.721C908.032 318.516 903.667 324.132 904.457 330.266L907.701 355.558L913.683 354.79L910.439 329.499C910.26 328.132 910.638 326.75 911.488 325.655C912.338 324.561 913.592 323.845 914.973 323.664C919.186 323.121 922.258 327.519 920.276 331.255L916.656 338.08C912.356 346.182 919.021 355.726 928.159 354.549C934.387 353.746 938.788 348.081 937.997 341.89L934.711 316.268L928.729 317.035L932.015 342.658C932.105 343.348 932.057 344.049 931.873 344.721C931.69 345.394 931.374 346.024 930.945 346.576C930.515 347.128 929.98 347.592 929.371 347.94C928.761 348.288 928.088 348.514 927.391 348.605C923.098 349.158 919.967 344.676 921.987 340.868L925.607 334.044C929.867 326.011 923.262 316.553 914.205 317.721Z" fill="white"/>
<path fill-rule="evenodd" clip-rule="evenodd" d="M12.1552 46.9703C6.1368 48.5562 2.53384 54.6887 4.1095 60.6701L10.5927 85.331L16.4253 83.7971L9.94208 59.1362C9.58851 57.804 9.78421 56.3845 10.4862 55.1896C11.1881 53.9948 12.3389 53.1226 13.6853 52.7647C17.7919 51.6822 21.4064 55.6468 19.9238 59.6077L17.2155 66.8424C13.9983 75.4321 21.8398 84.0359 30.7492 81.6881C36.8216 80.0877 40.4543 73.9011 38.87 67.8649L32.3018 42.8813L26.4693 44.4152L33.0374 69.3988C33.2158 70.0713 33.2586 70.7727 33.1633 71.4631C33.068 72.1534 32.8365 72.8192 32.482 73.4222C32.1276 74.0253 31.657 74.554 31.0973 74.978C30.5375 75.402 29.8996 75.7131 29.2198 75.8935C25.0345 76.9963 21.3509 72.9559 22.8619 68.9191L25.5702 61.6843C28.7575 53.1681 20.9859 44.6428 12.1552 46.9703Z" fill="white"/>
<path fill-rule="evenodd" clip-rule="evenodd" d="M491.092 42.8902C484.977 44.0519 480.955 49.9179 482.109 55.9946L486.854 81.0481L492.78 79.9252L488.034 54.8718C487.775 53.5182 488.069 52.1158 488.853 50.9729C489.636 49.83 490.845 49.0402 492.213 48.7773C496.386 47.9842 499.714 52.1915 497.959 56.0391L494.752 63.0671C490.943 71.4111 498.164 80.5416 507.216 78.8216C513.385 77.6492 517.441 71.7314 516.282 65.5993L511.475 40.218L505.549 41.3408L510.357 66.7221C510.488 67.4054 510.481 68.1081 510.338 68.7901C510.195 69.4721 509.918 70.1201 509.522 70.6969C509.126 71.2738 508.62 71.7683 508.032 72.1522C507.444 72.5361 506.786 72.8018 506.095 72.9343C501.843 73.7422 498.45 69.4545 500.24 65.533L503.446 58.505C507.221 50.2321 500.063 41.185 491.092 42.8902Z" fill="white"/>
<path fill-rule="evenodd" clip-rule="evenodd" d="M156.911 17.1315C156.714 23.3523 151.545 28.2378 145.362 28.0426L119.876 27.2507L120.064 21.2227L145.55 22.0147C146.928 22.0607 148.267 21.5519 149.274 20.6C150.282 19.6481 150.874 18.3312 150.921 16.9389C151.055 12.6941 146.382 10.06 142.854 12.3924L136.41 16.6531C128.76 21.7134 118.617 15.9994 118.909 6.79048C119.108 0.513921 124.323 -4.41284 130.561 -4.22146L156.381 -3.41904L156.193 2.60892L130.373 1.80649C129.678 1.78331 128.984 1.8988 128.333 2.14637C127.682 2.39394 127.085 2.76874 126.576 3.24937C126.068 3.72999 125.658 4.30703 125.37 4.94755C125.083 5.58807 124.922 6.27953 124.899 6.98242C124.762 11.3084 129.525 13.9929 133.121 11.6157L139.565 7.35502C147.15 2.34034 157.2 8.00383 156.911 17.1315Z" fill="white"/>
<path fill-rule="evenodd" clip-rule="evenodd" d="M637.577 23.2324C636.947 29.4242 631.449 33.9369 625.295 33.3105L599.926 30.7407L600.535 24.7406L625.904 27.3103C627.275 27.4525 628.646 27.0384 629.718 26.1592C630.789 25.28 631.471 24.0076 631.616 22.6219C632.046 18.3969 627.568 15.4429 623.886 17.5233L617.16 21.3236C609.175 25.8373 599.457 19.4291 600.391 10.263C601.027 4.01563 606.574 -0.534938 612.783 0.0915531L638.484 2.69503L637.876 8.69516L612.175 6.09168C611.483 6.02 610.783 6.0868 610.116 6.28827C609.449 6.48975 608.827 6.82195 608.287 7.26591C607.746 7.70987 607.297 8.25688 606.965 8.87574C606.633 9.4946 606.425 10.1732 606.353 10.8727C605.914 15.1786 610.478 18.1891 614.231 16.0688L620.956 12.2685C628.873 7.79576 638.503 14.1472 637.577 23.2324Z" fill="white"/>
<path fill-rule="evenodd" clip-rule="evenodd" d="M367.373 18.2182C366.28 24.3454 370.329 30.1935 376.418 31.2796L401.518 35.7699L402.58 29.8331L377.48 25.3429C376.122 25.1034 374.917 24.3288 374.128 23.1894C373.339 22.05 373.032 20.6391 373.273 19.2671C374.019 15.086 379.136 13.4743 382.106 16.4852L387.53 21.9852C393.97 28.5167 405.074 25.0212 406.691 15.9507C407.793 9.76848 403.708 3.87062 397.566 2.76925L372.137 -1.77964L371.075 4.15708L396.504 8.70598C397.189 8.82695 397.844 9.08315 398.43 9.45996C399.016 9.83676 399.523 10.3268 399.921 10.9021C400.319 11.4773 400.6 12.1266 400.75 12.8127C400.899 13.4989 400.913 14.2085 400.791 14.9011C400.031 19.1621 394.816 20.8046 391.789 17.7359L386.364 12.236C379.979 5.76245 368.975 9.2276 367.373 18.2182Z" fill="white"/>
<path fill-rule="evenodd" clip-rule="evenodd" d="M847.45 39.0129C845.932 45.0489 849.562 51.1654 855.561 52.6741L880.286 58.9061L881.76 53.058L857.034 46.826C855.697 46.4923 854.549 45.6354 853.841 44.4437C853.134 43.252 852.926 41.8231 853.263 40.4713C854.298 36.3525 859.515 35.102 862.268 38.313L867.295 44.1783C873.263 51.1436 884.584 48.432 886.83 39.4966C888.362 33.4064 884.698 27.2377 878.648 25.71L853.598 19.3965L852.125 25.2446L877.174 31.5581C877.849 31.7267 878.484 32.0279 879.043 32.4448C879.601 32.8616 880.072 33.3858 880.429 33.9874C880.786 34.5891 881.022 35.2564 881.123 35.9513C881.224 36.6462 881.188 37.3551 881.018 38.0375C879.962 42.235 874.645 43.5094 871.84 40.2368L866.813 34.3715C860.895 27.4678 849.676 30.1562 847.45 39.0129Z" fill="white"/>
<path fill-rule="evenodd" clip-rule="evenodd" d="M193.852 564.587C193.655 570.807 188.486 575.693 182.303 575.498L156.817 574.706L157.005 568.678L182.491 569.47C183.869 569.516 185.208 569.007 186.215 568.055C187.223 567.103 187.815 565.786 187.862 564.394C187.996 560.149 183.323 557.515 179.795 559.847L173.351 564.108C165.701 569.168 155.558 563.454 155.85 554.246C156.049 547.969 161.264 543.042 167.502 543.234L193.322 544.036L193.134 550.064L167.314 549.262C166.619 549.238 165.925 549.354 165.274 549.601C164.623 549.849 164.026 550.224 163.517 550.704C163.009 551.185 162.599 551.762 162.311 552.403C162.024 553.043 161.863 553.735 161.84 554.437C161.703 558.764 166.466 561.448 170.062 559.071L176.506 554.81C184.091 549.795 194.141 555.459 193.852 564.587Z" fill="white"/>
<path fill-rule="evenodd" clip-rule="evenodd" d="M218.133 546.233C217.041 552.36 221.089 558.208 227.179 559.294L252.279 563.784L253.34 557.848L228.24 553.357C226.883 553.118 225.677 552.343 224.888 551.204C224.1 550.064 223.792 548.654 224.034 547.282C224.779 543.1 229.896 541.489 232.866 544.5L238.291 550C244.73 556.531 255.834 553.036 257.451 543.965C258.554 537.783 254.469 531.885 248.326 530.784L222.897 526.235L221.836 532.171L247.264 536.72C247.95 536.841 248.604 537.098 249.19 537.474C249.776 537.851 250.283 538.341 250.681 538.916C251.079 539.492 251.361 540.141 251.51 540.827C251.659 541.513 251.673 542.223 251.551 542.916C250.791 547.177 245.576 548.819 242.55 545.75L237.125 540.25C230.739 533.777 219.736 537.242 218.133 546.233Z" fill="white"/>
<path fill-rule="evenodd" clip-rule="evenodd" d="M661.704 555.317C660.186 561.353 663.816 567.469 669.815 568.978L694.54 575.21L696.014 569.362L671.288 563.13C669.951 562.796 668.802 561.939 668.095 560.748C667.388 559.556 667.18 558.127 667.517 556.775C668.552 552.657 673.769 551.406 676.521 554.617L681.549 560.482C687.517 567.448 698.838 564.736 701.084 555.801C702.615 549.71 698.952 543.542 692.902 542.014L667.852 535.701L666.379 541.549L691.428 547.862C692.103 548.031 692.738 548.332 693.296 548.749C693.855 549.166 694.326 549.69 694.683 550.292C695.04 550.893 695.276 551.561 695.377 552.255C695.478 552.95 695.442 553.659 695.272 554.342C694.216 558.539 688.899 559.814 686.094 556.541L681.067 550.676C675.148 543.772 663.93 546.46 661.704 555.317Z" fill="white"/>
<path fill-rule="evenodd" clip-rule="evenodd" d="M223.246 217.568C223.049 223.788 217.88 228.674 211.698 228.479L186.211 227.687L186.399 221.659L211.886 222.451C213.263 222.497 214.603 221.988 215.61 221.036C216.617 220.084 217.209 218.767 217.256 217.375C217.391 213.13 212.717 210.496 209.189 212.829L202.746 217.089C195.095 222.15 184.953 216.436 185.245 207.227C185.444 200.95 190.659 196.023 196.896 196.215L222.717 197.017L222.529 203.045L196.709 202.243C196.013 202.22 195.32 202.335 194.669 202.583C194.017 202.83 193.42 203.205 192.912 203.686C192.404 204.166 191.994 204.743 191.706 205.384C191.418 206.024 191.258 206.716 191.235 207.419C191.098 211.745 195.861 214.429 199.456 212.052L205.9 207.791C213.486 202.777 223.536 208.44 223.246 217.568Z" fill="white"/>
<path fill-rule="evenodd" clip-rule="evenodd" d="M689.755 227.812C689.124 234.003 683.626 238.516 677.473 237.89L652.104 235.32L652.712 229.32L678.081 231.889C679.452 232.032 680.824 231.617 681.895 230.738C682.966 229.859 683.649 228.587 683.793 227.201C684.224 222.976 679.745 220.022 676.063 222.102L669.338 225.903C661.353 230.416 651.634 224.008 652.568 214.842C653.205 208.595 658.751 204.044 664.96 204.671L690.661 207.274L690.053 213.274L664.352 210.671C663.66 210.599 662.96 210.666 662.293 210.867C661.626 211.069 661.004 211.401 660.464 211.845C659.923 212.289 659.474 212.836 659.142 213.455C658.811 214.074 658.602 214.752 658.53 215.452C658.091 219.758 662.655 222.768 666.408 220.648L673.134 216.848C681.051 212.375 690.681 218.726 689.755 227.812Z" fill="white"/>
<path fill-rule="evenodd" clip-rule="evenodd" d="M261.061 200.627C259.969 206.754 264.017 212.602 270.106 213.688L295.207 218.179L296.268 212.242L271.168 207.752C269.811 207.512 268.605 206.737 267.816 205.598C267.028 204.459 266.72 203.048 266.962 201.676C267.707 197.495 272.824 195.883 275.794 198.894L281.219 204.394C287.658 210.925 298.762 207.43 300.379 198.359C301.482 192.177 297.397 186.279 291.254 185.178L265.825 180.629L264.763 186.566L290.192 191.115C290.878 191.236 291.532 191.492 292.118 191.869C292.704 192.245 293.211 192.735 293.609 193.311C294.007 193.886 294.289 194.535 294.438 195.221C294.587 195.908 294.601 196.617 294.479 197.31C293.719 201.571 288.504 203.213 285.477 200.145L280.053 194.645C273.667 188.171 262.664 191.636 261.061 200.627Z" fill="white"/>
<path fill-rule="evenodd" clip-rule="evenodd" d="M728.661 213.553C727.143 219.589 730.773 225.705 736.772 227.214L761.497 233.446L762.971 227.598L738.245 221.366C736.908 221.032 735.759 220.175 735.052 218.983C734.345 217.792 734.137 216.363 734.474 215.011C735.509 210.892 740.726 209.642 743.478 212.853L748.506 218.718C754.474 225.683 765.795 222.972 768.041 214.036C769.572 207.946 765.909 201.777 759.858 200.25L734.809 193.936L733.336 199.784L758.385 206.098C759.06 206.266 759.695 206.568 760.253 206.984C760.812 207.401 761.283 207.925 761.64 208.527C761.997 209.129 762.232 209.796 762.333 210.491C762.434 211.186 762.399 211.895 762.228 212.577C761.173 216.775 755.856 218.049 753.051 214.776L748.024 208.911C742.105 202.008 730.887 204.696 728.661 213.553Z" fill="white"/>
<path fill-rule="evenodd" clip-rule="evenodd" d="M130.48 327.165C130.283 333.386 125.114 338.272 118.932 338.077L93.4454 337.285L93.6332 331.257L119.12 332.049C120.497 332.095 121.837 331.586 122.844 330.634C123.851 329.682 124.443 328.365 124.49 326.973C124.625 322.728 119.951 320.094 116.423 322.426L109.98 326.687C102.329 331.747 92.1871 326.033 92.4787 316.824C92.6776 310.548 97.8927 305.621 104.13 305.812L129.951 306.615L129.763 312.643L103.943 311.84C103.247 311.817 102.554 311.933 101.903 312.18C101.251 312.428 100.654 312.803 100.146 313.283C99.6377 313.764 99.2279 314.341 98.9401 314.981C98.6523 315.622 98.4921 316.313 98.4687 317.016C98.3318 321.342 103.095 324.027 106.69 321.65L113.134 317.389C120.72 312.374 130.77 318.038 130.48 327.165Z" fill="white"/>
<path fill-rule="evenodd" clip-rule="evenodd" d="M589.562 330.664C588.931 336.856 583.434 341.368 577.28 340.742L551.911 338.172L552.519 332.172L577.888 334.742C579.259 334.884 580.631 334.47 581.702 333.591C582.773 332.711 583.456 331.439 583.6 330.053C584.031 325.828 579.553 322.874 575.87 324.955L569.145 328.755C561.16 333.269 551.441 326.86 552.375 317.694C553.012 311.447 558.558 306.896 564.768 307.523L590.469 310.126L589.86 316.127L564.159 313.523C563.467 313.451 562.768 313.518 562.101 313.72C561.433 313.921 560.812 314.253 560.271 314.697C559.731 315.141 559.282 315.688 558.95 316.307C558.618 316.926 558.41 317.605 558.337 318.304C557.899 322.61 562.463 325.621 566.215 323.5L572.941 319.7C580.858 315.227 590.488 321.579 589.562 330.664Z" fill="white"/>
<path fill-rule="evenodd" clip-rule="evenodd" d="M329.185 327.024C328.093 333.152 332.141 339 338.23 340.086L363.331 344.576L364.392 338.639L339.292 334.149C337.934 333.91 336.729 333.135 335.94 331.996C335.151 330.856 334.844 329.445 335.086 328.073C335.831 323.892 340.948 322.28 343.918 325.291L349.342 330.791C355.782 337.323 366.886 333.827 368.503 324.757C369.605 318.575 365.52 312.677 359.378 311.575L333.949 307.027L332.887 312.963L358.316 317.512C359.001 317.633 359.656 317.889 360.242 318.266C360.828 318.643 361.335 319.133 361.733 319.708C362.131 320.283 362.413 320.933 362.562 321.619C362.711 322.305 362.725 323.015 362.603 323.707C361.843 327.968 356.628 329.611 353.601 326.542L348.177 321.042C341.791 314.569 330.788 318.034 329.185 327.024Z" fill="white"/>
<path fill-rule="evenodd" clip-rule="evenodd" d="M782.303 348.524C780.785 354.56 784.415 360.677 790.414 362.186L815.14 368.418L816.613 362.569L791.887 356.337C790.55 356.004 789.402 355.147 788.694 353.955C787.987 352.763 787.779 351.335 788.116 349.983C789.151 345.864 794.368 344.613 797.121 347.824L802.148 353.69C808.116 360.655 819.437 357.943 821.683 349.008C823.215 342.918 819.552 336.749 813.501 335.221L788.451 328.908L786.978 334.756L812.027 341.07C812.702 341.238 813.337 341.539 813.896 341.956C814.454 342.373 814.925 342.897 815.282 343.499C815.639 344.101 815.875 344.768 815.976 345.463C816.077 346.158 816.041 346.867 815.871 347.549C814.815 351.746 809.498 353.021 806.693 349.748L801.666 343.883C795.748 336.979 784.529 339.668 782.303 348.524Z" fill="white"/>
<path fill-rule="evenodd" clip-rule="evenodd" d="M207.907 400.195C206.815 406.322 210.863 412.17 216.953 413.256L242.053 417.746L243.114 411.81L218.014 407.319C216.657 407.08 215.451 406.305 214.662 405.166C213.874 404.026 213.566 402.616 213.808 401.243C214.553 397.062 219.67 395.451 222.64 398.462L228.065 403.962C234.505 410.493 245.608 406.998 247.226 397.927C248.328 391.745 244.243 385.847 238.1 384.746L212.671 380.197L211.61 386.133L237.038 390.682C237.724 390.803 238.378 391.06 238.964 391.436C239.551 391.813 240.057 392.303 240.455 392.878C240.853 393.454 241.135 394.103 241.284 394.789C241.433 395.475 241.447 396.185 241.325 396.877C240.565 401.138 235.35 402.781 232.324 399.712L226.899 394.212C220.513 387.739 209.51 391.204 207.907 400.195Z" fill="white"/>
<path fill-rule="evenodd" clip-rule="evenodd" d="M661.701 408.921C660.183 414.957 663.813 421.074 669.812 422.583L694.537 428.815L696.011 422.967L671.285 416.734C669.948 416.401 668.799 415.544 668.092 414.352C667.385 413.16 667.177 411.732 667.513 410.38C668.549 406.261 673.766 405.011 676.518 408.221L681.546 414.087C687.514 421.052 698.835 418.341 701.081 409.405C702.612 403.315 698.949 397.146 692.898 395.619L667.849 389.305L666.376 395.153L691.425 401.467C692.1 401.635 692.735 401.936 693.293 402.353C693.852 402.77 694.323 403.294 694.68 403.896C695.037 404.498 695.272 405.165 695.373 405.86C695.474 406.555 695.439 407.264 695.268 407.946C694.213 412.144 688.896 413.418 686.091 410.145L681.063 404.28C675.145 397.376 663.927 400.065 661.701 408.921Z" fill="white"/>
<path fill-rule="evenodd" clip-rule="evenodd" d="M190.847 81.2331C185.126 83.6837 178.513 81.0636 176.077 75.378L166.024 51.9447L171.567 49.5674L181.62 73.0007C182.16 74.2686 183.188 75.2677 184.476 75.7782C185.764 76.2887 187.208 76.2688 188.49 75.723C192.394 74.0512 192.806 68.7021 189.201 66.4905L182.616 62.4511C174.797 57.6561 175.689 46.0493 184.159 42.4217C189.931 39.9493 196.601 42.5937 199.063 48.3279L209.248 72.068L203.706 74.4453L193.521 50.7053C193.248 50.0652 192.85 49.4858 192.351 49C191.851 48.5142 191.259 48.1316 190.609 47.8741C189.958 47.6165 189.262 47.489 188.56 47.4989C187.858 47.5087 187.163 47.6558 186.516 47.9316C182.538 49.6357 182.118 55.0871 185.792 57.3411L192.377 61.3806C200.127 66.136 199.242 77.6379 190.847 81.2331Z" fill="white"/>
<path fill-rule="evenodd" clip-rule="evenodd" d="M678.323 77.4743C672.445 79.5194 666.032 76.444 663.999 70.6022L655.606 46.524L661.301 44.5396L669.694 68.6177C670.144 69.9203 671.099 70.9886 672.349 71.5879C673.598 72.1871 675.04 72.2681 676.357 71.8131C680.368 70.418 681.153 65.1108 677.711 62.6528L671.424 58.1634C663.959 52.8341 665.66 41.3179 674.362 38.2906C680.293 36.2274 686.761 39.331 688.817 45.2232L697.32 69.6166L691.625 71.601L683.122 47.2077C682.895 46.5502 682.539 45.9444 682.074 45.4249C681.61 44.9054 681.046 44.4824 680.415 44.1801C679.784 43.8777 679.099 43.7019 678.397 43.6627C677.696 43.6235 676.993 43.7217 676.329 43.9517C672.241 45.3738 671.441 50.7826 674.949 53.2877L681.236 57.7771C688.635 63.0621 686.949 74.4741 678.323 77.4743Z" fill="white"/>
<path fill-rule="evenodd" clip-rule="evenodd" d="M313.307 59.1973C318.398 62.7769 325.409 61.5793 328.967 56.5196L343.645 35.6686L338.713 32.1976L324.035 53.0485C323.245 54.1775 322.033 54.9428 320.667 55.1761C319.301 55.4094 317.893 55.0917 316.751 54.2929C313.277 51.8506 313.979 46.5318 317.963 45.1126L325.24 42.5206C333.881 39.4444 335.406 27.9036 327.868 22.6047C322.731 18.9931 315.66 20.2027 312.065 25.3045L297.196 46.4285L302.128 49.8995L316.997 28.7755C317.396 28.2057 317.905 27.7209 318.495 27.3488C319.084 26.9767 319.742 26.7247 320.432 26.607C321.121 26.4894 321.829 26.5085 322.514 26.6632C323.199 26.8179 323.848 27.1052 324.424 27.5087C327.964 29.998 327.249 35.4185 323.189 36.8649L315.911 39.4569C307.346 42.5087 305.836 53.9454 313.307 59.1973Z" fill="white"/>
<path fill-rule="evenodd" clip-rule="evenodd" d="M790.655 76.1165C795.484 80.0429 802.561 79.3379 806.464 74.539L822.561 54.7638L817.884 50.9568L801.786 70.732C800.919 71.8029 799.657 72.4818 798.278 72.6191C796.899 72.7565 795.516 72.3413 794.433 71.4646C791.137 68.7857 792.209 63.5289 796.282 62.3914L803.723 60.3138C812.558 57.8486 814.885 46.4424 807.736 40.6301C802.863 36.6686 795.724 37.3815 791.783 42.2198L775.475 62.2539L780.152 66.0608L796.46 46.0268C796.898 45.4862 797.44 45.0381 798.053 44.7081C798.667 44.378 799.341 44.1726 800.038 44.1034C800.734 44.0342 801.438 44.1026 802.111 44.3048C802.783 44.5069 803.41 44.8388 803.957 45.2816C807.315 48.012 806.223 53.3694 802.071 54.5287L794.631 56.6063C785.873 59.0524 783.568 70.3558 790.655 76.1165Z" fill="white"/>
<path fill-rule="evenodd" clip-rule="evenodd" d="M133.705 222.614C127.984 225.064 121.372 222.444 118.936 216.759L108.882 193.325L114.425 190.948L124.478 214.381C125.019 215.649 126.046 216.648 127.334 217.159C128.623 217.669 130.067 217.649 131.348 217.103C135.252 215.432 135.664 210.083 132.06 207.871L125.475 203.832C117.655 199.037 118.548 187.43 127.017 183.802C132.79 181.33 139.459 183.974 141.922 189.708L152.106 213.448L146.564 215.826L136.379 192.086C136.106 191.446 135.709 190.866 135.209 190.38C134.709 189.895 134.117 189.512 133.467 189.255C132.816 188.997 132.12 188.869 131.418 188.879C130.716 188.889 130.022 189.036 129.375 189.312C125.396 191.016 124.976 196.468 128.65 198.722L135.235 202.761C142.985 207.516 142.1 219.018 133.705 222.614Z" fill="white"/>
<path fill-rule="evenodd" clip-rule="evenodd" d="M600.08 226.592C594.202 228.638 587.788 225.562 585.755 219.72L577.363 195.642L583.058 193.658L591.45 217.736C591.901 219.038 592.856 220.107 594.106 220.706C595.355 221.305 596.797 221.386 598.114 220.931C602.125 219.536 602.909 214.229 599.468 211.771L593.181 207.282C585.716 201.952 587.416 190.436 596.118 187.409C602.049 185.346 608.518 188.449 610.574 194.341L619.076 218.735L613.381 220.719L604.879 196.326C604.651 195.668 604.295 195.063 603.831 194.543C603.366 194.024 602.802 193.601 602.172 193.298C601.541 192.996 600.855 192.82 600.154 192.781C599.453 192.742 598.75 192.84 598.085 193.07C593.998 194.492 593.198 199.901 596.706 202.406L602.992 206.895C610.392 212.18 608.705 223.592 600.08 226.592Z" fill="white"/>
<path fill-rule="evenodd" clip-rule="evenodd" d="M347.629 224.062C352.72 227.641 359.731 226.444 363.289 221.384L377.966 200.533L373.034 197.062L358.357 217.913C357.566 219.042 356.355 219.807 354.989 220.04C353.623 220.274 352.214 219.956 351.073 219.157C347.598 216.715 348.3 211.396 352.284 209.977L359.561 207.385C368.203 204.309 369.727 192.768 362.19 187.469C357.053 183.858 349.981 185.067 346.387 190.169L331.518 211.293L336.449 214.764L351.319 193.64C351.718 193.07 352.227 192.585 352.816 192.213C353.405 191.841 354.064 191.589 354.753 191.471C355.443 191.354 356.15 191.373 356.835 191.528C357.52 191.682 358.169 191.97 358.745 192.373C362.286 194.862 361.571 200.283 357.51 201.729L350.233 204.321C341.667 207.373 340.158 218.81 347.629 224.062Z" fill="white"/>
<path fill-rule="evenodd" clip-rule="evenodd" d="M813.38 242.975C818.209 246.902 825.286 246.197 829.189 241.398L845.286 221.622L840.609 217.815L824.511 237.591C823.644 238.662 822.382 239.34 821.003 239.478C819.624 239.615 818.241 239.2 817.158 238.323C813.863 235.644 814.934 230.388 819.008 229.25L826.448 227.172C835.283 224.707 837.61 213.301 830.461 207.489C825.589 203.527 818.45 204.24 814.508 209.078L798.2 229.113L802.877 232.919L819.185 212.885C819.623 212.345 820.165 211.897 820.779 211.567C821.392 211.237 822.067 211.031 822.763 210.962C823.459 210.893 824.163 210.961 824.836 211.163C825.508 211.366 826.136 211.697 826.682 212.14C830.04 214.871 828.948 220.228 824.797 221.387L817.356 223.465C808.598 225.911 806.294 237.214 813.38 242.975Z" fill="white"/>
<path fill-rule="evenodd" clip-rule="evenodd" d="M731.621 57.7427C736.45 61.6691 743.528 60.964 747.43 56.1651L763.528 36.3899L758.851 32.583L742.753 52.3581C741.885 53.4291 740.623 54.1079 739.244 54.2453C737.865 54.3827 736.482 53.9674 735.4 53.0908C732.104 50.4119 733.176 45.1551 737.249 44.0175L744.69 41.94C753.525 39.4748 755.851 28.0686 748.703 22.2563C743.83 18.2948 736.691 19.0076 732.75 23.846L716.441 43.88L721.119 47.687L737.427 27.6529C737.865 27.1123 738.406 26.6642 739.02 26.3342C739.634 26.0042 740.308 25.7987 741.004 25.7295C741.7 25.6603 742.405 25.7288 743.077 25.9309C743.75 26.1331 744.377 26.465 744.924 26.9077C748.282 29.6382 747.19 34.9955 743.038 36.1549L735.598 38.2324C726.84 40.6785 724.535 51.9819 731.621 57.7427Z" fill="white"/>
<path fill-rule="evenodd" clip-rule="evenodd" d="M179.004 491.609C173.282 494.06 166.67 491.44 164.234 485.754L154.181 462.321L159.723 459.944L169.777 483.377C170.317 484.645 171.344 485.644 172.633 486.154C173.921 486.665 175.365 486.645 176.647 486.099C180.551 484.427 180.963 479.078 177.358 476.867L170.773 472.827C162.954 468.032 163.846 456.425 172.316 452.798C178.088 450.326 184.757 452.97 187.22 458.704L197.405 482.444L191.862 484.822L181.677 461.081C181.405 460.441 181.007 459.862 180.507 459.376C180.008 458.89 179.416 458.508 178.765 458.25C178.115 457.993 177.419 457.865 176.717 457.875C176.014 457.885 175.32 458.032 174.673 458.308C170.694 460.012 170.275 465.463 173.949 467.717L180.533 471.757C188.284 476.512 187.398 488.014 179.004 491.609Z" fill="white"/>
<path fill-rule="evenodd" clip-rule="evenodd" d="M626.484 498.095C620.606 500.14 614.192 497.064 612.159 491.223L603.767 467.144L609.462 465.16L617.854 489.238C618.305 490.541 619.26 491.609 620.51 492.208C621.759 492.807 623.201 492.888 624.518 492.433C628.529 491.038 629.313 485.731 625.872 483.273L619.585 478.784C612.12 473.454 613.82 461.938 622.522 458.911C628.453 456.848 634.922 459.951 636.978 465.844L645.48 490.237L639.785 492.221L631.283 467.828C631.055 467.17 630.699 466.565 630.235 466.045C629.77 465.526 629.206 465.103 628.576 464.8C627.945 464.498 627.259 464.322 626.558 464.283C625.857 464.244 625.154 464.342 624.489 464.572C620.401 465.994 619.602 471.403 623.11 473.908L629.396 478.397C636.796 483.682 635.109 495.094 626.484 498.095Z" fill="white"/>
<path fill-rule="evenodd" clip-rule="evenodd" d="M247.737 477.897C252.829 481.476 259.84 480.279 263.397 475.219L278.075 454.368L273.143 450.897L258.466 471.748C257.675 472.877 256.463 473.642 255.097 473.876C253.731 474.109 252.323 473.791 251.181 472.992C247.707 470.55 248.409 465.231 252.393 463.812L259.67 461.22C268.311 458.144 269.836 446.603 262.299 441.304C257.161 437.693 250.09 438.902 246.496 444.004L231.626 465.128L236.558 468.599L251.427 447.475C251.827 446.905 252.335 446.42 252.925 446.048C253.514 445.676 254.172 445.424 254.862 445.307C255.551 445.189 256.259 445.208 256.944 445.363C257.629 445.517 258.278 445.805 258.854 446.208C262.394 448.698 261.679 454.118 257.619 455.564L250.342 458.157C241.776 461.208 240.266 472.645 247.737 477.897Z" fill="white"/>
<path fill-rule="evenodd" clip-rule="evenodd" d="M696.007 489.215C700.836 493.142 707.914 492.437 711.816 487.638L727.914 467.863L723.236 464.056L707.139 483.831C706.271 484.902 705.009 485.581 703.63 485.718C702.251 485.855 700.868 485.44 699.785 484.563C696.49 481.885 697.562 476.628 701.635 475.49L709.075 473.413C717.91 470.947 720.237 459.541 713.088 453.729C708.216 449.767 701.077 450.48 697.135 455.319L680.827 475.353L685.504 479.16L701.813 459.126C702.251 458.585 702.792 458.137 703.406 457.807C704.02 457.477 704.694 457.271 705.39 457.202C706.086 457.133 706.791 457.201 707.463 457.404C708.136 457.606 708.763 457.938 709.309 458.38C712.668 461.111 711.576 466.468 707.424 467.628L699.984 469.705C691.226 472.151 688.921 483.455 696.007 489.215Z" fill="white"/>
<path fill-rule="evenodd" clip-rule="evenodd" d="M140.553 384.957C142.866 379.178 149.394 376.355 155.137 378.653L178.815 388.114L176.577 393.715L152.899 384.253C151.62 383.739 150.187 383.759 148.915 384.309C147.643 384.859 146.636 385.894 146.116 387.186C144.537 391.129 148.028 395.203 152.141 394.218L159.654 392.418C168.573 390.279 176.15 399.117 172.726 407.671C170.392 413.501 163.807 416.347 158.011 414.034L134.022 404.449L136.26 398.849L160.249 408.434C160.894 408.693 161.585 408.822 162.282 408.812C162.979 408.802 163.668 408.654 164.31 408.377C164.952 408.099 165.534 407.697 166.024 407.193C166.513 406.69 166.9 406.095 167.163 405.442C168.771 401.424 165.213 397.272 161.022 398.276L153.509 400.076C144.666 402.194 137.159 393.435 140.553 384.957Z" fill="white"/>
<path fill-rule="evenodd" clip-rule="evenodd" d="M595.575 389.017C598.285 383.415 604.995 381.054 610.563 383.748L633.523 394.839L630.899 400.269L607.939 389.178C606.7 388.576 605.269 388.495 603.962 388.955C602.654 389.415 601.578 390.377 600.968 391.63C599.118 395.453 602.316 399.761 606.488 399.065L614.108 397.794C623.155 396.284 630.096 405.629 626.083 413.923C623.348 419.576 616.58 421.955 610.959 419.243L587.699 408.006L590.322 402.576L613.583 413.813C614.209 414.117 614.889 414.293 615.585 414.332C616.281 414.371 616.978 414.271 617.638 414.039C618.298 413.807 618.907 413.446 619.431 412.978C619.954 412.51 620.382 411.944 620.689 411.311C622.574 407.415 619.315 403.025 615.063 403.734L607.443 405.005C598.474 406.5 591.597 397.238 595.575 389.017Z" fill="white"/>
<path fill-rule="evenodd" clip-rule="evenodd" d="M214.928 256.479C217.24 250.701 223.769 247.878 229.512 250.176L253.19 259.637L250.952 265.237L227.273 255.776C225.995 255.261 224.562 255.281 223.29 255.831C222.018 256.381 221.011 257.416 220.491 258.709C218.912 262.651 222.403 266.725 226.516 265.74L234.028 263.94C242.948 261.802 250.524 270.64 247.101 279.194C244.767 285.024 238.181 287.87 232.385 285.556L208.397 275.971L210.635 270.371L234.624 279.956C235.269 280.216 235.96 280.344 236.657 280.335C237.354 280.325 238.043 280.177 238.685 279.899C239.327 279.621 239.909 279.219 240.399 278.716C240.888 278.212 241.275 277.617 241.538 276.965C243.146 272.946 239.588 268.795 235.396 269.799L227.884 271.599C219.041 273.717 211.534 264.957 214.928 256.479Z" fill="white"/>
<path fill-rule="evenodd" clip-rule="evenodd" d="M235.38 122.902C237.692 117.124 244.221 114.301 249.963 116.599L273.642 126.06L271.404 131.66L247.725 122.199C246.447 121.685 245.014 121.705 243.742 122.255C242.47 122.805 241.463 123.84 240.943 125.132C239.364 129.075 242.855 133.148 246.968 132.163L254.48 130.363C263.4 128.225 270.976 137.063 267.553 145.617C265.219 151.447 258.633 154.293 252.837 151.98L228.849 142.395L231.087 136.794L255.075 146.379C255.721 146.639 256.412 146.768 257.109 146.758C257.806 146.748 258.495 146.6 259.137 146.322C259.779 146.044 260.361 145.642 260.851 145.139C261.34 144.635 261.727 144.04 261.99 143.388C263.598 139.37 260.04 135.218 255.848 136.222L248.336 138.022C239.493 140.14 231.986 131.38 235.38 122.902Z" fill="white"/>
<path fill-rule="evenodd" clip-rule="evenodd" d="M200.228 7.54035C202.541 1.76209 209.069 -1.0609 214.812 1.237L238.49 10.6981L236.252 16.2983L212.573 6.83722C211.295 6.32281 209.862 6.34279 208.59 6.89278C207.318 7.44278 206.311 8.47774 205.791 9.77007C204.212 13.7128 207.703 17.7865 211.816 16.8013L219.329 15.0015C228.248 12.863 235.825 21.7012 232.401 30.255C230.067 36.0851 223.482 38.931 217.686 36.6178L193.697 27.0327L195.935 21.4325L219.924 31.0176C220.569 31.2772 221.26 31.4057 221.957 31.3959C222.654 31.3861 223.343 31.238 223.985 30.9602C224.627 30.6825 225.209 30.2804 225.699 29.7769C226.188 29.2734 226.575 28.6785 226.838 28.026C228.446 24.0077 224.888 19.8561 220.697 20.8601L213.184 22.6599C204.341 24.7778 196.834 16.0186 200.228 7.54035Z" fill="white"/>
<path fill-rule="evenodd" clip-rule="evenodd" d="M678.739 266.047C681.45 260.444 688.159 258.084 693.728 260.777L716.688 271.869L714.064 277.299L691.104 266.208C689.864 265.605 688.434 265.525 687.126 265.985C685.819 266.445 684.742 267.407 684.133 268.66C682.283 272.483 685.481 276.79 689.653 276.095L697.272 274.824C706.32 273.313 713.26 282.659 709.248 290.953C706.513 296.606 699.744 298.985 694.124 296.272L670.863 285.036L673.487 279.605L696.748 290.842C697.373 291.146 698.054 291.323 698.75 291.362C699.445 291.4 700.143 291.301 700.803 291.069C701.463 290.836 702.072 290.476 702.595 290.008C703.119 289.54 703.546 288.973 703.854 288.341C705.739 284.445 702.48 280.055 698.228 280.764L690.608 282.034C681.639 283.53 674.762 274.268 678.739 266.047Z" fill="white"/>
<path fill-rule="evenodd" clip-rule="evenodd" d="M708.682 83.3314C711.392 77.7288 718.102 75.3685 723.67 78.0619L746.63 89.1533L744.006 94.5836L721.046 83.4921C719.807 82.8897 718.376 82.8095 717.069 83.2694C715.761 83.7292 714.685 84.6913 714.075 85.9442C712.225 89.767 715.423 94.0746 719.595 93.379L727.215 92.1082C736.262 90.5977 743.203 99.9435 739.19 108.237C736.455 113.89 729.687 116.269 724.066 113.557L700.806 102.32L703.429 96.8899L726.69 108.127C727.316 108.431 727.996 108.607 728.692 108.646C729.388 108.685 730.085 108.585 730.745 108.353C731.405 108.121 732.014 107.76 732.538 107.292C733.061 106.824 733.489 106.258 733.796 105.625C735.681 101.729 732.422 97.3391 728.17 98.048L720.551 99.3188C711.581 100.814 704.704 91.552 708.682 83.3314Z" fill="white"/>
<path fill-rule="evenodd" clip-rule="evenodd" d="M307.391 381.488C306.322 375.357 300.518 371.246 294.424 372.308L269.302 376.673L270.335 382.615L295.457 378.25C296.814 378.011 298.212 378.326 299.343 379.127C300.474 379.928 301.245 381.149 301.488 382.521C302.217 386.704 297.96 389.969 294.14 388.155L287.161 384.842C278.876 380.907 269.637 387.99 271.22 397.066C272.298 403.253 278.154 407.398 284.303 406.332L309.754 401.909L308.721 395.967L283.27 400.39C282.585 400.511 281.882 400.494 281.203 400.34C280.523 400.187 279.879 399.899 279.308 399.495C278.738 399.091 278.251 398.577 277.876 397.983C277.501 397.389 277.245 396.727 277.123 396.035C276.38 391.771 280.718 388.444 284.612 390.292L291.591 393.605C299.806 397.504 308.96 390.485 307.391 381.488Z" fill="white"/>
<path fill-rule="evenodd" clip-rule="evenodd" d="M762.248 397.208C761.609 391.016 756.106 386.51 749.953 387.144L724.587 389.745L725.203 395.744L750.569 393.144C751.94 393 753.312 393.412 754.384 394.29C755.456 395.168 756.141 396.44 756.286 397.825C756.722 402.05 752.248 405.009 748.563 402.933L741.833 399.141C733.842 394.637 724.132 401.057 725.077 410.222C725.721 416.469 731.273 421.012 737.481 420.378L763.179 417.744L762.564 411.744L736.866 414.379C736.174 414.452 735.474 414.386 734.807 414.185C734.139 413.984 733.517 413.653 732.976 413.209C732.435 412.766 731.985 412.22 731.653 411.601C731.32 410.983 731.111 410.304 731.038 409.605C730.594 405.3 735.154 402.284 738.91 404.399L745.64 408.192C753.562 412.655 763.185 406.292 762.248 397.208Z" fill="white"/>
<path fill-rule="evenodd" clip-rule="evenodd" d="M78.3496 466.134C80.6622 460.356 87.1906 457.533 92.9333 459.831L116.612 469.292L114.374 474.892L90.6951 465.431C89.4164 464.917 87.9835 464.937 86.7116 465.487C85.4396 466.037 84.4327 467.072 83.9124 468.364C82.334 472.307 85.8249 476.381 89.9378 475.395L97.4502 473.596C106.37 471.457 113.946 480.295 110.523 488.849C108.189 494.679 101.603 497.525 95.8071 495.212L71.8186 485.627L74.0568 480.027L98.0453 489.612C98.6908 489.871 99.3817 490 100.079 489.99C100.775 489.98 101.464 489.832 102.107 489.554C102.749 489.277 103.331 488.874 103.82 488.371C104.31 487.868 104.697 487.273 104.959 486.62C106.568 482.602 103.01 478.45 98.8182 479.454L91.3057 481.254C82.4626 483.372 74.9557 474.613 78.3496 466.134Z" fill="white"/>
<path fill-rule="evenodd" clip-rule="evenodd" d="M527.854 465.653C530.565 460.051 537.274 457.691 542.843 460.384L565.803 471.475L563.179 476.906L540.219 465.814C538.979 465.212 537.548 465.132 536.241 465.591C534.934 466.051 533.857 467.013 533.248 468.266C531.398 472.089 534.596 476.397 538.768 475.701L546.387 474.43C555.435 472.92 562.375 482.265 558.363 490.559C555.628 496.212 548.859 498.591 543.239 495.879L519.978 484.642L522.602 479.212L545.863 490.449C546.488 490.753 547.169 490.929 547.865 490.968C548.56 491.007 549.258 490.907 549.918 490.675C550.578 490.443 551.187 490.082 551.71 489.614C552.234 489.146 552.661 488.58 552.969 487.947C554.854 484.051 551.595 479.661 547.343 480.37L539.723 481.641C530.754 483.136 523.877 473.874 527.854 465.653Z" fill="white"/>
<path fill-rule="evenodd" clip-rule="evenodd" d="M351.483 473.765C350.413 467.634 344.609 463.523 338.516 464.585L313.393 468.95L314.426 474.892L339.549 470.527C340.906 470.288 342.304 470.603 343.435 471.404C344.566 472.205 345.337 473.426 345.579 474.798C346.309 478.981 342.052 482.246 338.231 480.432L331.252 477.119C322.967 473.184 313.728 480.267 315.311 489.343C316.39 495.53 322.246 499.675 328.395 498.609L353.846 494.186L352.813 488.244L327.362 492.667C326.676 492.788 325.974 492.771 325.294 492.617C324.614 492.464 323.971 492.176 323.4 491.772C322.829 491.368 322.342 490.854 321.967 490.26C321.592 489.666 321.337 489.004 321.215 488.312C320.471 484.048 324.81 480.721 328.704 482.569L335.682 485.882C343.897 489.781 353.052 482.762 351.483 473.765Z" fill="white"/>
<path fill-rule="evenodd" clip-rule="evenodd" d="M799.788 492.338C799.15 486.147 793.646 481.641 787.494 482.275L762.128 484.875L762.743 490.875L788.109 488.274C789.48 488.131 790.852 488.543 791.924 489.421C792.997 490.299 793.681 491.57 793.827 492.956C794.263 497.18 789.788 500.14 786.103 498.064L779.373 494.272C771.383 489.768 761.672 496.188 762.617 505.353C763.261 511.599 768.813 516.143 775.021 515.509L800.719 512.874L800.104 506.875L774.406 509.51C773.714 509.582 773.014 509.516 772.347 509.316C771.68 509.115 771.057 508.783 770.516 508.34C769.975 507.897 769.525 507.35 769.193 506.732C768.86 506.113 768.651 505.435 768.578 504.736C768.134 500.43 772.695 497.414 776.45 499.53L783.18 503.322C791.103 507.785 800.725 501.422 799.788 492.338Z" fill="white"/>
<path fill-rule="evenodd" clip-rule="evenodd" d="M153.254 118.282C157.102 123.174 156.283 130.239 151.421 134.064L131.389 149.839L127.658 145.101L147.691 129.325C148.775 128.475 149.475 127.224 149.634 125.848C149.794 124.471 149.401 123.082 148.542 121.985C145.917 118.646 140.643 119.633 139.44 123.687L137.242 131.093C134.635 139.887 123.192 142.029 117.496 134.787C113.614 129.851 114.442 122.725 119.344 118.862L139.639 102.88L143.37 107.618L123.075 123.6C122.527 124.03 122.07 124.564 121.73 125.172C121.391 125.781 121.174 126.451 121.094 127.146C121.013 127.841 121.07 128.547 121.262 129.222C121.453 129.898 121.775 130.531 122.208 131.084C124.884 134.486 130.258 133.481 131.485 129.349L133.682 121.943C136.27 113.225 147.609 111.104 153.254 118.282Z" fill="white"/>
<path fill-rule="evenodd" clip-rule="evenodd" d="M622.755 106.823C626.252 111.972 624.941 118.962 619.825 122.438L598.739 136.776L595.348 131.789L616.434 117.451C617.576 116.678 618.36 115.479 618.616 114.117C618.871 112.755 618.576 111.342 617.796 110.187C615.41 106.674 610.081 107.29 608.597 111.25L605.888 118.485C602.673 127.075 591.109 128.413 585.932 120.791C582.404 115.596 583.728 108.545 588.887 105.034L610.249 90.5076L613.64 95.4949L592.278 110.021C591.702 110.411 591.209 110.912 590.827 111.495C590.446 112.078 590.183 112.732 590.054 113.42C589.925 114.107 589.933 114.815 590.077 115.502C590.22 116.19 590.497 116.843 590.891 117.426C593.323 121.006 598.754 120.379 600.266 116.342L602.976 109.108C606.165 100.592 617.625 99.2679 622.755 106.823Z" fill="white"/>
<path fill-rule="evenodd" clip-rule="evenodd" d="M575.808 251.322C579.305 256.471 577.994 263.461 572.877 266.937L551.792 281.275L548.401 276.288L569.487 261.95C570.628 261.177 571.413 259.978 571.668 258.616C571.924 257.254 571.629 255.841 570.848 254.687C568.463 251.173 563.133 251.789 561.65 255.749L558.94 262.984C555.725 271.574 544.161 272.912 538.985 265.29C535.457 260.095 536.78 253.044 541.94 249.533L563.301 235.007L566.692 239.994L545.33 254.52C544.754 254.91 544.261 255.411 543.88 255.994C543.498 256.577 543.236 257.231 543.107 257.919C542.978 258.606 542.986 259.314 543.129 260.001C543.273 260.689 543.55 261.342 543.944 261.925C546.375 265.505 551.807 264.878 553.319 260.841L556.028 253.607C559.218 245.092 570.678 243.767 575.808 251.322Z" fill="white"/>
<path fill-rule="evenodd" clip-rule="evenodd" d="M358.688 102.667C353.913 106.659 353.255 113.741 357.222 118.487L373.563 138.061L378.193 134.195L361.851 114.621C360.965 113.566 360.539 112.197 360.668 110.817C360.796 109.438 361.467 108.159 362.534 107.263C365.793 104.54 370.748 106.594 371.088 110.81L371.708 118.51C372.443 127.653 383.196 132.112 390.265 126.203C395.083 122.176 395.745 115.032 391.748 110.24L375.192 90.41L370.563 94.2755L387.118 114.106C387.566 114.639 387.902 115.256 388.109 115.921C388.316 116.586 388.389 117.287 388.324 117.984C388.259 118.681 388.058 119.359 387.731 119.981C387.404 120.602 386.959 121.155 386.42 121.607C383.099 124.382 378.048 122.289 377.702 117.992L377.082 110.292C376.351 101.228 365.695 96.81 358.688 102.667Z" fill="white"/>
<path fill-rule="evenodd" clip-rule="evenodd" d="M832.89 122.649C827.847 126.298 826.697 133.317 830.322 138.328L845.257 158.995L850.145 155.463L835.21 134.795C834.4 133.68 834.071 132.285 834.295 130.918C834.519 129.55 835.278 128.322 836.405 127.503C839.846 125.013 844.646 127.409 844.691 131.638L844.772 139.362C844.866 148.534 855.282 153.734 862.746 148.333C867.834 144.652 868.993 137.572 865.34 132.512L850.209 111.575L845.321 115.107L860.452 136.045C860.86 136.608 861.153 137.247 861.313 137.925C861.473 138.604 861.497 139.308 861.384 139.998C861.27 140.689 861.022 141.351 860.653 141.948C860.283 142.546 859.8 143.066 859.231 143.479C855.725 146.016 850.832 143.575 850.787 139.265L850.706 131.54C850.61 122.447 840.288 117.296 832.89 122.649Z" fill="white"/>
<path fill-rule="evenodd" clip-rule="evenodd" d="M209.256 325.779C213.104 330.671 212.284 337.737 207.423 341.561L187.39 357.337L183.659 352.598L203.692 336.823C204.777 335.972 205.476 334.721 205.636 333.345C205.795 331.968 205.403 330.579 204.544 329.482C201.918 326.144 196.645 327.13 195.442 331.185L193.244 338.591C190.636 347.384 179.194 349.527 173.498 342.285C169.616 337.349 170.444 330.222 175.345 326.359L195.641 310.377L199.371 315.116L179.076 331.098C178.529 331.527 178.072 332.061 177.732 332.669C177.392 333.278 177.176 333.949 177.095 334.644C177.015 335.339 177.072 336.044 177.263 336.72C177.454 337.395 177.776 338.028 178.21 338.581C180.886 341.983 186.26 340.978 187.486 336.846L189.684 329.44C192.271 320.723 203.611 318.601 209.256 325.779Z" fill="white"/>
<path fill-rule="evenodd" clip-rule="evenodd" d="M668.242 334.782C671.739 339.931 670.428 346.922 665.312 350.397L644.226 364.736L640.835 359.748L661.921 345.41C663.062 344.637 663.847 343.438 664.103 342.076C664.358 340.714 664.063 339.301 663.283 338.147C660.897 334.633 655.568 335.249 654.084 339.21L651.375 346.444C648.159 355.034 636.595 356.372 631.419 348.75C627.891 343.555 629.215 336.504 634.374 332.993L655.736 318.467L659.126 323.454L637.765 337.98C637.189 338.37 636.696 338.871 636.314 339.454C635.933 340.037 635.67 340.691 635.541 341.379C635.412 342.067 635.42 342.774 635.564 343.462C635.707 344.149 635.984 344.803 636.378 345.385C638.81 348.965 644.241 348.338 645.753 344.301L648.462 337.067C651.652 328.552 663.112 327.227 668.242 334.782Z" fill="white"/>
<path fill-rule="evenodd" clip-rule="evenodd" d="M252.395 309.394C247.62 313.386 246.962 320.468 250.928 325.214L267.27 344.788L271.899 340.923L255.558 321.349C254.672 320.293 254.246 318.925 254.374 317.545C254.502 316.165 255.174 314.886 256.241 313.991C259.499 311.267 264.455 313.321 264.795 317.537L265.415 325.237C266.15 334.38 276.903 338.84 283.972 332.931C288.79 328.903 289.452 321.76 285.454 316.967L268.899 297.137L264.269 301.003L280.825 320.833C281.272 321.366 281.609 321.983 281.816 322.648C282.023 323.314 282.096 324.015 282.031 324.711C281.966 325.408 281.764 326.086 281.438 326.708C281.111 327.329 280.666 327.882 280.127 328.334C276.806 331.11 271.755 329.016 271.409 324.719L270.789 317.019C270.058 307.956 259.402 303.537 252.395 309.394Z" fill="white"/>
<path fill-rule="evenodd" clip-rule="evenodd" d="M712.42 321.45C707.378 325.098 706.227 332.117 709.852 337.128L724.787 357.796L729.675 354.263L714.74 333.596C713.93 332.48 713.601 331.086 713.825 329.718C714.05 328.351 714.809 327.122 715.936 326.303C719.376 323.813 724.177 326.209 724.221 330.438L724.302 338.163C724.397 347.335 734.812 352.534 742.276 347.133C747.364 343.452 748.523 336.372 744.87 331.313L729.739 310.375L724.851 313.908L739.982 334.845C740.391 335.408 740.684 336.047 740.843 336.725C741.003 337.404 741.027 338.108 740.914 338.799C740.801 339.489 740.552 340.152 740.183 340.749C739.814 341.346 739.331 341.866 738.762 342.279C735.255 344.816 730.363 342.375 730.317 338.065L730.236 330.34C730.14 321.248 719.819 316.096 712.42 321.45Z" fill="white"/>
<path fill-rule="evenodd" clip-rule="evenodd" d="M106.767 547.839C110.615 552.731 109.795 559.797 104.934 563.621L84.901 579.397L81.1702 574.658L101.203 558.883C102.288 558.032 102.987 556.781 103.147 555.405C103.306 554.028 102.913 552.639 102.054 551.542C99.4292 548.204 94.1558 549.19 92.9525 553.245L90.755 560.65C88.1472 569.444 76.7049 571.587 71.0089 564.345C67.1267 559.409 67.9549 552.282 72.8563 548.419L93.1515 532.437L96.8823 537.176L76.5872 553.158C76.0396 553.587 75.5828 554.121 75.2429 554.729C74.903 555.338 74.6866 556.009 74.6062 556.704C74.5258 557.398 74.5828 558.104 74.774 558.78C74.9653 559.455 75.287 560.088 75.7209 560.641C78.3967 564.043 83.771 563.038 84.9973 558.906L87.1949 551.5C89.7823 542.783 101.121 540.661 106.767 547.839Z" fill="white"/>
<path fill-rule="evenodd" clip-rule="evenodd" d="M550.497 549.143C553.994 554.292 552.683 561.283 547.566 564.758L526.481 579.097L523.09 574.109L544.176 559.771C545.317 558.999 546.102 557.8 546.357 556.438C546.613 555.075 546.318 553.662 545.538 552.508C543.152 548.994 537.822 549.61 536.339 553.571L533.63 560.805C530.414 569.395 518.85 570.733 513.674 563.111C510.146 557.916 511.469 550.865 516.629 547.354L537.99 532.828L541.381 537.815L520.02 552.341C519.443 552.731 518.95 553.232 518.569 553.815C518.187 554.398 517.925 555.052 517.796 555.74C517.667 556.428 517.675 557.135 517.818 557.823C517.962 558.51 518.239 559.164 518.633 559.746C521.064 563.327 526.496 562.699 528.008 558.663L530.717 551.428C533.907 542.913 545.367 541.588 550.497 549.143Z" fill="white"/>
<path fill-rule="evenodd" clip-rule="evenodd" d="M306.799 547.837C302.024 551.828 301.366 558.911 305.332 563.657L321.674 583.231L326.303 579.365L309.962 559.791C309.076 558.735 308.65 557.367 308.778 555.987C308.907 554.607 309.578 553.329 310.645 552.433C313.903 549.709 318.859 551.764 319.199 555.979L319.819 563.679C320.554 572.822 331.307 577.282 338.376 571.373C343.194 567.346 343.856 560.202 339.859 555.41L323.303 535.58L318.674 539.445L335.229 559.275C335.676 559.808 336.013 560.425 336.22 561.091C336.427 561.756 336.5 562.457 336.435 563.154C336.37 563.85 336.169 564.529 335.842 565.15C335.515 565.772 335.07 566.324 334.531 566.776C331.21 569.552 326.159 567.458 325.813 563.162L325.193 555.462C324.462 546.398 313.806 541.98 306.799 547.837Z" fill="white"/>
<path fill-rule="evenodd" clip-rule="evenodd" d="M185.417 144.335C179.639 142.022 176.816 135.494 179.114 129.751L188.575 106.072L194.175 108.311L184.714 131.989C184.2 133.268 184.22 134.701 184.77 135.973C185.32 137.245 186.355 138.252 187.647 138.772C191.59 140.35 195.664 136.859 194.678 132.746L192.879 125.234C190.74 116.314 199.578 108.738 208.132 112.162C213.962 114.495 216.808 121.081 214.495 126.877L204.91 150.866L199.31 148.628L208.895 124.639C209.154 123.993 209.283 123.303 209.273 122.606C209.263 121.909 209.115 121.22 208.837 120.578C208.559 119.936 208.157 119.353 207.654 118.864C207.15 118.374 206.555 117.987 205.903 117.725C201.885 116.117 197.733 119.674 198.737 123.866L200.537 131.379C202.655 140.222 193.896 147.729 185.417 144.335Z" fill="white"/>
<path fill-rule="evenodd" clip-rule="evenodd" d="M657.132 152.116C651.529 149.405 649.169 142.696 651.862 137.127L662.954 114.167L668.384 116.791L657.293 139.751C656.69 140.991 656.61 142.422 657.07 143.729C657.53 145.036 658.492 146.113 659.745 146.722C663.568 148.572 667.875 145.374 667.18 141.202L665.909 133.583C664.398 124.536 673.744 117.595 682.038 121.607C687.691 124.342 690.07 131.111 687.357 136.731L676.121 159.992L670.69 157.368L681.927 134.107C682.231 133.482 682.408 132.801 682.447 132.106C682.485 131.41 682.386 130.712 682.154 130.052C681.921 129.392 681.561 128.783 681.093 128.26C680.625 127.736 680.058 127.309 679.426 127.001C675.53 125.116 671.14 128.376 671.849 132.627L673.119 140.247C674.615 149.216 665.353 156.093 657.132 152.116Z" fill="white"/>
<path fill-rule="evenodd" clip-rule="evenodd" d="M313.203 136.788C319.334 135.719 323.445 129.915 322.383 123.821L318.018 98.6991L312.076 99.7321L316.441 124.854C316.68 126.212 316.365 127.61 315.564 128.741C314.763 129.871 313.542 130.643 312.171 130.885C307.987 131.615 304.722 127.358 306.536 123.537L309.849 116.558C313.784 108.273 306.701 99.0342 297.625 100.617C291.438 101.696 287.293 107.552 288.359 113.701L292.782 139.152L298.724 138.119L294.301 112.668C294.18 111.982 294.197 111.28 294.351 110.6C294.504 109.92 294.792 109.277 295.196 108.706C295.6 108.135 296.114 107.648 296.708 107.273C297.302 106.898 297.964 106.643 298.656 106.521C302.92 105.777 306.247 110.116 304.399 114.01L301.086 120.988C297.187 129.203 304.206 138.358 313.203 136.788Z" fill="white"/>
<path fill-rule="evenodd" clip-rule="evenodd" d="M785.133 153.511C791.324 152.873 795.83 147.37 795.196 141.217L792.595 115.851L786.596 116.466L789.196 141.832C789.34 143.203 788.928 144.575 788.05 145.648C787.172 146.72 785.9 147.404 784.515 147.55C780.29 147.986 777.331 143.511 779.407 139.826L783.199 133.096C787.703 125.106 781.283 115.395 772.118 116.34C765.872 116.984 761.328 122.536 761.962 128.745L764.596 154.443L770.596 153.827L767.961 128.129C767.889 127.437 767.955 126.737 768.155 126.07C768.356 125.403 768.687 124.781 769.131 124.24C769.574 123.698 770.12 123.249 770.739 122.916C771.357 122.584 772.036 122.375 772.735 122.301C777.04 121.857 780.056 126.418 777.941 130.173L774.149 136.903C769.685 144.826 776.048 154.448 785.133 153.511Z" fill="white"/>
<path fill-rule="evenodd" clip-rule="evenodd" d="M85.2509 192.014C91.3822 190.945 95.493 185.141 94.431 179.047L90.0656 153.925L84.1238 154.958L88.4892 180.08C88.7284 181.437 88.4128 182.835 87.6119 183.966C86.811 185.097 85.5904 185.868 84.2184 186.111C80.0347 186.841 76.77 182.583 78.5836 178.763L81.8965 171.784C85.8316 163.499 78.7491 154.26 69.6725 155.843C63.4862 156.921 59.3411 162.777 60.4071 168.926L64.8298 194.377L70.7715 193.344L66.3489 167.893C66.2282 167.208 66.2452 166.505 66.3987 165.826C66.5523 165.146 66.8395 164.502 67.2439 163.931C67.6484 163.361 68.1621 162.874 68.7558 162.499C69.3496 162.124 70.0116 161.868 70.7043 161.746C74.9681 161.003 78.2952 165.341 76.4469 169.235L73.1339 176.214C69.2349 184.429 76.2544 193.583 85.2509 192.014Z" fill="white"/>
<path fill-rule="evenodd" clip-rule="evenodd" d="M114.651 91.3521C120.782 90.283 124.893 84.4787 123.831 78.3851L119.465 53.2627L113.524 54.2957L117.889 79.4181C118.128 80.7755 117.813 82.1733 117.012 83.3042C116.211 84.4351 114.99 85.2065 113.618 85.4486C109.434 86.1785 106.17 81.9213 107.983 78.1006L111.296 71.122C115.231 62.8366 108.149 53.5979 99.0723 55.1806C92.8859 56.2595 88.7408 62.1152 89.8068 68.2641L94.2295 93.7153L100.171 92.6823L95.7486 67.2312C95.6279 66.5459 95.6449 65.8434 95.7984 65.1636C95.952 64.4839 96.2392 63.8402 96.6437 63.2694C97.0481 62.6986 97.5618 62.2118 98.1556 61.8369C98.7493 61.4619 99.4114 61.2062 100.104 61.0842C104.368 60.3407 107.695 64.6794 105.847 68.5733L102.534 75.5519C98.6346 83.7667 105.654 92.9212 114.651 91.3521Z" fill="white"/>
<path fill-rule="evenodd" clip-rule="evenodd" d="M553.881 192.684C560.072 192.046 564.578 186.543 563.944 180.39L561.343 155.024L555.344 155.64L557.944 181.005C558.088 182.376 557.676 183.749 556.798 184.821C555.92 185.893 554.648 186.577 553.263 186.723C549.038 187.159 546.079 182.684 548.155 178.999L551.947 172.269C556.451 164.279 550.031 154.568 540.866 155.513C534.62 156.157 530.076 161.709 530.71 167.918L533.344 193.616L539.344 193L536.709 167.302C536.637 166.61 536.703 165.911 536.903 165.243C537.104 164.576 537.435 163.954 537.879 163.413C538.322 162.871 538.868 162.422 539.487 162.089C540.105 161.757 540.784 161.548 541.483 161.474C545.789 161.03 548.805 165.591 546.689 169.346L542.897 176.076C538.433 183.999 544.797 193.621 553.881 192.684Z" fill="white"/>
<path fill-rule="evenodd" clip-rule="evenodd" d="M88.5565 419.935C82.7783 417.623 79.9553 411.094 82.2532 405.352L91.7143 381.673L97.3145 383.911L87.8534 407.59C87.339 408.868 87.359 410.301 87.909 411.573C88.459 412.845 89.4939 413.852 90.7863 414.372C94.729 415.951 98.8027 412.46 97.8175 408.347L96.0177 400.835C93.8792 391.915 102.717 384.339 111.271 387.762C117.101 390.096 119.947 396.682 117.634 402.478L108.049 426.466L102.449 424.228L112.034 400.239C112.293 399.594 112.422 398.903 112.412 398.206C112.402 397.509 112.254 396.82 111.976 396.178C111.699 395.536 111.297 394.954 110.793 394.464C110.29 393.975 109.695 393.588 109.042 393.325C105.024 391.717 100.872 395.275 101.876 399.467L103.676 406.979C105.794 415.822 97.0348 423.329 88.5565 419.935Z" fill="white"/>
<path fill-rule="evenodd" clip-rule="evenodd" d="M541.263 420.28C535.66 417.569 533.3 410.86 535.993 405.291L547.084 382.331L552.515 384.955L541.423 407.915C540.821 409.155 540.741 410.586 541.2 411.893C541.66 413.2 542.622 414.277 543.875 414.886C547.698 416.736 552.006 413.538 551.31 409.366L550.039 401.747C548.529 392.699 557.875 385.759 566.168 389.771C571.821 392.506 574.2 399.275 571.488 404.895L560.251 428.156L554.821 425.532L566.058 402.271C566.362 401.646 566.538 400.965 566.577 400.27C566.616 399.574 566.516 398.876 566.284 398.216C566.052 397.556 565.691 396.947 565.223 396.424C564.755 395.9 564.189 395.473 563.556 395.165C559.66 393.28 555.27 396.539 555.979 400.791L557.25 408.411C558.745 417.38 549.483 424.257 541.263 420.28Z" fill="white"/>
<path fill-rule="evenodd" clip-rule="evenodd" d="M351.04 426.454C357.171 425.385 361.282 419.58 360.22 413.487L355.855 388.364L349.913 389.397L354.278 414.52C354.517 415.877 354.202 417.275 353.401 418.406C352.6 419.537 351.379 420.308 350.007 420.55C345.824 421.28 342.559 417.023 344.373 413.202L347.685 406.224C351.621 397.938 344.538 388.7 335.462 390.282C329.275 391.361 325.13 397.217 326.196 403.366L330.619 428.817L336.56 427.784L332.138 402.333C332.017 401.648 332.034 400.945 332.188 400.265C332.341 399.586 332.628 398.942 333.033 398.371C333.437 397.8 333.951 397.314 334.545 396.939C335.139 396.564 335.801 396.308 336.493 396.186C340.757 395.442 344.084 399.781 342.236 403.675L338.923 410.654C335.024 418.868 342.043 428.023 351.04 426.454Z" fill="white"/>
<path fill-rule="evenodd" clip-rule="evenodd" d="M407.369 323.354C413.501 322.285 417.611 316.481 416.549 310.387L412.184 285.265L406.242 286.298L410.608 311.42C410.847 312.777 410.531 314.175 409.73 315.306C408.929 316.437 407.709 317.208 406.337 317.451C402.153 318.18 398.888 313.923 400.702 310.103L404.015 303.124C407.95 294.839 400.868 285.6 391.791 287.183C385.605 288.261 381.46 294.117 382.526 300.266L386.948 325.717L392.89 324.684L388.467 299.233C388.347 298.548 388.364 297.845 388.517 297.166C388.671 296.486 388.958 295.842 389.362 295.271C389.767 294.701 390.281 294.214 390.874 293.839C391.468 293.464 392.13 293.208 392.823 293.086C397.087 292.343 400.414 296.681 398.565 300.575L395.252 307.554C391.353 315.769 398.373 324.923 407.369 323.354Z" fill="white"/>
<path fill-rule="evenodd" clip-rule="evenodd" d="M802.65 445.111C808.841 444.473 813.347 438.97 812.713 432.817L810.113 407.451L804.113 408.067L806.714 433.433C806.857 434.804 806.445 436.176 805.567 437.248C804.689 438.32 803.418 439.005 802.032 439.15C797.808 439.586 794.848 435.111 796.924 431.427L800.716 424.697C805.22 416.706 798.8 406.995 789.635 407.941C783.389 408.585 778.845 414.137 779.479 420.345L782.114 446.043L788.113 445.427L785.478 419.73C785.406 419.038 785.472 418.338 785.672 417.671C785.873 417.003 786.205 416.381 786.648 415.84C787.091 415.299 787.638 414.849 788.256 414.517C788.875 414.184 789.553 413.975 790.252 413.902C794.558 413.458 797.574 418.018 795.458 421.774L791.666 428.504C787.203 436.426 793.566 446.049 802.65 445.111Z" fill="white"/>
<path fill-rule="evenodd" clip-rule="evenodd" d="M146.998 280.655C141.22 278.342 138.397 271.814 140.695 266.071L150.156 242.392L155.756 244.63L146.295 268.309C145.78 269.588 145.8 271.021 146.35 272.293C146.9 273.565 147.935 274.571 149.228 275.092C153.17 276.67 157.244 273.179 156.259 269.066L154.459 261.554C152.321 252.634 161.159 245.058 169.713 248.482C175.543 250.815 178.389 257.401 176.075 263.197L166.49 287.186L160.89 284.947L170.475 260.959C170.735 260.313 170.863 259.622 170.854 258.926C170.844 258.229 170.696 257.54 170.418 256.898C170.14 256.256 169.738 255.673 169.235 255.184C168.731 254.694 168.136 254.307 167.484 254.045C163.465 252.436 159.314 255.994 160.318 260.186L162.118 267.698C164.235 276.542 155.476 284.048 146.998 280.655Z" fill="white"/>
<path fill-rule="evenodd" clip-rule="evenodd" d="M609.287 285.42C603.685 282.709 601.324 276 604.018 270.432L615.109 247.472L620.539 250.095L609.448 273.055C608.845 274.295 608.765 275.726 609.225 277.033C609.685 278.34 610.647 279.417 611.9 280.026C615.723 281.876 620.03 278.678 619.335 274.507L618.064 266.887C616.553 257.84 625.899 250.899 634.193 254.912C639.846 257.647 642.225 264.415 639.513 270.035L628.276 293.296L622.846 290.672L634.082 267.412C634.387 266.786 634.563 266.106 634.602 265.41C634.641 264.714 634.541 264.016 634.309 263.356C634.077 262.697 633.716 262.087 633.248 261.564C632.78 261.041 632.214 260.613 631.581 260.306C627.685 258.421 623.295 261.68 624.004 265.931L625.275 273.551C626.77 282.521 617.508 289.398 609.287 285.42Z" fill="white"/>
<path fill-rule="evenodd" clip-rule="evenodd" d="M322.632 278.105C328.763 277.036 332.874 271.231 331.812 265.138L327.447 240.015L321.505 241.048L325.87 266.171C326.11 267.528 325.794 268.926 324.993 270.057C324.192 271.188 322.972 271.959 321.6 272.201C317.416 272.931 314.151 268.674 315.965 264.853L319.278 257.875C323.213 249.589 316.13 240.35 307.054 241.933C300.867 243.012 296.722 248.868 297.788 255.017L302.211 280.468L308.153 279.435L303.73 253.984C303.609 253.298 303.626 252.596 303.78 251.916C303.934 251.236 304.221 250.593 304.625 250.022C305.03 249.451 305.543 248.964 306.137 248.589C306.731 248.214 307.393 247.959 308.086 247.837C312.349 247.093 315.676 251.432 313.828 255.326L310.515 262.304C306.616 270.519 313.636 279.674 322.632 278.105Z" fill="white"/>
<path fill-rule="evenodd" clip-rule="evenodd" d="M266.762 75.374C272.893 74.305 277.004 68.5006 275.942 62.4071L271.577 37.2847L265.635 38.3177L270 63.44C270.24 64.7974 269.924 66.1953 269.123 67.3262C268.322 68.4571 267.102 69.2284 265.73 69.4706C261.546 70.2005 258.281 65.9432 260.095 62.1226L263.408 55.144C267.343 46.8586 260.26 37.6198 251.184 39.2026C244.997 40.2814 240.852 46.1371 241.918 52.2861L246.341 77.7373L252.283 76.7043L247.86 51.2531C247.739 50.5679 247.756 49.8654 247.91 49.1856C248.064 48.5058 248.351 47.8622 248.755 47.2914C249.16 46.7206 249.673 46.2338 250.267 45.8589C250.861 45.4839 251.523 45.2281 252.215 45.1061C256.479 44.3627 259.806 48.7013 257.958 52.5953L254.645 59.5739C250.746 67.7887 257.766 76.9432 266.762 75.374Z" fill="white"/>
<path fill-rule="evenodd" clip-rule="evenodd" d="M784.671 295.141C790.862 294.502 795.368 288.999 794.734 282.846L792.134 257.48L786.134 258.096L788.735 283.462C788.878 284.833 788.466 286.205 787.588 287.277C786.71 288.349 785.439 289.034 784.053 289.179C779.829 289.615 776.869 285.141 778.945 281.456L782.737 274.726C787.241 266.735 780.821 257.025 771.656 257.97C765.41 258.614 760.866 264.166 761.5 270.374L764.135 296.072L770.134 295.457L767.499 269.759C767.427 269.067 767.493 268.367 767.693 267.7C767.894 267.032 768.226 266.41 768.669 265.869C769.112 265.328 769.659 264.878 770.277 264.546C770.896 264.213 771.574 264.004 772.273 263.931C776.579 263.487 779.595 268.047 777.479 271.803L773.687 278.533C769.224 286.455 775.587 296.078 784.671 295.141Z" fill="white"/>
<path fill-rule="evenodd" clip-rule="evenodd" d="M126.879 537.052C121.101 534.739 118.278 528.211 120.576 522.468L130.037 498.789L135.637 501.027L126.176 524.706C125.662 525.985 125.682 527.418 126.232 528.69C126.782 529.962 127.817 530.969 129.109 531.489C133.052 533.067 137.125 529.576 136.14 525.463L134.34 517.951C132.202 509.031 141.04 501.455 149.594 504.879C155.424 507.212 158.27 513.798 155.957 519.594L146.372 543.583L140.771 541.344L150.356 517.356C150.616 516.71 150.745 516.02 150.735 515.323C150.725 514.626 150.577 513.937 150.299 513.295C150.021 512.653 149.619 512.07 149.116 511.581C148.612 511.091 148.017 510.704 147.365 510.442C143.347 508.834 139.195 512.391 140.199 516.583L141.999 524.096C144.117 532.939 135.358 540.446 126.879 537.052Z" fill="white"/>
<path fill-rule="evenodd" clip-rule="evenodd" d="M571.314 539.786C565.711 537.076 563.351 530.366 566.044 524.798L577.135 501.838L582.566 504.462L571.474 527.422C570.872 528.661 570.792 530.092 571.251 531.4C571.711 532.707 572.673 533.783 573.926 534.393C577.749 536.243 582.057 533.045 581.361 528.873L580.09 521.253C578.58 512.206 587.926 505.265 596.219 509.278C601.872 512.013 604.251 518.781 601.539 524.402L590.302 547.662L584.872 545.039L596.109 521.778C596.413 521.152 596.589 520.472 596.628 519.776C596.667 519.08 596.567 518.383 596.335 517.723C596.103 517.063 595.742 516.454 595.274 515.93C594.806 515.407 594.24 514.979 593.607 514.672C589.711 512.787 585.321 516.046 586.03 520.298L587.301 527.918C588.796 536.887 579.534 543.764 571.314 539.786Z" fill="white"/>
<path fill-rule="evenodd" clip-rule="evenodd" d="M289.349 533.127C295.481 532.058 299.591 526.254 298.529 520.16L294.164 495.038L288.222 496.071L292.588 521.193C292.827 522.55 292.511 523.948 291.71 525.079C290.909 526.21 289.689 526.981 288.317 527.224C284.133 527.953 280.868 523.696 282.682 519.876L285.995 512.897C289.93 504.612 282.848 495.373 273.771 496.956C267.585 498.034 263.44 503.89 264.506 510.039L268.928 535.49L274.87 534.457L270.447 509.006C270.327 508.321 270.344 507.618 270.497 506.939C270.651 506.259 270.938 505.615 271.342 505.044C271.747 504.474 272.261 503.987 272.854 503.612C273.448 503.237 274.11 502.981 274.803 502.859C279.067 502.116 282.394 506.454 280.545 510.348L277.232 517.327C273.333 525.542 280.353 534.696 289.349 533.127Z" fill="white"/>
<path fill-rule="evenodd" clip-rule="evenodd" d="M733.661 547.216C739.852 546.578 744.358 541.075 743.724 534.922L741.124 509.556L735.124 510.172L737.725 535.538C737.869 536.909 737.456 538.281 736.578 539.353C735.7 540.425 734.429 541.11 733.043 541.255C728.819 541.691 725.859 537.217 727.935 533.532L731.728 526.802C736.232 518.811 729.812 509.1 720.647 510.046C714.4 510.69 709.856 516.242 710.49 522.45L713.125 548.148L719.124 547.532L716.49 521.835C716.417 521.143 716.483 520.443 716.684 519.776C716.884 519.108 717.216 518.486 717.659 517.945C718.102 517.404 718.649 516.954 719.267 516.622C719.886 516.289 720.564 516.08 721.264 516.007C725.569 515.563 728.585 520.123 726.469 523.879L722.677 530.609C718.214 538.531 724.577 548.154 733.661 547.216Z" fill="white"/>
</g>
</g>
</g>
<defs>
<clipPath id="clip0_28_644">
<rect width="932" height="545.827" fill="white"/>
</clipPath>
<clipPath id="clip1_28_644">
<rect width="1920" height="5000" fill="white" transform="translate(-494 -2227)"/>
</clipPath>
</defs>
</svg>
