<svg width="240" height="240" viewBox="0 0 240 240" fill="none" xmlns="http://www.w3.org/2000/svg">
<path d="M0 0H240V240H0V0Z" fill="#D2ECFF"/>
<path d="M90.0509 70.1677C95.2768 78.8774 99.9219 85.8452 99.9219 95.9484C99.9219 105.006 94.1155 114.413 85.0574 114.413C76.3477 114.413 70.4251 105.819 70.4251 96.6452C70.4251 87.7032 73.3284 80.3871 73.3284 80.3871H83.78C82.7348 78.6452 81.5735 76.7871 80.4122 74.6968C74.9542 65.6387 71.4703 57.0452 71.4703 47.1742C71.4703 38.3484 76.1155 30.2194 85.0574 30.2194C93.8832 30.2194 98.7606 37.071 98.7606 46.3613C98.7606 55.3032 96.7864 61.1097 96.7864 61.1097H85.2897C86.5671 64.129 88.1929 67.0323 90.0509 70.1677ZM82.2703 46.4774C82.2703 52.2839 83.4316 56.8129 85.1735 61.1097C85.5219 60.4129 87.9606 54.3742 87.9606 46.3613C87.9606 43.3419 87.38 40.2064 85.1735 40.2064C82.9671 40.0903 82.2703 43.3419 82.2703 46.4774ZM85.0574 104.426C88.0768 104.426 89.1219 99.7806 89.1219 96.7613C89.1219 90.2581 87.1477 86.1935 83.8961 80.6193C83.4316 82.129 81.109 89.0968 81.109 96.6452C81.109 99.6645 82.0381 104.31 85.0574 104.426Z" fill="black"/>
<path d="M115.852 112.903H105.169V31.729H115.852V112.903Z" fill="black"/>
<path d="M131.451 103.032H143.064V112.903H120.767V103.032L131.567 41.6H122.161V31.729H142.367V41.6L131.451 103.032Z" fill="black"/>
<path d="M170.106 41.6H158.494V67.3806H168.016V77.2516H158.494V103.032H170.106V112.903H147.81V31.6129H170.106V41.6Z" fill="black"/>
<path d="M96.3886 173.342H91.9757V181.819C91.9757 188.09 92.0918 202.49 96.3886 202.49V212.361C92.208 212.361 88.9564 210.503 86.6338 207.135C84.3112 210.503 81.0596 212.361 76.7628 212.361C68.0531 212.361 61.0854 204.465 61.666 190.181C61.7822 184.723 64.8015 176.129 69.2144 173.342H81.2918C73.6273 176.71 72.5822 187.394 72.3499 190.181C72.2338 192.852 72.8144 202.49 76.7628 202.49C81.1757 202.49 81.2918 188.09 81.2918 181.819V173.342C70.9563 173.342 61.666 165.213 61.666 150.813C61.666 138.619 66.5434 128.284 76.7628 128.284C87.0983 128.284 91.9757 137.458 91.9757 149.652H81.2918C81.2918 148.723 81.1757 138.271 76.7628 138.271C72.466 138.271 72.3499 149.884 72.3499 150.813C72.3499 152.439 72.6983 155.574 73.8596 158.245C75.137 161.032 77.3434 163.355 81.2918 163.355V156.852H91.9757V163.355H96.3886V173.342Z" fill="black"/>
<path d="M139.64 139.665H128.724V166.142H137.55V176.013H128.724V210.968H118.04V129.794H139.64V139.665Z" fill="black"/>
<path d="M154.127 210.968H143.444V129.794H154.127V210.968Z" fill="black"/>
<path d="M158.345 129.794H180.642V139.665H174.836V210.968H164.036V139.665H158.345V129.794Z" fill="black"/>
</svg>
