<svg width="1920" height="257" viewBox="0 0 1920 257" fill="none" xmlns="http://www.w3.org/2000/svg">
<rect x="-10.7996" y="106.395" width="2042.99" height="150.194" transform="rotate(-2.98519 -10.7996 106.395)" fill="black"/>
<path fill-rule="evenodd" clip-rule="evenodd" d="M1929.32 142.482C1948.78 141.627 1963.87 125.265 1963.02 105.927L1959.56 26.2091L1940.71 27.0282L1944.16 106.746C1944.36 111.055 1942.82 115.266 1939.88 118.454C1936.94 121.642 1932.84 123.546 1928.49 123.746C1915.21 124.331 1906.79 109.808 1913.95 98.6791L1927.04 78.3524C1942.58 54.22 1924.31 22.7037 1895.5 23.9699C1875.87 24.8332 1860.66 41.3408 1861.49 60.8517L1865 141.613L1883.85 140.794L1880.35 60.0326C1880.25 57.8576 1880.58 55.6841 1881.33 53.6362C1882.08 51.5883 1883.23 49.7061 1884.72 48.0972C1886.2 46.4882 1887.99 45.1839 1889.99 44.2588C1891.98 43.3336 1894.14 42.8058 1896.33 42.7054C1909.87 42.1108 1918.45 56.9118 1911.15 68.2538L1898.06 88.5805C1882.66 112.508 1900.77 143.738 1929.32 142.482Z" fill="white"/>
<path fill-rule="evenodd" clip-rule="evenodd" d="M1306.87 174.693C1287.42 175.788 1270.77 161.017 1269.68 141.692L1265.15 62.0272L1283.99 60.9569L1288.52 140.621C1288.76 144.928 1290.71 148.964 1293.96 151.842C1297.2 154.72 1301.47 156.204 1305.82 155.968C1319.09 155.222 1326.02 139.93 1317.78 129.573L1302.73 110.657C1284.85 88.1994 1299.88 55.0143 1328.66 53.3939C1348.28 52.2898 1365.07 67.1933 1366.19 86.6902L1370.78 167.397L1351.94 168.468L1347.35 87.7605C1347.23 85.5865 1346.68 83.4574 1345.73 81.4947C1344.78 79.532 1343.44 77.7743 1341.81 76.3218C1340.17 74.8693 1338.26 73.7505 1336.18 73.0293C1334.11 72.3081 1331.91 71.9987 1329.71 72.1186C1316.19 72.88 1309.13 88.465 1317.53 99.0202L1332.58 117.937C1350.29 140.205 1335.4 173.088 1306.87 174.693Z" fill="white"/>
<path fill-rule="evenodd" clip-rule="evenodd" d="M772.042 201.682C791.491 200.651 806.431 184.153 805.408 164.825L801.23 85.1409L782.384 86.1307L786.562 165.814C786.798 170.121 785.295 174.346 782.384 177.56C779.473 180.775 775.393 182.715 771.04 182.955C757.769 183.66 749.216 169.214 756.278 158.021L769.178 137.576C784.499 113.304 765.946 81.9548 737.154 83.4815C717.531 84.5224 702.465 101.167 703.48 120.67L707.713 201.396L726.559 200.406L722.326 119.68C722.207 117.506 722.522 115.329 723.254 113.275C723.985 111.22 725.117 109.328 726.587 107.705C728.057 106.083 729.835 104.763 731.82 103.82C733.804 102.876 735.957 102.329 738.154 102.209C751.68 101.492 760.396 116.214 753.198 127.622L740.299 148.066C725.116 172.132 743.505 203.197 772.042 201.682Z" fill="white"/>
<path fill-rule="evenodd" clip-rule="evenodd" d="M153.993 233.181C134.547 234.276 117.898 219.504 116.808 200.179L112.277 120.515L131.119 119.444L135.65 199.109C135.885 203.415 137.839 207.452 141.083 210.33C144.327 213.208 148.595 214.692 152.948 214.456C166.217 213.71 173.144 198.417 164.904 188.061L149.853 169.144C131.978 146.687 147.004 113.502 175.79 111.881C195.41 110.777 212.2 125.681 213.317 145.178L217.908 225.885L199.066 226.955L194.475 146.248C194.356 144.074 193.806 141.945 192.855 139.982C191.904 138.02 190.572 136.262 188.934 134.809C187.296 133.357 185.385 132.238 183.309 131.517C181.234 130.796 179.034 130.486 176.837 130.606C163.314 131.368 156.254 146.953 164.652 157.508L179.704 176.424C197.419 198.692 182.525 231.576 153.993 233.181Z" fill="white"/>
<path d="M260 104.781L649.121 84.4884L655.487 206.55L266.365 226.842L260 104.781Z" fill="#BF512B"/>
<path fill-rule="evenodd" clip-rule="evenodd" d="M277.875 153.235C277.107 138.518 288.415 125.966 303.132 125.198L627.615 108.277L628.32 121.794L303.837 138.715C296.585 139.093 291.013 145.278 291.392 152.53C291.786 160.094 298.474 165.761 306 164.91L607.474 130.793C622.616 129.079 636.071 140.481 636.865 155.699C637.626 170.288 626.415 182.732 611.826 183.493L287.113 200.426L286.408 186.909L611.121 169.976C618.245 169.604 623.719 163.528 623.348 156.404C622.96 148.973 616.39 143.405 608.996 144.242L307.522 178.359C292.248 180.088 278.675 168.586 277.875 153.235Z" fill="black"/>
<path d="M1417.12 46.4714L1806.24 26.1793L1812.61 148.241L1423.48 168.533L1417.12 46.4714Z" fill="#BF512B"/>
<path fill-rule="evenodd" clip-rule="evenodd" d="M1434.99 94.9258C1434.23 80.2091 1445.53 67.6566 1460.25 66.8892L1784.73 49.9679L1785.44 63.4847L1460.96 80.406C1453.7 80.7842 1448.13 86.9693 1448.51 94.2208C1448.91 101.785 1455.59 107.452 1463.12 106.601L1764.59 72.4836C1779.74 70.77 1793.19 82.172 1793.98 97.3901C1794.74 111.979 1783.53 124.423 1768.95 125.184L1444.23 142.117L1443.53 128.6L1768.24 111.667C1775.36 111.295 1780.84 105.219 1780.47 98.095C1780.08 90.6639 1773.51 85.0962 1766.12 85.933L1464.64 120.05C1449.37 121.778 1435.79 110.277 1434.99 94.9258Z" fill="black"/>
<path d="M1212.99 57.309L853.483 76.057L859.68 194.896L1219.19 176.148L1212.99 57.309Z" fill="#D2ECFF"/>
<path d="M1075.47 99.1566C1086.92 98.5595 1096.8 108.612 1097.47 121.341C1098.13 134.07 1089.33 144.823 1077.88 145.42C1071.8 145.737 1067.06 143.093 1063.92 138.673L1064.2 144.086L1056.21 144.503L1053.19 86.6002L1061.18 86.1837L1062.3 107.588C1064.96 102.8 1069.39 99.4736 1075.47 99.1566ZM1077.48 137.683C1084.55 137.315 1089.92 130.195 1089.48 121.758C1089.04 113.321 1082.95 106.625 1075.88 106.994C1068.81 107.363 1062.67 114.694 1063.11 123.133C1063.55 131.572 1070.41 138.054 1077.48 137.685L1077.48 137.683Z" fill="black"/>
<path d="M1030.62 147.886C1039.32 147.392 1045.63 142.993 1048.83 136.883L1042.22 133.136C1039.87 137.308 1035.62 140.044 1030.19 140.35C1022.27 140.8 1017.17 136.107 1015.69 128.371L1050.05 126.418L1049.99 122.296C1049.75 110.622 1041.25 100.879 1027.82 101.642C1015.42 102.346 1006.2 111.979 1006.99 125.77C1007.77 139.476 1017.36 148.641 1030.62 147.886ZM1015.45 121.162C1016.45 114.317 1020.83 109.34 1028.23 108.92C1035.47 108.508 1040.92 113.355 1041.46 119.683L1015.45 121.16L1015.45 121.162Z" fill="black"/>
<path d="M1003.72 105.216L1004.13 113.154L972.282 140.922L1004.06 139.265L1004.47 147.199L961.635 149.433L961.287 142.768L961.3 142.768L961.286 142.753L961.2 141.095L992.13 113.78L961.294 115.388L960.88 107.45L1003.72 105.216Z" fill="black"/>
<path d="M953.613 107.831L945.627 108.247L947.812 150.156L955.799 149.739L953.613 107.831Z" fill="black"/>
<path d="M949.265 104.588C952.147 104.438 954.363 101.991 954.213 99.1229C954.063 96.2548 951.606 94.0515 948.723 94.2019C945.841 94.3522 943.626 96.7991 943.776 99.6672C943.925 102.535 946.383 104.739 949.265 104.588Z" fill="black"/>
<path d="M1119.38 96.8601C1111.37 97.278 1104.64 101.004 1101.82 106.38L1108.86 110.246C1110.14 107.72 1114.05 105.105 1119.8 104.806C1126.09 104.478 1131.44 109.205 1131.75 115.251L1131.87 117.5C1129.35 114.104 1125.28 112.061 1119.27 112.374C1108.74 112.924 1100.54 120.261 1100.99 128.772C1101.43 137.284 1110.34 143.729 1120.88 143.18C1126.89 142.866 1130.64 138.72 1132.79 135.083L1133.07 140.497L1141.06 140.08L1139.74 114.836C1139.2 104.359 1130.06 96.3034 1119.38 96.8601ZM1120.61 136.773C1114.25 137.104 1109.09 133.283 1108.84 128.362C1108.58 123.441 1113.38 119.171 1119.68 118.843C1125.97 118.515 1131 122.2 1131.26 127.193C1131.52 132.185 1126.9 136.443 1120.61 136.771L1120.61 136.773Z" fill="black"/>
<path fill-rule="evenodd" clip-rule="evenodd" d="M889.947 126.19C889.488 118.034 895.786 111.047 904.017 110.579L937.953 108.651L938.404 116.553L904.466 118.481C902.632 118.582 900.913 119.403 899.686 120.764C898.459 122.126 897.825 123.916 897.924 125.741C898.237 131.306 904.75 134.206 909.164 130.746L917.226 124.427C926.799 116.923 940.93 123.213 941.61 135.286C942.074 143.514 935.719 150.561 927.415 151.036L893.033 152.989L892.584 145.087L926.965 143.134C927.891 143.083 928.798 142.852 929.635 142.452C930.471 142.053 931.22 141.493 931.839 140.806C932.459 140.119 932.936 139.317 933.244 138.446C933.551 137.575 933.684 136.653 933.633 135.731C933.315 130.06 926.677 127.104 922.178 130.63L914.116 136.957C904.624 144.391 890.619 138.155 889.947 126.19Z" fill="black"/>
<path fill-rule="evenodd" clip-rule="evenodd" d="M1097.31 121.522C1096.64 108.771 1086.87 98.695 1075.55 99.2851C1069.55 99.5983 1065.17 102.947 1062.54 107.722L1061.42 86.2846L1053.53 86.6962L1056.55 144.691L1064.45 144.279L1064.17 138.856C1067.27 143.285 1071.96 145.939 1077.97 145.625C1089.29 145.035 1097.97 134.273 1097.31 121.522ZM1089.41 121.934C1089.85 130.383 1084.55 137.512 1077.57 137.877C1070.58 138.241 1063.8 131.745 1063.36 123.293C1062.92 114.84 1068.98 107.499 1075.96 107.135C1082.95 106.771 1088.97 113.481 1089.41 121.934ZM1148.19 97.8064C1148.19 97.8064 1157.81 122.166 1159.73 126.778C1161.44 130.874 1164.58 131.307 1166.56 131.578C1166.81 131.612 1167.04 131.643 1167.25 131.679L1176.77 96.3157L1185.16 95.8785C1185.16 95.8785 1172.48 143.458 1171.24 147.954C1168.84 156.543 1161.45 158.344 1154.9 158.686L1146.5 159.124L1146.08 151.111L1153.82 150.707C1156.23 150.581 1162.41 149.99 1163.74 145.119C1164.39 142.773 1165.23 139.698 1165.23 139.698C1160.35 139.172 1155.53 136.928 1153.26 132.003C1150.21 125.418 1139.89 98.2506 1139.89 98.2506L1148.19 97.8064ZM1048.47 137.077C1045.31 143.198 1039.09 147.598 1030.48 148.086C1017.37 148.832 1007.89 139.646 1007.1 125.902C1006.32 112.089 1015.42 102.456 1027.68 101.751C1040.95 100.996 1049.36 110.761 1049.6 122.45L1049.66 126.577L1015.72 128.511C1017.19 136.259 1022.24 140.965 1030.06 140.518C1035.43 140.215 1039.63 137.48 1041.95 133.302L1048.47 137.077ZM1015.48 121.308C1016.46 114.454 1020.79 109.474 1028.11 109.057C1035.25 108.649 1040.65 113.509 1041.18 119.847L1015.48 121.308ZM1003.49 105.348L1003.9 113.299L972.444 141.073L1004.23 139.415L1004.65 147.362L961.926 149.59L961.579 142.946L961.492 141.274L992.041 113.937L961.179 115.547L960.764 107.592L1003.49 105.348ZM953.782 99.2775C953.853 100.657 953.378 102.007 952.462 103.033C951.546 104.058 950.263 104.675 948.895 104.747C947.528 104.818 946.188 104.338 945.17 103.413C944.152 102.488 943.539 101.194 943.466 99.8155C943.394 98.4362 943.869 97.085 944.785 96.0592C945.701 95.0334 946.985 94.4171 948.353 94.3457C949.03 94.3104 949.708 94.4099 950.347 94.6387C950.987 94.8674 951.575 95.2208 952.079 95.6788C952.583 96.1368 952.993 96.6903 953.285 97.3078C953.578 97.9252 953.746 98.5946 953.782 99.2775ZM945.303 108.41L953.196 107.998L955.385 149.966L947.492 150.378L945.303 108.41ZM1119.34 96.994C1111.42 97.407 1104.77 101.131 1101.98 106.515L1108.95 110.392C1110.21 107.865 1114.09 105.248 1119.75 104.953C1125.97 104.629 1131.26 109.365 1131.58 115.421L1131.69 117.693C1129.2 114.289 1125.18 112.241 1119.24 112.55C1108.82 113.094 1100.74 120.439 1101.18 128.961C1101.63 137.484 1110.44 143.948 1120.85 143.405C1126.79 143.095 1130.49 138.947 1132.61 135.306L1132.9 140.729L1140.79 140.317L1139.47 115.033C1138.93 104.518 1129.89 96.4478 1119.34 96.9978L1119.34 96.994ZM1120.58 136.968C1114.29 137.295 1109.18 133.467 1108.92 128.538C1108.67 123.61 1113.41 119.333 1119.64 119.008C1125.88 118.683 1130.83 122.376 1131.09 127.382C1131.35 132.388 1126.8 136.643 1120.58 136.968ZM903.794 110.727C899.897 110.941 896.245 112.708 893.641 115.637C891.038 118.567 889.695 122.421 889.91 126.351C890.581 138.333 904.427 144.589 913.802 137.149L921.765 130.821C926.223 127.292 932.772 130.247 933.091 135.937C933.142 136.86 933.011 137.784 932.707 138.656C932.403 139.527 931.933 140.33 931.322 141.018C930.711 141.715 929.969 142.283 929.138 142.688C928.313 143.089 927.416 143.321 926.501 143.371L892.523 145.303L892.97 153.217L926.949 151.285C930.883 151.07 934.57 149.288 937.199 146.331C939.828 143.374 941.184 139.485 940.969 135.518C940.288 123.427 926.316 117.119 916.863 124.629L908.899 130.95C904.538 134.411 898.097 131.513 897.786 125.928C897.688 124.101 898.312 122.309 899.523 120.946C900.735 119.584 902.434 118.763 904.247 118.664L937.801 116.754L937.349 108.84L903.794 110.727Z" fill="black"/>
<path d="M64.5115 118L-295 136.748L-288.803 255.587L70.7088 236.839L64.5115 118Z" fill="#D2ECFF"/>
<path fill-rule="evenodd" clip-rule="evenodd" d="M-51.1749 182.213C-51.8398 169.462 -61.6143 159.386 -72.929 159.976C-78.9355 160.289 -83.3137 163.638 -85.9427 168.413L-87.0606 146.976L-94.9535 147.387L-91.9292 205.382L-84.0325 204.97L-84.3153 199.547C-81.2141 203.976 -76.519 206.63 -70.5124 206.316C-59.1977 205.726 -50.5099 194.964 -51.1749 182.213ZM-59.0717 182.625C-58.6311 191.074 -63.9302 198.203 -70.9165 198.568C-77.9029 198.932 -84.6861 192.437 -85.1269 183.984C-85.5677 175.531 -79.506 168.19 -72.5197 167.826C-65.5333 167.462 -59.5125 174.172 -59.0717 182.625ZM-0.295024 158.497C-0.295024 158.497 9.32292 182.857 11.2499 187.469C12.9605 191.565 16.0932 191.998 18.0763 192.269C18.3256 192.303 18.5553 192.334 18.7622 192.37L28.2908 157.007L36.6737 156.57C36.6737 156.57 23.9953 204.149 22.756 208.645C20.3569 217.234 12.9658 219.035 6.41538 219.377L-1.98687 219.815L-2.40474 211.802L5.33389 211.398C7.74882 211.273 13.9226 210.681 15.2546 205.81C15.9058 203.464 16.7475 200.389 16.7475 200.389C11.8654 199.864 7.04455 197.619 4.77626 192.694C1.7251 186.109 -8.58853 158.942 -8.58853 158.942L-0.295024 158.497ZM-100.009 197.768C-103.171 203.889 -109.394 208.289 -118.002 208.777C-131.115 209.524 -140.595 200.337 -141.378 186.593C-142.16 172.78 -133.062 163.147 -120.805 162.442C-107.53 161.687 -99.1179 171.452 -98.8836 183.141L-98.8193 187.268L-132.759 189.202C-131.295 196.95 -126.245 201.656 -118.42 201.209C-113.055 200.906 -108.857 198.171 -106.534 193.993L-100.009 197.768ZM-132.999 181.999C-132.022 175.145 -127.698 170.165 -120.378 169.748C-113.231 169.34 -107.833 174.2 -107.301 180.538L-132.999 181.999ZM-144.995 166.039L-144.58 173.99L-176.039 201.764L-144.251 200.106L-143.837 208.053L-186.557 210.281L-186.904 203.637L-186.991 201.965L-156.442 174.628L-187.304 176.238L-187.719 168.283L-144.995 166.039ZM-194.701 159.969C-194.63 161.348 -195.105 162.698 -196.021 163.724C-196.937 164.749 -198.22 165.366 -199.588 165.438C-200.955 165.509 -202.295 165.029 -203.313 164.104C-204.331 163.179 -204.944 161.885 -205.017 160.507C-205.089 159.127 -204.614 157.776 -203.698 156.75C-202.781 155.724 -201.498 155.108 -200.13 155.037C-199.453 155.001 -198.775 155.101 -198.136 155.33C-197.496 155.558 -196.908 155.912 -196.404 156.37C-195.899 156.828 -195.49 157.381 -195.197 157.999C-194.905 158.616 -194.737 159.286 -194.701 159.969ZM-203.18 169.101L-195.287 168.689L-193.098 210.657L-200.991 211.069L-203.18 169.101ZM-29.1441 157.685C-37.0641 158.098 -43.7127 161.823 -46.4995 167.206L-39.5356 171.083C-38.271 168.556 -34.3884 165.939 -28.7291 165.644C-22.5143 165.32 -17.2232 170.056 -16.9073 176.112L-16.7889 178.384C-19.2873 174.98 -23.3048 172.932 -29.2457 173.241C-39.6616 173.785 -47.7462 181.13 -47.3018 189.652C-46.8573 198.175 -38.0449 204.639 -27.6367 204.096C-21.6958 203.786 -17.9899 199.638 -15.8704 195.997L-15.5876 201.42L-7.69073 201.008L-9.00927 175.724C-9.55758 165.209 -18.5969 157.139 -29.1439 157.689L-29.1441 157.685ZM-27.9027 197.659C-34.1908 197.986 -39.3032 194.158 -39.5602 189.229C-39.8172 184.301 -35.0734 180.024 -28.8393 179.699C-22.6052 179.374 -17.6509 183.067 -17.3899 188.073C-17.1288 193.079 -21.6841 197.334 -27.9027 197.659ZM-244.689 171.418C-248.586 171.632 -252.238 173.399 -254.842 176.329C-257.445 179.258 -258.787 183.112 -258.573 187.042C-257.902 199.024 -244.056 205.28 -234.681 197.84L-226.717 191.512C-222.26 187.984 -215.711 190.938 -215.391 196.628C-215.341 197.551 -215.472 198.475 -215.776 199.347C-216.079 200.218 -216.55 201.021 -217.161 201.709C-217.772 202.406 -218.514 202.974 -219.345 203.379C-220.17 203.78 -221.067 204.012 -221.982 204.062L-255.96 205.994L-255.513 213.908L-221.534 211.976C-217.6 211.761 -213.913 209.979 -211.284 207.022C-208.655 204.066 -207.299 200.176 -207.514 196.209C-208.195 184.118 -222.167 177.81 -231.62 185.32L-239.584 191.641C-243.945 195.102 -250.386 192.204 -250.696 186.619C-250.795 184.792 -250.171 183 -248.96 181.637C-247.748 180.275 -246.049 179.454 -244.236 179.355L-210.682 177.445L-211.134 169.531L-244.689 171.418Z" fill="black"/>
</svg>
