<svg width="1920" height="1080" viewBox="0 0 1920 1080" fill="none" xmlns="http://www.w3.org/2000/svg">
<rect width="1920" height="5000" fill="#0A0A0A"/>
<g opacity="0.05">
<path fill-rule="evenodd" clip-rule="evenodd" d="M1218.16 21.3595C1215.51 33.1499 1222.86 44.8427 1234.58 47.4753L1282.87 58.3522L1285.45 46.9286L1237.15 36.0517C1234.54 35.4699 1232.26 33.8633 1230.83 31.5852C1229.4 29.3071 1228.93 26.544 1229.51 23.9035C1231.32 15.858 1241.38 13.1737 1246.89 19.2703L1256.93 30.4067C1268.86 43.6317 1290.7 37.8105 1294.62 20.3564C1297.29 8.46009 1289.88 -3.33245 1278.06 -5.99913L1229.13 -17.0181L1226.55 -5.59458L1275.49 5.42443C1276.8 5.71824 1278.05 6.27169 1279.16 7.05318C1280.26 7.83468 1281.2 8.8289 1281.92 9.9791C1282.65 11.1293 1283.14 12.4129 1283.37 13.7567C1283.6 15.1005 1283.56 16.4782 1283.26 17.811C1281.42 26.0103 1271.17 28.746 1265.56 22.5323L1255.51 11.3959C1243.69 -1.71192 1222.04 4.05919 1218.16 21.3595Z" fill="white"/>
<path fill-rule="evenodd" clip-rule="evenodd" d="M1792.57 1082.73C1790.63 1094.66 1798.66 1105.89 1810.52 1107.82L1859.38 1115.8L1861.27 1104.24L1812.4 1096.26C1809.76 1095.84 1807.4 1094.37 1805.83 1092.18C1804.27 1089.99 1803.63 1087.26 1804.06 1084.59C1805.38 1076.45 1815.27 1073.17 1821.12 1078.93L1831.82 1089.45C1844.51 1101.94 1865.97 1094.83 1868.84 1077.17C1870.8 1065.14 1862.69 1053.81 1850.73 1051.85L1801.23 1043.77L1799.35 1055.32L1848.85 1063.41C1850.18 1063.62 1851.46 1064.1 1852.61 1064.81C1853.76 1065.53 1854.76 1066.46 1855.55 1067.57C1856.34 1068.67 1856.9 1069.93 1857.21 1071.25C1857.52 1072.58 1857.57 1073.96 1857.35 1075.31C1856 1083.6 1845.93 1086.94 1839.96 1081.08L1829.27 1070.56C1816.68 1058.18 1795.42 1065.23 1792.57 1082.73Z" fill="white"/>
<path fill-rule="evenodd" clip-rule="evenodd" d="M883.093 1032.64C880.445 1044.43 887.792 1056.12 899.51 1058.76L947.808 1069.63L950.38 1058.21L902.081 1047.33C899.469 1046.75 897.198 1045.15 895.766 1042.87C894.335 1040.59 893.86 1037.83 894.448 1035.19C896.254 1027.14 906.318 1024.46 911.819 1030.55L921.866 1041.69C933.793 1054.91 955.633 1049.09 959.553 1031.64C962.224 1019.74 954.81 1007.95 942.99 1005.28L894.06 994.264L891.488 1005.69L940.419 1016.71C941.737 1017 942.985 1017.55 944.089 1018.34C945.194 1019.12 946.134 1020.11 946.856 1021.26C947.579 1022.41 948.069 1023.7 948.299 1025.04C948.53 1026.38 948.495 1027.76 948.199 1029.09C946.357 1037.29 936.1 1040.03 930.494 1033.81L920.447 1022.68C908.619 1009.57 886.978 1015.34 883.093 1032.64Z" fill="white"/>
<path fill-rule="evenodd" clip-rule="evenodd" d="M1865.75 410.522C1863.81 422.45 1871.84 433.684 1883.7 435.614L1932.56 443.593L1934.44 432.036L1885.58 424.057C1882.94 423.632 1880.58 422.164 1879.01 419.975C1877.45 417.786 1876.81 415.056 1877.24 412.385C1878.56 404.246 1888.45 400.967 1894.3 406.725L1904.99 417.243C1917.69 429.734 1939.14 422.621 1942.02 404.965C1943.97 392.93 1935.87 381.6 1923.91 379.643L1874.41 371.559L1872.53 383.116L1922.03 391.199C1923.36 391.414 1924.64 391.892 1925.79 392.607C1926.94 393.321 1927.93 394.257 1928.72 395.362C1929.51 396.467 1930.08 397.72 1930.39 399.047C1930.7 400.375 1930.75 401.752 1930.53 403.1C1929.18 411.395 1919.1 414.737 1913.14 408.868L1902.45 398.351C1889.86 385.971 1868.6 393.021 1865.75 410.522Z" fill="white"/>
<path fill-rule="evenodd" clip-rule="evenodd" d="M996.201 365.991C993.553 377.781 1000.9 389.474 1012.62 392.107L1060.92 402.983L1063.49 391.56L1015.19 380.683C1012.58 380.101 1010.31 378.495 1008.87 376.216C1007.44 373.938 1006.97 371.175 1007.56 368.535C1009.36 360.489 1019.43 357.805 1024.93 363.902L1034.97 375.038C1046.9 388.263 1068.74 382.442 1072.66 364.988C1075.33 353.091 1067.92 341.299 1056.1 338.632L1007.17 327.613L1004.6 339.037L1053.53 350.056C1054.85 350.35 1056.09 350.903 1057.2 351.684C1058.3 352.466 1059.24 353.46 1059.96 354.61C1060.69 355.761 1061.18 357.044 1061.41 358.388C1061.64 359.732 1061.6 361.109 1061.31 362.442C1059.46 370.642 1049.21 373.377 1043.6 367.164L1033.55 356.027C1021.73 342.919 1000.09 348.69 996.201 365.991Z" fill="white"/>
<path fill-rule="evenodd" clip-rule="evenodd" d="M242.628 542.444C242.818 530.361 252.703 520.718 264.711 520.906L314.213 521.659L314.034 533.367L264.532 532.614C261.856 532.567 259.271 533.596 257.345 535.475C255.42 537.354 254.311 539.929 254.262 542.634C254.131 550.878 263.286 555.848 270.063 551.211L282.441 542.741C297.137 532.682 317.003 543.463 316.72 561.349C316.527 573.54 306.555 583.265 294.439 583.086L244.289 582.323L244.468 570.615L294.618 571.378C295.969 571.401 297.311 571.156 298.568 570.655C299.825 570.154 300.972 569.408 301.944 568.46C302.916 567.511 303.694 566.378 304.233 565.126C304.772 563.874 305.062 562.526 305.086 561.161C305.218 552.758 295.889 547.694 288.982 552.419L276.603 560.889C262.032 570.858 242.347 560.173 242.628 542.444Z" fill="white"/>
<path fill-rule="evenodd" clip-rule="evenodd" d="M1117.42 617.041C1114.78 628.831 1122.12 640.524 1133.84 643.157L1182.14 654.034L1184.71 642.61L1136.41 631.733C1133.8 631.151 1131.53 629.545 1130.1 627.267C1128.67 624.989 1128.19 622.225 1128.78 619.585C1130.58 611.539 1140.65 608.855 1146.15 614.952L1156.2 626.088C1168.12 639.313 1189.96 633.492 1193.88 616.038C1196.55 604.142 1189.14 592.349 1177.32 589.682L1128.39 578.663L1125.82 590.087L1174.75 601.106C1176.07 601.4 1177.32 601.953 1178.42 602.735C1179.52 603.516 1180.46 604.51 1181.19 605.661C1181.91 606.811 1182.4 608.094 1182.63 609.438C1182.86 610.782 1182.83 612.16 1182.53 613.492C1180.69 621.692 1170.43 624.427 1164.82 618.214L1154.78 607.077C1142.95 593.97 1121.31 599.741 1117.42 617.041Z" fill="white"/>
<path fill-rule="evenodd" clip-rule="evenodd" d="M1109.75 96.1766C1119.32 103.559 1133.02 101.842 1140.36 92.335L1170.63 53.1585L1161.36 46L1131.09 85.1765C1129.46 87.2979 1127.04 88.6777 1124.37 89.0124C1121.7 89.3471 1119 88.6092 1116.86 86.9611C1110.33 81.924 1112.15 71.6679 1120 69.2591L1134.34 64.8599C1151.36 59.6393 1155.32 37.3857 1141.16 26.4567C1131.5 19.008 1117.68 20.7436 1110.27 30.3289L1079.6 70.0183L1088.87 77.1768L1119.54 37.4874C1120.36 36.4165 1121.39 35.5201 1122.56 34.8493C1123.74 34.1785 1125.04 33.7464 1126.38 33.5778C1127.73 33.4092 1129.1 33.5072 1130.42 33.8664C1131.73 34.2257 1132.97 34.839 1134.05 35.6713C1140.7 40.8055 1138.85 51.2577 1130.85 53.7127L1116.51 58.1119C1099.63 63.2916 1095.71 85.3446 1109.75 96.1766Z" fill="white"/>
<path fill-rule="evenodd" clip-rule="evenodd" d="M1162.09 418.921C1171.65 426.304 1185.36 424.586 1192.69 415.079L1222.96 375.903L1213.7 368.744L1183.43 407.921C1181.8 410.042 1179.38 411.422 1176.71 411.757C1174.04 412.091 1171.34 411.354 1169.19 409.706C1162.66 404.668 1164.48 394.412 1172.33 392.004L1186.67 387.604C1203.7 382.384 1207.65 360.13 1193.49 349.201C1183.84 341.752 1170.02 343.488 1162.61 353.073L1131.94 392.763L1141.21 399.921L1171.87 360.232C1172.7 359.161 1173.72 358.264 1174.9 357.594C1176.07 356.923 1177.37 356.491 1178.72 356.322C1180.07 356.154 1181.44 356.252 1182.75 356.611C1184.07 356.97 1185.3 357.583 1186.39 358.416C1193.04 363.55 1191.18 374.002 1183.18 376.457L1168.84 380.856C1151.97 386.036 1148.05 408.089 1162.09 418.921Z" fill="white"/>
<path fill-rule="evenodd" clip-rule="evenodd" d="M1848.04 949.194C1858.03 955.994 1871.6 953.463 1878.36 943.536L1906.24 902.625L1896.56 896.031L1868.68 936.942C1867.18 939.157 1864.85 940.678 1862.21 941.172C1859.56 941.665 1856.82 941.089 1854.58 939.572C1847.76 934.933 1848.97 924.587 1856.66 921.714L1870.71 916.468C1887.4 910.242 1890.02 887.793 1875.23 877.727C1865.15 870.867 1851.46 873.423 1844.63 883.433L1816.38 924.879L1826.06 931.473L1854.31 890.026C1855.06 888.908 1856.04 887.952 1857.17 887.213C1858.3 886.473 1859.57 885.964 1860.91 885.716C1862.24 885.467 1863.62 885.483 1864.95 885.763C1866.29 886.044 1867.56 886.582 1868.69 887.349C1875.63 892.077 1874.4 902.621 1866.56 905.549L1852.51 910.795C1835.97 916.971 1833.38 939.218 1848.04 949.194Z" fill="white"/>
<path fill-rule="evenodd" clip-rule="evenodd" d="M946.415 902.65C955.981 910.033 969.684 908.315 977.022 898.808L1007.29 859.632L998.025 852.473L967.755 891.65C966.124 893.771 963.708 895.151 961.038 895.486C958.369 895.82 955.664 895.082 953.519 893.434C946.991 888.397 948.811 878.141 956.662 875.732L971.001 871.333C988.027 866.112 991.981 843.859 977.819 832.93C968.166 825.481 954.345 827.217 946.933 836.802L916.268 876.491L925.534 883.65L956.2 843.961C957.023 842.89 958.052 841.993 959.227 841.322C960.402 840.652 961.701 840.22 963.048 840.051C964.396 839.882 965.767 839.98 967.082 840.34C968.397 840.699 969.631 841.312 970.714 842.145C977.366 847.279 975.511 857.731 967.51 860.186L953.171 864.585C936.293 869.765 932.377 891.818 946.415 902.65Z" fill="white"/>
<path fill-rule="evenodd" clip-rule="evenodd" d="M320.078 9.07467C331.109 4.14107 344.027 9.02394 348.931 19.9865L369.169 65.1689L358.483 69.9548L338.244 24.7724C337.156 22.3276 335.131 20.4197 332.614 19.4683C330.097 18.517 327.295 18.6 324.823 19.6991C317.296 23.0649 316.66 33.4619 323.727 37.6444L336.634 45.2835C351.962 54.3513 350.587 76.9116 334.257 84.2147C323.127 89.1922 310.098 84.2639 305.141 73.2078L284.637 27.4339L295.324 22.648L315.827 68.4219C316.377 69.656 317.167 70.7687 318.152 71.6963C319.137 72.624 320.298 73.3485 321.568 73.8285C322.839 74.3085 324.194 74.5345 325.557 74.4938C326.92 74.453 328.263 74.1462 329.511 73.5909C337.182 70.16 337.829 59.5641 330.627 55.3014L317.72 47.6623C302.527 38.669 303.892 16.3127 320.078 9.07467Z" fill="white"/>
<path fill-rule="evenodd" clip-rule="evenodd" d="M1961.01 760.276C1958.76 748.405 1947.37 740.595 1935.57 742.836L1886.92 752.049L1889.11 763.554L1937.75 754.34C1940.38 753.836 1943.1 754.408 1945.32 755.929C1947.54 757.451 1949.07 759.798 1949.58 762.454C1951.12 770.555 1942.95 777.018 1935.48 773.61L1921.84 767.383C1905.64 759.987 1887.91 774.009 1891.25 791.583C1893.52 803.561 1905.01 811.436 1916.92 809.186L1966.2 799.852L1964.02 788.347L1914.74 797.681C1913.41 797.935 1912.05 797.923 1910.72 797.645C1909.4 797.367 1908.14 796.828 1907.02 796.06C1905.9 795.292 1904.94 794.308 1904.2 793.167C1903.45 792.025 1902.94 790.747 1902.68 789.406C1901.11 781.151 1909.43 774.564 1917.05 778.038L1930.69 784.264C1946.76 791.592 1964.32 777.696 1961.01 760.276Z" fill="white"/>
<path fill-rule="evenodd" clip-rule="evenodd" d="M1070.45 720.8C1068.9 708.815 1058 700.341 1046.09 701.874L996.983 708.172L998.474 719.787L1047.58 713.488C1050.23 713.142 1052.92 713.875 1055.04 715.526C1057.17 717.177 1058.56 719.611 1058.91 722.293C1059.96 730.471 1051.42 736.436 1044.17 732.588L1030.92 725.56C1015.19 717.212 996.656 730.151 998.942 747.894C1000.5 759.986 1011.5 768.532 1023.52 766.995L1073.27 760.614L1071.78 749L1022.03 755.381C1020.69 755.556 1019.33 755.462 1018.02 755.106C1016.72 754.749 1015.49 754.136 1014.42 753.303C1013.35 752.469 1012.45 751.43 1011.77 750.246C1011.1 749.062 1010.66 747.756 1010.48 746.402C1009.41 738.067 1018.11 731.989 1025.5 735.91L1038.75 742.939C1054.35 751.211 1072.71 738.386 1070.45 720.8Z" fill="white"/>
<path fill-rule="evenodd" clip-rule="evenodd" d="M398.008 214.939C393.697 226.228 381.11 231.909 369.891 227.625L323.631 209.987L327.804 199.047L374.063 216.684C376.561 217.644 379.343 217.561 381.795 216.454C384.247 215.347 386.17 213.307 387.141 210.782C390.083 203.079 383.181 195.278 375.227 197.317L360.698 201.043C343.448 205.469 328.467 188.544 334.85 171.833C339.201 160.443 351.898 154.715 363.222 159.028L410.087 176.897L405.914 187.838L359.049 169.969C357.788 169.484 356.443 169.256 355.091 169.297C353.738 169.337 352.405 169.646 351.167 170.205C349.929 170.764 348.811 171.563 347.876 172.555C346.941 173.547 346.208 174.714 345.719 175.989C342.72 183.84 349.755 191.79 357.862 189.711L372.391 185.986C389.493 181.602 404.336 198.376 398.008 214.939Z" fill="white"/>
<path fill-rule="evenodd" clip-rule="evenodd" d="M1148 903.594C1146.46 891.609 1135.56 883.134 1123.64 884.668L1074.54 890.966L1076.03 902.58L1125.13 896.282C1127.79 895.935 1130.47 896.668 1132.6 898.319C1134.72 899.97 1136.11 902.404 1136.46 905.086C1137.52 913.264 1128.98 919.229 1121.72 915.382L1108.47 908.353C1092.74 900.005 1074.21 912.945 1076.5 930.687C1078.06 942.779 1089.06 951.325 1101.07 949.788L1150.82 943.408L1149.33 931.793L1099.58 938.174C1098.24 938.349 1096.88 938.256 1095.58 937.899C1094.27 937.542 1093.05 936.93 1091.98 936.096C1090.9 935.262 1090.01 934.224 1089.33 933.04C1088.65 931.856 1088.21 930.549 1088.04 929.195C1086.96 920.861 1095.67 914.782 1103.06 918.703L1116.31 925.732C1131.91 934.004 1150.27 921.179 1148 903.594Z" fill="white"/>
<path fill-rule="evenodd" clip-rule="evenodd" d="M1194.02 184.412C1184.42 191.742 1182.53 205.422 1189.81 214.97L1219.82 254.348L1229.13 247.25L1199.12 207.872C1197.5 205.748 1196.79 203.057 1197.16 200.391C1197.53 197.726 1198.94 195.305 1201.09 193.659C1207.64 188.657 1217.08 193.07 1217.37 201.276L1217.91 216.265C1218.54 234.063 1239.02 243.642 1253.24 232.791C1262.93 225.395 1264.83 211.596 1257.49 201.955L1227.09 162.062L1217.78 169.16L1248.18 209.053C1249 210.126 1249.6 211.352 1249.94 212.66C1250.29 213.969 1250.37 215.335 1250.18 216.68C1250 218.026 1249.55 219.324 1248.86 220.502C1248.17 221.679 1247.26 222.713 1246.18 223.543C1239.5 228.64 1229.88 224.143 1229.58 215.779L1229.04 200.79C1228.41 183.146 1208.12 173.656 1194.02 184.412Z" fill="white"/>
<path fill-rule="evenodd" clip-rule="evenodd" d="M1879.02 627.189C1869.87 635.079 1868.8 648.847 1876.64 657.944L1908.94 695.464L1917.81 687.824L1885.51 650.304C1883.76 648.28 1882.89 645.636 1883.1 642.954C1883.31 640.271 1884.58 637.77 1886.62 635.999C1892.87 630.615 1902.55 634.458 1903.33 642.632L1904.76 657.563C1906.46 675.291 1927.46 683.633 1941.01 671.953C1950.25 663.993 1951.32 650.105 1943.42 640.919L1910.7 602.909L1901.83 610.549L1934.55 648.559C1935.43 649.581 1936.11 650.769 1936.53 652.055C1936.95 653.341 1937.11 654.699 1937 656.054C1936.9 657.408 1936.53 658.731 1935.91 659.947C1935.3 661.163 1934.45 662.249 1933.41 663.142C1927.05 668.629 1917.18 664.712 1916.38 656.382L1914.95 641.451C1913.27 623.877 1892.45 615.613 1879.02 627.189Z" fill="white"/>
<path fill-rule="evenodd" clip-rule="evenodd" d="M969.999 576.215C960.391 583.544 958.504 597.225 965.788 606.773L995.795 646.151L1005.11 639.053L975.101 599.675C973.474 597.55 972.766 594.859 973.134 592.194C973.501 589.529 974.914 587.107 977.061 585.462C983.616 580.46 993.052 584.873 993.347 593.079L993.885 608.068C994.521 625.866 1014.99 635.445 1029.21 624.593C1038.91 617.198 1040.81 603.398 1033.47 593.758L1003.07 553.865L993.755 560.963L1024.16 600.856C1024.98 601.929 1025.58 603.154 1025.92 604.463C1026.26 605.772 1026.35 607.138 1026.16 608.483C1025.97 609.829 1025.52 611.127 1024.84 612.304C1024.15 613.482 1023.24 614.515 1022.15 615.345C1015.47 620.443 1005.86 615.945 1005.56 607.582L1005.02 592.593C1004.38 574.949 984.095 565.459 969.999 576.215Z" fill="white"/>
<path fill-rule="evenodd" clip-rule="evenodd" d="M1205.9 505.603C1196.29 512.933 1194.4 526.613 1201.69 536.161L1231.69 575.539L1241.01 568.441L1211 529.063C1209.37 526.939 1208.66 524.248 1209.03 521.582C1209.4 518.917 1210.81 516.496 1212.96 514.85C1219.51 509.848 1228.95 514.261 1229.25 522.467L1229.78 537.456C1230.42 555.254 1250.89 564.833 1265.11 553.982C1274.81 546.586 1276.71 532.787 1269.37 523.146L1238.97 483.253L1229.65 490.351L1260.05 530.244C1260.88 531.317 1261.47 532.543 1261.82 533.851C1262.16 535.16 1262.24 536.526 1262.06 537.871C1261.87 539.217 1261.42 540.515 1260.73 541.693C1260.05 542.87 1259.14 543.904 1258.05 544.734C1251.37 549.831 1241.75 545.334 1241.45 536.97L1240.92 521.981C1240.28 504.337 1219.99 494.847 1205.9 505.603Z" fill="white"/>
<path fill-rule="evenodd" clip-rule="evenodd" d="M266.455 331.938C258.834 322.559 260.207 308.818 269.527 301.244L307.932 270.001L315.321 279.085L276.916 310.328C274.836 312.012 273.517 314.462 273.25 317.139C272.982 319.816 273.788 322.502 275.489 324.604C280.688 331.004 290.895 328.927 293.107 321.019L297.145 306.574C301.936 289.422 324.084 284.911 335.365 298.794C343.053 308.257 341.665 322.117 332.269 329.767L293.361 361.419L285.972 352.335L324.88 320.683C325.93 319.833 326.8 318.782 327.441 317.591C328.082 316.399 328.482 315.09 328.616 313.739C328.751 312.387 328.619 311.02 328.227 309.714C327.835 308.408 327.19 307.19 326.331 306.129C321.032 299.607 310.629 301.724 308.376 309.784L304.338 324.229C299.583 341.231 277.635 345.699 266.455 331.938Z" fill="white"/>
<path fill-rule="evenodd" clip-rule="evenodd" d="M150.093 886.563C142.473 877.185 143.846 863.443 153.166 855.869L191.571 824.626L198.959 833.71L160.555 864.953C158.475 866.637 157.156 869.087 156.888 871.764C156.621 874.442 157.426 877.127 159.128 879.23C164.327 885.63 174.534 883.552 176.745 875.644L180.783 861.199C185.575 844.047 207.722 839.536 219.003 853.419C226.692 862.882 225.304 876.742 215.907 884.393L177 916.044L169.611 906.96L208.519 875.309C209.568 874.459 210.439 873.408 211.08 872.216C211.721 871.025 212.12 869.716 212.255 868.364C212.39 867.013 212.257 865.645 211.865 864.339C211.473 863.033 210.829 861.815 209.97 860.754C204.67 854.232 194.268 856.349 192.015 864.409L187.976 878.854C183.222 895.857 161.274 900.324 150.093 886.563Z" fill="white"/>
<path fill-rule="evenodd" clip-rule="evenodd" d="M250.607 716.558C242.986 707.18 244.36 693.439 253.679 685.865L292.084 654.622L299.473 663.706L261.068 694.949C258.988 696.632 257.67 699.082 257.402 701.76C257.134 704.437 257.94 707.122 259.641 709.225C264.841 715.625 275.048 713.548 277.259 705.64L281.297 691.195C286.089 674.042 308.236 669.531 319.517 683.415C327.206 692.878 325.817 706.738 316.421 714.388L277.513 746.04L270.125 736.956L309.032 705.304C310.082 704.454 310.952 703.403 311.594 702.212C312.235 701.02 312.634 699.711 312.769 698.36C312.904 697.008 312.771 695.64 312.379 694.335C311.987 693.029 311.343 691.81 310.484 690.749C305.184 684.227 294.782 686.344 292.528 694.404L288.49 708.849C283.736 725.852 261.788 730.32 250.607 716.558Z" fill="white"/>
<path fill-rule="evenodd" clip-rule="evenodd" d="M1054.94 1043.41C1045.33 1050.74 1043.44 1064.42 1050.72 1073.97L1080.73 1113.35L1090.05 1106.25L1060.04 1066.87C1058.41 1064.74 1057.7 1062.05 1058.07 1059.39C1058.44 1056.72 1059.85 1054.3 1062 1052.66C1068.55 1047.65 1077.99 1052.07 1078.28 1060.27L1078.82 1075.26C1079.46 1093.06 1099.93 1102.64 1114.15 1091.79C1123.85 1084.39 1125.75 1070.59 1118.41 1060.95L1088.01 1021.06L1078.69 1028.16L1109.09 1068.05C1109.91 1069.12 1110.51 1070.35 1110.86 1071.66C1111.2 1072.97 1111.28 1074.33 1111.1 1075.68C1110.91 1077.02 1110.46 1078.32 1109.77 1079.5C1109.09 1080.68 1108.17 1081.71 1107.09 1082.54C1100.41 1087.64 1090.79 1083.14 1090.49 1074.78L1089.95 1059.79C1089.32 1042.14 1069.03 1032.65 1054.94 1043.41Z" fill="white"/>
<path fill-rule="evenodd" clip-rule="evenodd" d="M1965.1 285.056C1976.97 282.8 1984.78 271.411 1982.54 259.613L1973.33 210.97L1961.82 213.15L1971.04 261.793C1971.54 264.421 1970.97 267.144 1969.45 269.363C1967.93 271.582 1965.58 273.115 1962.92 273.626C1954.82 275.166 1948.36 266.997 1951.77 259.526L1957.99 245.881C1965.39 229.68 1951.37 211.953 1933.79 215.292C1921.82 217.569 1913.94 229.059 1916.19 240.965L1925.53 290.244L1937.03 288.064L1927.7 238.785C1927.44 237.458 1927.45 236.093 1927.73 234.769C1928.01 233.445 1928.55 232.187 1929.32 231.067C1930.09 229.947 1931.07 228.987 1932.21 228.242C1933.35 227.496 1934.63 226.98 1935.97 226.723C1944.23 225.154 1950.81 233.479 1947.34 241.093L1941.11 254.739C1933.78 270.801 1947.68 288.367 1965.1 285.056Z" fill="white"/>
<path fill-rule="evenodd" clip-rule="evenodd" d="M1102.85 246.668C1114.84 245.124 1123.31 234.221 1121.78 222.31L1115.48 173.204L1103.86 174.694L1110.16 223.8C1110.51 226.454 1109.78 229.138 1108.12 231.262C1106.47 233.387 1104.04 234.777 1101.36 235.129C1093.18 236.183 1087.21 227.644 1091.06 220.389L1098.09 207.139C1106.44 191.408 1093.5 172.877 1075.76 175.163C1063.66 176.721 1055.12 187.722 1056.66 199.74L1063.04 249.489L1074.65 247.998L1068.27 198.25C1068.09 196.91 1068.19 195.549 1068.54 194.244C1068.9 192.939 1069.51 191.715 1070.35 190.643C1071.18 189.57 1072.22 188.671 1073.4 187.995C1074.59 187.319 1075.89 186.88 1077.25 186.703C1085.58 185.629 1091.66 194.332 1087.74 201.725L1080.71 214.975C1072.44 230.572 1085.26 248.935 1102.85 246.668Z" fill="white"/>
<path fill-rule="evenodd" clip-rule="evenodd" d="M1151.23 811.787C1163.21 810.243 1171.69 799.34 1170.15 787.428L1163.86 738.323L1152.24 739.813L1158.54 788.919C1158.89 791.573 1158.15 794.257 1156.5 796.381C1154.85 798.505 1152.42 799.896 1149.74 800.247C1141.56 801.302 1135.59 792.762 1139.44 785.508L1146.47 772.258C1154.82 756.527 1141.88 737.996 1124.14 740.282C1112.04 741.84 1103.5 752.84 1105.03 764.859L1111.41 814.608L1123.03 813.117L1116.65 763.369C1116.47 762.029 1116.57 760.668 1116.92 759.363C1117.28 758.058 1117.89 756.834 1118.73 755.762C1119.56 754.689 1120.6 753.79 1121.78 753.114C1122.97 752.438 1124.27 751.999 1125.63 751.822C1133.96 750.748 1140.04 759.451 1136.12 766.844L1129.09 780.094C1120.82 795.691 1133.64 814.054 1151.23 811.787Z" fill="white"/>
<path fill-rule="evenodd" clip-rule="evenodd" d="M1108.94 521.587C1120.92 520.043 1129.4 509.14 1127.86 497.229L1121.56 448.123L1109.95 449.613L1116.25 498.719C1116.59 501.373 1115.86 504.057 1114.21 506.181C1112.56 508.306 1110.13 509.696 1107.44 510.048C1099.27 511.102 1093.3 502.563 1097.15 495.308L1104.18 482.058C1112.53 466.327 1099.59 447.796 1081.84 450.082C1069.75 451.64 1061.2 462.641 1062.74 474.659L1069.12 524.408L1080.74 522.917L1074.36 473.169C1074.18 471.829 1074.27 470.468 1074.63 469.163C1074.99 467.858 1075.6 466.634 1076.43 465.562C1077.27 464.489 1078.31 463.59 1079.49 462.914C1080.67 462.238 1081.98 461.799 1083.33 461.622C1091.67 460.548 1097.75 469.251 1093.83 476.644L1086.8 489.894C1078.53 505.491 1091.35 523.854 1108.94 521.587Z" fill="white"/>
<path fill-rule="evenodd" clip-rule="evenodd" d="M1930.44 1055.19C1942.32 1052.94 1950.13 1041.55 1947.89 1029.75L1938.67 981.106L1927.17 983.286L1936.38 1031.93C1936.88 1034.56 1936.31 1037.28 1934.79 1039.5C1933.27 1041.72 1930.92 1043.25 1928.27 1043.76C1920.17 1045.3 1913.7 1037.13 1917.11 1029.66L1923.34 1016.02C1930.73 999.817 1916.71 982.09 1899.14 985.429C1887.16 987.705 1879.28 999.195 1881.54 1011.1L1890.87 1060.38L1902.37 1058.2L1893.04 1008.92C1892.79 1007.59 1892.8 1006.23 1893.08 1004.91C1893.35 1003.58 1893.89 1002.32 1894.66 1001.2C1895.43 1000.08 1896.41 999.124 1897.55 998.378C1898.7 997.633 1899.97 997.117 1901.31 996.86C1909.57 995.291 1916.16 1003.62 1912.68 1011.23L1906.46 1024.88C1899.13 1040.94 1913.03 1058.5 1930.44 1055.19Z" fill="white"/>
<path fill-rule="evenodd" clip-rule="evenodd" d="M1022.36 1013.37C1034.34 1011.83 1042.82 1000.92 1041.29 989.012L1034.99 939.906L1023.37 941.397L1029.67 990.503C1030.02 993.156 1029.29 995.84 1027.63 997.965C1025.98 1000.09 1023.55 1001.48 1020.87 1001.83C1012.69 1002.89 1006.72 994.346 1010.57 987.092L1017.6 973.842C1025.95 958.111 1013.01 939.579 995.266 941.865C983.174 943.424 974.628 954.424 976.165 966.443L982.545 1016.19L994.16 1014.7L987.779 964.952C987.604 963.613 987.697 962.252 988.054 960.946C988.411 959.641 989.023 958.417 989.857 957.345C990.691 956.273 991.729 955.373 992.913 954.697C994.097 954.021 995.404 953.582 996.758 953.405C1005.09 952.331 1011.17 961.034 1007.25 968.428L1000.22 981.678C991.949 997.275 1004.77 1015.64 1022.36 1013.37Z" fill="white"/>
<path fill-rule="evenodd" clip-rule="evenodd" d="M1646.03 1093.36C1647.26 1081.34 1657.93 1072.58 1669.88 1073.79L1719.13 1078.78L1717.95 1090.43L1668.7 1085.44C1666.03 1085.17 1663.37 1085.97 1661.29 1087.68C1659.21 1089.38 1657.89 1091.85 1657.61 1094.55C1656.77 1102.75 1665.46 1108.48 1672.61 1104.44L1685.67 1097.07C1701.18 1088.3 1720.05 1100.74 1718.23 1118.54C1717 1130.67 1706.23 1139.51 1694.17 1138.29L1644.27 1133.23L1645.45 1121.59L1695.35 1126.64C1696.7 1126.78 1698.05 1126.65 1699.35 1126.26C1700.64 1125.87 1701.85 1125.22 1702.9 1124.36C1703.95 1123.5 1704.82 1122.44 1705.47 1121.23C1706.11 1120.03 1706.52 1118.72 1706.66 1117.36C1707.51 1109 1698.65 1103.15 1691.36 1107.27L1678.3 1114.65C1662.93 1123.33 1644.23 1111 1646.03 1093.36Z" fill="white"/>
<path fill-rule="evenodd" clip-rule="evenodd" d="M736.177 1034.52C738.116 1022.59 749.293 1014.48 761.147 1016.41L810.018 1024.32L808.145 1035.88L759.274 1027.97C756.633 1027.53 753.926 1028.18 751.749 1029.76C749.571 1031.34 748.101 1033.72 747.661 1036.39C746.337 1044.53 754.675 1050.78 762.052 1047.17L775.527 1040.58C791.525 1032.76 809.619 1046.3 806.749 1063.96C804.792 1075.99 793.516 1084.17 781.554 1082.24L732.043 1074.22L733.916 1062.66L783.427 1070.68C784.76 1070.9 786.124 1070.85 787.44 1070.54C788.756 1070.22 790 1069.65 791.099 1068.85C792.198 1068.06 793.132 1067.05 793.846 1065.89C794.561 1064.73 795.043 1063.44 795.264 1062.09C796.613 1053.79 788.115 1047.43 780.597 1051.11L767.122 1057.69C751.26 1065.45 733.331 1052.02 736.177 1034.52Z" fill="white"/>
<path fill-rule="evenodd" clip-rule="evenodd" d="M1238.55 1062.72C1241.49 1051 1234.44 1039.13 1222.8 1036.2L1174.79 1024.1L1171.93 1035.45L1219.94 1047.55C1222.53 1048.2 1224.76 1049.86 1226.14 1052.18C1227.51 1054.49 1227.91 1057.26 1227.26 1059.89C1225.25 1067.89 1215.12 1070.31 1209.78 1064.08L1200.02 1052.69C1188.43 1039.17 1166.45 1044.43 1162.09 1061.78C1159.11 1073.61 1166.23 1085.58 1177.97 1088.55L1226.61 1100.81L1229.47 1089.45L1180.83 1077.19C1179.52 1076.87 1178.29 1076.28 1177.21 1075.47C1176.12 1074.66 1175.21 1073.65 1174.51 1072.48C1173.82 1071.31 1173.36 1070.01 1173.17 1068.67C1172.97 1067.32 1173.04 1065.94 1173.37 1064.61C1175.42 1056.46 1185.74 1053.99 1191.19 1060.34L1200.95 1071.73C1212.44 1085.14 1234.22 1079.92 1238.55 1062.72Z" fill="white"/>
<path fill-rule="evenodd" clip-rule="evenodd" d="M331.242 979.652C334.882 968.129 328.554 955.854 317.103 952.236L269.902 937.297L266.37 948.461L313.57 963.4C316.123 964.201 318.25 965.995 319.483 968.387C320.716 970.778 320.954 973.572 320.145 976.153C317.662 984.016 307.406 985.836 302.443 979.294L293.378 967.344C282.617 953.154 260.362 957.1 254.974 974.158C251.301 985.784 257.687 998.164 269.238 1001.82L317.056 1016.96L320.588 1005.8L272.77 990.661C271.481 990.256 270.286 989.599 269.251 988.726C268.217 987.854 267.365 986.783 266.743 985.576C266.121 984.368 265.741 983.048 265.626 981.689C265.51 980.331 265.662 978.961 266.071 977.658C268.602 969.645 279.054 967.79 284.112 974.458L293.177 986.407C303.849 1000.47 325.902 996.56 331.242 979.652Z" fill="white"/>
<path fill-rule="evenodd" clip-rule="evenodd" d="M1648.71 28.0179C1649.93 15.996 1660.6 7.23423 1672.55 8.45051L1721.81 13.4399L1720.63 25.0896L1671.37 20.1003C1668.71 19.8243 1666.05 20.6283 1663.97 22.3353C1661.89 24.0424 1660.56 26.5128 1660.28 29.2032C1659.44 37.4064 1668.14 43.1418 1675.29 39.1026L1688.35 31.724C1703.85 22.9603 1722.72 35.4024 1720.91 53.1991C1719.67 65.3288 1708.9 74.1641 1696.85 72.9477L1646.95 67.8929L1648.13 56.2432L1698.03 61.298C1699.37 61.4372 1700.73 61.3075 1702.02 60.9163C1703.32 60.5251 1704.53 59.8801 1705.58 59.0182C1706.63 58.1562 1707.5 57.0941 1708.14 55.8925C1708.79 54.691 1709.19 53.3734 1709.33 52.0152C1710.18 43.655 1701.32 37.8099 1694.03 41.9266L1680.98 49.3052C1665.6 57.9894 1646.91 45.6575 1648.71 28.0179Z" fill="white"/>
<path fill-rule="evenodd" clip-rule="evenodd" d="M539.413 845.703C541.352 833.775 552.53 825.665 564.384 827.592L613.255 835.507L611.382 847.066L562.51 839.15C559.87 838.716 557.163 839.36 554.985 840.94C552.807 842.52 551.337 844.907 550.897 847.576C549.574 855.715 557.912 861.958 565.289 858.352L578.764 851.765C594.762 843.941 612.856 857.485 609.985 875.142C608.028 887.177 596.752 895.355 584.791 893.422L535.28 885.402L537.153 873.844L586.664 881.863C587.997 882.082 589.36 882.034 590.677 881.72C591.993 881.407 593.236 880.835 594.335 880.037C595.435 879.239 596.368 878.231 597.083 877.07C597.798 875.909 598.279 874.618 598.501 873.271C599.849 864.976 591.352 858.613 583.833 862.288L570.358 868.876C554.496 876.628 536.567 863.204 539.413 845.703Z" fill="white"/>
<path fill-rule="evenodd" clip-rule="evenodd" d="M1599.19 60.2746C1602.13 48.5553 1595.09 36.6797 1583.44 33.7503L1535.43 21.6503L1532.57 33.0049L1580.58 45.1049C1583.17 45.7529 1585.4 47.4166 1586.78 49.7304C1588.15 52.0441 1588.56 54.8184 1587.9 57.4431C1585.89 65.4401 1575.76 67.868 1570.42 61.6336L1560.66 50.2456C1549.07 36.722 1527.09 41.9867 1522.73 59.3356C1519.75 71.1602 1526.87 83.1372 1538.61 86.1032L1587.25 98.3614L1590.11 87.0068L1541.48 74.7487C1540.16 74.4215 1538.93 73.8365 1537.85 73.0272C1536.76 72.2179 1535.85 71.2002 1535.16 70.032C1534.46 68.8638 1534 67.5681 1533.81 66.2189C1533.61 64.8697 1533.68 63.4934 1534.01 62.1685C1536.06 54.0187 1546.38 51.5444 1551.83 57.8983L1561.59 69.2863C1573.08 82.6903 1594.86 77.4707 1599.19 60.2746Z" fill="white"/>
<path fill-rule="evenodd" clip-rule="evenodd" d="M794.181 62.4034C797.821 50.8806 791.493 38.606 780.041 34.9878L732.841 20.0484L729.308 31.2123L776.509 46.1517C779.062 46.9532 781.189 48.7469 782.422 51.1384C783.655 53.5299 783.893 56.3233 783.083 58.9043C780.6 66.7674 770.344 68.5873 765.381 62.0455L756.316 50.0961C745.555 35.9059 723.3 39.8513 717.912 56.9094C714.24 68.5359 720.626 80.9155 732.176 84.5764L779.994 99.7111L783.527 88.5472L735.709 73.4125C734.42 73.0077 733.224 72.3504 732.19 71.4779C731.156 70.6054 730.303 69.5349 729.681 68.3275C729.059 67.1201 728.679 65.7995 728.564 64.441C728.449 63.0825 728.6 61.7127 729.009 60.4099C731.54 52.3967 741.993 50.542 747.051 57.2093L756.116 69.1587C766.787 83.2237 788.841 79.3114 794.181 62.4034Z" fill="white"/>
<path fill-rule="evenodd" clip-rule="evenodd" d="M5.15458 817.018C5.99082 829.073 -3.03906 839.522 -15.0197 840.354L-64.4071 843.808L-65.2231 832.127L-15.8357 828.673C-13.1657 828.492 -10.6775 827.247 -8.91811 825.212C-7.15875 823.176 -6.27237 820.516 -6.45389 817.817C-7.02372 809.591 -16.5671 805.417 -22.9259 810.612L-34.5402 820.103C-48.3287 831.374 -69.0381 822.32 -70.2756 804.474C-71.1189 792.31 -62.0082 781.773 -49.9213 780.923L0.112554 777.424L0.92859 789.105L-49.1052 792.604C-50.4531 792.695 -51.7695 793.054 -52.9795 793.66C-54.1895 794.265 -55.2692 795.106 -56.1572 796.134C-57.0451 797.162 -57.7238 798.357 -58.1544 799.65C-58.5851 800.944 -58.7594 802.311 -58.6672 803.673C-58.0857 812.057 -48.3598 816.311 -41.8791 811.015L-30.2647 801.525C-16.5925 790.355 3.92871 799.329 5.15458 817.018Z" fill="white"/>
<path fill-rule="evenodd" clip-rule="evenodd" d="M1544.72 696.153C1545.95 684.131 1556.62 675.369 1568.57 676.586L1617.83 681.575L1616.65 693.225L1567.39 688.235C1564.73 687.959 1562.06 688.763 1559.98 690.47C1557.9 692.177 1556.58 694.648 1556.3 697.338C1555.46 705.541 1564.16 711.277 1571.31 707.238L1584.37 699.859C1599.87 691.095 1618.74 703.537 1616.93 721.334C1615.69 733.464 1604.92 742.299 1592.86 741.083L1542.96 736.028L1544.14 724.378L1594.05 729.433C1595.39 729.572 1596.75 729.443 1598.04 729.051C1599.34 728.66 1600.55 728.015 1601.59 727.153C1602.64 726.291 1603.52 725.229 1604.16 724.028C1604.8 722.826 1605.21 721.508 1605.35 720.15C1606.2 711.79 1597.34 705.945 1590.05 710.062L1577 717.44C1561.62 726.124 1542.93 713.793 1544.72 696.153Z" fill="white"/>
<path fill-rule="evenodd" clip-rule="evenodd" d="M658.722 631.982C660.661 620.054 671.838 611.944 683.692 613.871L732.563 621.786L730.69 633.345L681.819 625.429C679.178 624.995 676.472 625.639 674.294 627.219C672.116 628.799 670.646 631.186 670.206 633.855C668.882 641.994 677.22 648.237 684.597 644.631L698.072 638.044C714.07 630.22 732.165 643.764 729.294 661.421C727.337 673.456 716.061 681.634 704.099 679.701L654.588 671.681L656.462 660.123L705.972 668.142C707.305 668.361 708.669 668.313 709.985 667.999C711.302 667.686 712.545 667.114 713.644 666.316C714.743 665.518 715.677 664.51 716.392 663.349C717.106 662.188 717.588 660.897 717.809 659.55C719.158 651.255 710.661 644.892 703.142 648.567L689.667 655.155C673.805 662.907 655.876 649.483 658.722 631.982Z" fill="white"/>
<path fill-rule="evenodd" clip-rule="evenodd" d="M801.866 917.055C803.805 905.128 814.982 897.018 826.836 898.944L875.707 906.86L873.834 918.418L824.963 910.503C822.322 910.068 819.616 910.712 817.438 912.292C815.26 913.872 813.79 916.259 813.35 918.928C812.026 927.067 820.364 933.311 827.741 929.705L841.216 923.117C857.214 915.293 875.309 928.838 872.438 946.495C870.481 958.529 859.205 966.707 847.243 964.774L797.732 956.755L799.606 945.196L849.116 953.216C850.449 953.435 851.813 953.386 853.129 953.073C854.446 952.759 855.689 952.188 856.788 951.39C857.887 950.592 858.821 949.584 859.535 948.422C860.25 947.261 860.732 945.97 860.953 944.623C862.302 936.328 853.805 929.965 846.286 933.641L832.811 940.228C816.949 947.981 799.02 934.556 801.866 917.055Z" fill="white"/>
<path fill-rule="evenodd" clip-rule="evenodd" d="M-23.0649 204.73C-23.977 216.78 -15.0131 227.285 -3.03804 228.192L46.3266 231.957L47.2162 220.282L-2.14844 216.516C-4.81721 216.319 -7.29758 215.059 -9.04408 213.012C-10.7906 210.965 -11.6602 208.3 -11.4617 205.602C-10.84 197.38 -1.27057 193.266 5.05535 198.501L16.6097 208.065C30.3269 219.422 51.0929 210.499 52.4428 192.661C53.3627 180.503 44.3186 169.909 32.2372 168.983L-17.7736 165.168L-18.6631 176.844L31.3477 180.658C32.6949 180.758 34.0091 181.125 35.2152 181.738C36.4213 182.351 37.4958 183.199 38.3772 184.232C39.2586 185.266 39.9298 186.465 40.3523 187.761C40.7748 189.057 40.9404 190.425 40.8397 191.787C40.2054 200.167 30.4529 204.36 24.0057 199.024L12.4513 189.46C-1.15025 178.204 -21.7276 187.049 -23.0649 204.73Z" fill="white"/>
<path fill-rule="evenodd" clip-rule="evenodd" d="M-26.4551 939.851C-27.3672 951.901 -18.4033 962.406 -6.42821 963.313L42.9365 967.079L43.8261 955.403L-5.5386 951.638C-8.20738 951.44 -10.6878 950.18 -12.4343 948.133C-14.1807 946.086 -15.0504 943.421 -14.8518 940.724C-14.2302 932.501 -4.66073 928.387 1.66518 933.623L13.2195 943.186C26.9368 954.544 47.7027 945.62 49.0527 927.782C49.9726 915.624 40.9284 905.03 28.8471 904.104L-21.1637 900.29L-22.0533 911.965L27.9575 915.78C29.3047 915.879 30.6189 916.246 31.825 916.86C33.0312 917.473 34.1056 918.32 34.987 919.354C35.8684 920.387 36.5396 921.586 36.9621 922.882C37.3846 924.179 37.5503 925.547 37.4496 926.909C36.8153 935.288 27.0628 939.481 20.6155 934.145L9.06113 924.581C-4.54042 913.325 -25.1178 922.171 -26.4551 939.851Z" fill="white"/>
<path fill-rule="evenodd" clip-rule="evenodd" d="M1469.18 723.838C1472.13 712.118 1465.08 700.243 1453.44 697.313L1405.43 685.213L1402.57 696.568L1450.58 708.668C1453.17 709.316 1455.4 710.98 1456.78 713.293C1458.15 715.607 1458.55 718.382 1457.9 721.006C1455.89 729.003 1445.76 731.431 1440.42 725.197L1430.65 713.809C1419.07 700.285 1397.09 705.55 1392.72 722.899C1389.75 734.723 1396.86 746.7 1408.61 749.666L1457.25 761.925L1460.11 750.57L1411.47 738.312C1410.16 737.985 1408.93 737.4 1407.85 736.59C1406.76 735.781 1405.85 734.763 1405.15 733.595C1404.46 732.427 1404 731.131 1403.81 729.782C1403.61 728.433 1403.68 727.056 1404.01 725.732C1406.06 717.582 1416.38 715.107 1421.83 721.461L1431.59 732.849C1443.08 746.253 1464.86 741.034 1469.18 723.838Z" fill="white"/>
<path fill-rule="evenodd" clip-rule="evenodd" d="M581.667 655.116C585.307 643.593 578.979 631.319 567.527 627.7L520.327 612.761L516.795 623.925L563.995 638.864C566.548 639.666 568.675 641.459 569.908 643.851C571.141 646.242 571.379 649.036 570.57 651.617C568.087 659.48 557.83 661.3 552.867 654.758L543.802 642.809C533.041 628.618 510.786 632.564 505.398 649.622C501.726 661.248 508.112 673.628 519.662 677.289L567.481 692.424L571.013 681.26L523.195 666.125C521.906 665.72 520.71 665.063 519.676 664.19C518.642 663.318 517.79 662.247 517.167 661.04C516.545 659.833 516.166 658.512 516.05 657.154C515.935 655.795 516.086 654.425 516.495 653.122C519.027 645.109 529.479 643.255 534.537 649.922L543.602 661.871C554.274 675.936 576.327 672.024 581.667 655.116Z" fill="white"/>
<path fill-rule="evenodd" clip-rule="evenodd" d="M1739.26 496.457C1740.48 484.435 1751.16 475.673 1763.1 476.89L1812.36 481.879L1811.18 493.529L1761.92 488.539C1759.26 488.263 1756.6 489.067 1754.52 490.774C1752.44 492.481 1751.11 494.952 1750.83 497.642C1750 505.845 1758.69 511.581 1765.84 507.542L1778.9 500.163C1794.4 491.399 1813.27 503.841 1811.46 521.638C1810.22 533.768 1799.45 542.603 1787.4 541.387L1737.5 536.332L1738.68 524.682L1788.58 529.737C1789.92 529.876 1791.28 529.747 1792.57 529.355C1793.87 528.964 1795.08 528.319 1796.13 527.457C1797.18 526.595 1798.05 525.533 1798.69 524.332C1799.34 523.13 1799.74 521.812 1799.88 520.454C1800.73 512.094 1791.87 506.249 1784.59 510.366L1771.53 517.744C1756.16 526.428 1737.46 514.097 1739.26 496.457Z" fill="white"/>
<path fill-rule="evenodd" clip-rule="evenodd" d="M864.809 444.234C866.748 432.307 877.925 424.197 889.779 426.123L938.65 434.039L936.777 445.597L887.906 437.681C885.265 437.247 882.558 437.891 880.381 439.471C878.203 441.051 876.732 443.438 876.293 446.107C874.969 454.246 883.307 460.489 890.684 456.883L904.159 450.296C920.157 442.472 938.251 456.016 935.381 473.673C933.424 485.708 922.148 493.886 910.186 491.953L860.675 483.933L862.548 472.375L912.059 480.394C913.392 480.613 914.756 480.565 916.072 480.252C917.388 479.938 918.631 479.366 919.731 478.568C920.83 477.771 921.763 476.762 922.478 475.601C923.193 474.44 923.675 473.149 923.896 471.802C925.245 463.507 916.747 457.144 909.228 460.82L895.754 467.407C879.892 475.159 861.962 461.735 864.809 444.234Z" fill="white"/>
<path fill-rule="evenodd" clip-rule="evenodd" d="M133.248 435.57C132.336 447.62 141.3 458.125 153.275 459.033L202.639 462.798L203.529 451.122L154.164 447.357C151.496 447.16 149.015 445.899 147.269 443.852C145.522 441.806 144.653 439.14 144.851 436.443C145.473 428.22 155.042 424.106 161.368 429.342L172.922 438.905C186.64 450.263 207.406 441.339 208.756 423.501C209.675 411.344 200.631 400.75 188.55 399.823L138.539 396.009L137.65 407.685L187.66 411.499C189.008 411.599 190.322 411.966 191.528 412.579C192.734 413.192 193.809 414.039 194.69 415.073C195.571 416.106 196.242 417.305 196.665 418.602C197.088 419.898 197.253 421.266 197.152 422.628C196.518 431.007 186.766 435.2 180.318 429.864L168.764 420.301C155.162 409.044 134.585 417.89 133.248 435.57Z" fill="white"/>
<path fill-rule="evenodd" clip-rule="evenodd" d="M1365.03 461.779C1367.98 450.06 1360.93 438.184 1349.29 435.255L1301.28 423.155L1298.42 434.509L1346.43 446.609C1349.02 447.257 1351.25 448.921 1352.62 451.235C1354 453.549 1354.4 456.323 1353.75 458.948C1351.74 466.945 1341.61 469.372 1336.26 463.138L1326.5 451.75C1314.92 438.226 1292.94 443.491 1288.57 460.84C1285.6 472.665 1292.71 484.642 1304.46 487.608L1353.1 499.866L1355.96 488.511L1307.32 476.253C1306.01 475.926 1304.78 475.341 1303.69 474.532C1302.61 473.722 1301.7 472.705 1301 471.536C1300.31 470.368 1299.85 469.073 1299.66 467.723C1299.46 466.374 1299.53 464.998 1299.86 463.673C1301.91 455.523 1312.23 453.049 1317.68 459.403L1327.44 470.791C1338.93 484.195 1360.71 478.975 1365.03 461.779Z" fill="white"/>
<path fill-rule="evenodd" clip-rule="evenodd" d="M482.203 394.678C485.843 383.155 479.515 370.88 468.064 367.262L420.864 352.322L417.331 363.486L464.531 378.426C467.085 379.227 469.212 381.021 470.444 383.413C471.677 385.804 471.915 388.597 471.106 391.178C468.623 399.041 458.367 400.861 453.404 394.32L444.339 382.37C433.578 368.18 411.323 372.125 405.935 389.184C402.263 400.81 408.648 413.19 420.199 416.85L468.017 431.985L471.549 420.821L423.731 405.687C422.443 405.282 421.247 404.624 420.213 403.752C419.178 402.879 418.326 401.809 417.704 400.602C417.082 399.394 416.702 398.074 416.587 396.715C416.472 395.357 416.623 393.987 417.032 392.684C419.563 384.671 430.015 382.816 435.074 389.483L444.138 401.433C454.81 415.498 476.864 411.585 482.203 394.678Z" fill="white"/>
<path fill-rule="evenodd" clip-rule="evenodd" d="M1599.19 344.514C1602.14 332.794 1595.09 320.919 1583.45 317.989L1535.44 305.889L1532.58 317.244L1580.58 329.344C1583.18 329.992 1585.41 331.656 1586.78 333.969C1588.16 336.283 1588.56 339.057 1587.91 341.682C1585.9 349.679 1575.77 352.107 1570.42 345.873L1560.66 334.485C1549.08 320.961 1527.1 326.226 1522.73 343.575C1519.76 355.399 1526.87 367.376 1538.62 370.342L1587.26 382.6L1590.12 371.246L1541.48 358.988C1540.17 358.66 1538.94 358.075 1537.85 357.266C1536.77 356.457 1535.85 355.439 1535.16 354.271C1534.47 353.103 1534.01 351.807 1533.82 350.458C1533.62 349.109 1533.69 347.732 1534.02 346.407C1536.07 338.258 1546.39 335.783 1551.84 342.137L1561.6 353.525C1573.09 366.929 1594.87 361.71 1599.19 344.514Z" fill="white"/>
<path fill-rule="evenodd" clip-rule="evenodd" d="M734.05 284.214C737.69 272.691 731.362 260.416 719.911 256.798L672.71 241.859L669.178 253.022L716.378 267.962C718.931 268.763 721.058 270.557 722.291 272.949C723.524 275.34 723.762 278.134 722.953 280.715C720.47 288.578 710.214 290.397 705.25 283.856L696.186 271.906C685.425 257.716 663.169 261.662 657.781 278.72C654.109 290.346 660.495 302.726 672.046 306.387L719.864 321.521L723.396 310.357L675.578 295.223C674.289 294.818 673.094 294.161 672.059 293.288C671.025 292.416 670.173 291.345 669.551 290.138C668.928 288.93 668.549 287.61 668.434 286.251C668.318 284.893 668.469 283.523 668.878 282.22C671.41 274.207 681.862 272.352 686.92 279.019L695.985 290.969C706.657 305.034 728.71 301.122 734.05 284.214Z" fill="white"/>
<path fill-rule="evenodd" clip-rule="evenodd" d="M5.15461 101.633C5.99085 113.689 -3.03903 124.137 -15.0196 124.969L-64.407 128.423L-65.2231 116.742L-15.8357 113.288C-13.1657 113.107 -10.6774 111.863 -8.91808 109.827C-7.15872 107.791 -6.27234 105.131 -6.45386 102.433C-7.02369 94.2066 -16.5671 90.0323 -22.9258 95.2278L-34.5402 104.718C-48.3287 115.989 -69.038 106.935 -70.2756 89.0891C-71.1189 76.9257 -62.0082 66.3888 -49.9212 65.5386L0.112586 62.0394L0.928621 73.7203L-49.1052 77.2196C-50.453 77.3108 -51.7695 77.6694 -52.9795 78.2751C-54.1895 78.8807 -55.2692 79.7214 -56.1571 80.7493C-57.045 81.7771 -57.7237 82.9719 -58.1544 84.2655C-58.5851 85.559 -58.7593 86.9261 -58.6672 88.2884C-58.0857 96.6718 -48.3598 100.926 -41.8791 95.6307L-30.2647 86.1402C-16.5925 74.97 3.92874 83.9448 5.15461 101.633Z" fill="white"/>
<path fill-rule="evenodd" clip-rule="evenodd" d="M1566.92 988.045C1578.33 984.074 1590.78 990.045 1594.73 1001.39L1611.03 1048.14L1599.97 1051.99L1583.67 1005.24C1582.8 1002.71 1580.94 1000.64 1578.52 999.474C1576.09 998.31 1573.29 998.153 1570.74 999.037C1562.95 1001.75 1561.43 1012.05 1568.11 1016.82L1580.31 1025.54C1594.81 1035.89 1591.51 1058.25 1574.61 1064.12C1563.1 1068.13 1550.54 1062.1 1546.54 1050.66L1530.04 1003.3L1541.09 999.448L1557.6 1046.81C1558.04 1048.09 1558.73 1049.26 1559.64 1050.27C1560.54 1051.28 1561.63 1052.1 1562.86 1052.69C1564.08 1053.28 1565.41 1053.62 1566.78 1053.69C1568.14 1053.77 1569.5 1053.58 1570.79 1053.13C1578.73 1050.37 1580.28 1039.87 1573.47 1035.01L1561.26 1026.29C1546.9 1016.03 1550.17 993.87 1566.92 988.045Z" fill="white"/>
<path fill-rule="evenodd" clip-rule="evenodd" d="M663.482 924.678C675.111 921.394 687.185 928.097 690.45 939.655L703.929 987.292L692.662 990.479L679.182 942.842C678.46 940.265 676.732 938.084 674.38 936.778C672.027 935.472 669.243 935.148 666.638 935.878C658.702 938.118 656.568 948.313 662.953 953.475L674.618 962.903C688.47 974.096 683.842 996.219 666.626 1001.08C654.892 1004.39 642.715 997.628 639.411 985.971L625.755 937.709L637.023 934.522L650.679 982.783C651.043 984.084 651.664 985.299 652.504 986.36C653.344 987.421 654.388 988.306 655.576 988.965C656.763 989.624 658.072 990.044 659.426 990.201C660.78 990.358 662.154 990.249 663.469 989.88C671.556 987.597 673.732 977.206 667.223 971.945L655.558 962.517C641.829 951.418 646.418 929.495 663.482 924.678Z" fill="white"/>
<path fill-rule="evenodd" clip-rule="evenodd" d="M1348.82 990.681C1339.44 983.058 1325.7 984.427 1318.12 993.744L1286.87 1032.14L1295.95 1039.53L1327.21 1001.14C1328.89 999.056 1331.34 997.738 1334.02 997.472C1336.7 997.205 1339.38 998.011 1341.48 999.713C1347.88 1004.91 1345.8 1015.12 1337.89 1017.33L1323.45 1021.36C1306.29 1026.15 1301.77 1048.3 1315.65 1059.58C1325.11 1067.27 1338.98 1065.89 1346.63 1056.49L1378.29 1017.6L1369.21 1010.21L1337.55 1049.1C1336.7 1050.15 1335.65 1051.02 1334.45 1051.66C1333.26 1052.3 1331.95 1052.7 1330.6 1052.84C1329.25 1052.97 1327.88 1052.84 1326.58 1052.45C1325.27 1052.05 1324.05 1051.41 1322.99 1050.55C1316.47 1045.25 1318.59 1034.85 1326.65 1032.6L1341.1 1028.56C1358.1 1023.81 1362.58 1001.87 1348.82 990.681Z" fill="white"/>
<path fill-rule="evenodd" clip-rule="evenodd" d="M445.613 914.312C436.708 906.143 422.909 906.691 414.79 915.54L381.303 952.004L389.928 959.924L423.415 923.46C425.22 921.484 427.745 920.315 430.433 920.208C433.122 920.101 435.754 921.066 437.751 922.891C443.828 928.464 441.143 938.528 433.117 940.262L418.456 943.427C401.048 947.183 395.218 969.02 408.401 981.113C417.386 989.354 431.304 988.799 439.504 979.877L473.429 942.936L464.804 935.016L430.879 971.958C429.967 972.955 428.866 973.761 427.638 974.329C426.411 974.898 425.08 975.218 423.723 975.272C422.366 975.325 421.008 975.111 419.728 974.642C418.448 974.172 417.271 973.456 416.263 972.535C410.07 966.854 412.807 956.597 420.987 954.831L435.648 951.665C452.905 947.938 458.68 926.297 445.613 914.312Z" fill="white"/>
<path fill-rule="evenodd" clip-rule="evenodd" d="M23.0442 1009.37C14.1391 1001.2 0.340319 1001.75 -7.77847 1010.6L-41.2659 1047.06L-32.6408 1054.98L0.846576 1018.52C2.65202 1016.54 5.17656 1015.37 7.86504 1015.26C10.5535 1015.16 13.1858 1016.12 15.1829 1017.95C21.2599 1023.52 18.5749 1033.58 10.5485 1035.32L-4.11237 1038.48C-21.5208 1042.24 -27.3505 1064.08 -14.1676 1076.17C-5.18235 1084.41 8.73609 1083.85 16.9354 1074.93L50.861 1037.99L42.2359 1030.07L8.3104 1067.01C7.39889 1068.01 6.29781 1068.82 5.07 1069.39C3.84219 1069.95 2.51171 1070.27 1.15451 1070.33C-0.202681 1070.38 -1.55999 1070.17 -2.83995 1069.7C-4.1199 1069.23 -5.29745 1068.51 -6.3053 1067.59C-12.498 1061.91 -9.76164 1051.65 -1.5813 1049.89L13.0796 1046.72C30.3368 1042.99 36.1113 1021.35 23.0442 1009.37Z" fill="white"/>
<path fill-rule="evenodd" clip-rule="evenodd" d="M1718.84 698.52C1730.25 694.549 1742.7 700.52 1746.65 711.863L1762.94 758.612L1751.88 762.465L1735.59 715.716C1734.72 713.187 1732.86 711.112 1730.43 709.949C1728.01 708.785 1725.21 708.628 1722.65 709.512C1714.86 712.22 1713.34 722.525 1720.02 727.297L1732.23 736.014C1746.72 746.361 1743.42 768.72 1726.53 774.598C1715.01 778.604 1702.45 772.578 1698.46 761.138L1681.95 713.776L1693.01 709.923L1709.52 757.285C1709.96 758.562 1710.65 759.738 1711.55 760.746C1712.45 761.755 1713.55 762.576 1714.77 763.163C1716 763.75 1717.33 764.092 1718.69 764.168C1720.05 764.244 1721.42 764.053 1722.71 763.607C1730.64 760.846 1732.2 750.344 1725.39 745.48L1713.18 736.764C1698.81 726.502 1702.09 704.345 1718.84 698.52Z" fill="white"/>
<path fill-rule="evenodd" clip-rule="evenodd" d="M832.382 644.721C844.011 641.437 856.085 648.14 859.349 659.697L872.829 707.335L861.561 710.522L848.082 662.885C847.359 660.308 845.632 658.127 843.279 656.821C840.927 655.515 838.142 655.191 835.538 655.921C827.602 658.16 825.467 668.356 831.853 673.518L843.518 682.946C857.37 694.139 852.742 716.262 835.526 721.122C823.792 724.435 811.615 717.671 808.311 706.013L794.655 657.752L805.922 654.565L819.578 702.826C819.943 704.127 820.563 705.342 821.404 706.403C822.244 707.463 823.288 708.348 824.475 709.007C825.663 709.666 826.971 710.086 828.326 710.243C829.68 710.401 831.054 710.292 832.368 709.923C840.456 707.639 842.631 697.249 836.123 691.988L824.458 682.56C810.728 671.46 815.317 649.538 832.382 644.721Z" fill="white"/>
<path fill-rule="evenodd" clip-rule="evenodd" d="M148.74 233.07C159.275 238.989 172.584 235.305 178.468 224.835L202.743 181.687L192.537 175.946L168.262 219.095C166.955 221.43 164.764 223.145 162.171 223.863C159.578 224.581 156.795 224.243 154.434 222.923C147.245 218.884 147.561 208.473 154.979 204.952L168.53 198.522C184.62 190.89 185.309 168.298 169.713 159.536C159.083 153.565 145.659 157.284 139.714 167.842L115.121 211.555L125.327 217.296L149.92 173.583C150.579 172.404 151.467 171.368 152.533 170.534C153.598 169.7 154.82 169.084 156.129 168.722C157.439 168.36 158.809 168.259 160.162 168.423C161.516 168.588 162.826 169.016 164.017 169.683C171.344 173.799 171.022 184.41 163.461 187.998L149.911 194.428C133.961 201.998 133.281 224.386 148.74 233.07Z" fill="white"/>
<path fill-rule="evenodd" clip-rule="evenodd" d="M1304.7 666.711C1295.32 659.088 1281.58 660.457 1274 669.774L1242.75 708.169L1251.83 715.561L1283.08 677.166C1284.77 675.087 1287.22 673.769 1289.9 673.502C1292.57 673.235 1295.26 674.041 1297.36 675.743C1303.76 680.945 1301.68 691.151 1293.77 693.36L1279.32 697.394C1262.17 702.18 1257.65 724.326 1271.53 735.611C1280.99 743.303 1294.85 741.919 1302.51 732.525L1334.17 693.627L1325.09 686.235L1293.42 725.133C1292.57 726.183 1291.52 727.053 1290.33 727.693C1289.14 728.334 1287.83 728.733 1286.48 728.867C1285.13 729.002 1283.76 728.869 1282.45 728.476C1281.15 728.084 1279.93 727.439 1278.87 726.58C1272.35 721.278 1274.47 710.877 1282.53 708.626L1296.98 704.592C1313.98 699.843 1318.45 677.896 1304.7 666.711Z" fill="white"/>
<path fill-rule="evenodd" clip-rule="evenodd" d="M1463.44 1026.36C1454.06 1018.73 1440.32 1020.1 1432.74 1029.42L1401.49 1067.81L1410.57 1075.21L1441.82 1036.81C1443.51 1034.73 1445.96 1033.41 1448.64 1033.15C1451.31 1032.88 1454 1033.69 1456.1 1035.39C1462.5 1040.59 1460.42 1050.8 1452.51 1053L1438.06 1057.04C1420.91 1061.82 1416.39 1083.97 1430.27 1095.26C1439.73 1102.95 1453.59 1101.56 1461.25 1092.17L1492.91 1053.27L1483.83 1045.88L1452.16 1084.78C1451.31 1085.83 1450.26 1086.7 1449.07 1087.34C1447.88 1087.98 1446.57 1088.38 1445.22 1088.51C1443.87 1088.65 1442.5 1088.51 1441.19 1088.12C1439.89 1087.73 1438.67 1087.08 1437.61 1086.22C1431.09 1080.92 1433.21 1070.52 1441.27 1068.27L1455.72 1064.24C1472.72 1059.49 1477.19 1037.54 1463.44 1026.36Z" fill="white"/>
<path fill-rule="evenodd" clip-rule="evenodd" d="M420.874 588.288C411.969 580.12 398.171 580.667 390.052 589.517L356.564 625.981L365.19 633.901L398.677 597.436C400.482 595.461 403.007 594.291 405.695 594.185C408.384 594.078 411.016 595.043 413.013 596.867C419.09 602.441 416.405 612.505 408.379 614.238L393.718 617.404C376.31 621.16 370.48 642.997 383.663 655.089C392.648 663.331 406.566 662.775 414.766 653.854L448.691 616.912L440.066 608.993L406.141 645.935C405.229 646.932 404.128 647.737 402.9 648.306C401.673 648.875 400.342 649.195 398.985 649.248C397.628 649.302 396.27 649.088 394.99 648.618C393.71 648.149 392.533 647.433 391.525 646.511C385.332 640.831 388.069 630.574 396.249 628.807L410.91 625.642C428.167 621.914 433.942 600.273 420.874 588.288Z" fill="white"/>
<path fill-rule="evenodd" clip-rule="evenodd" d="M1667.57 171.376C1678.98 167.406 1691.43 173.377 1695.38 184.719L1711.68 231.469L1700.62 235.322L1684.32 188.572C1683.45 186.043 1681.6 183.969 1679.17 182.805C1676.74 181.642 1673.94 181.485 1671.39 182.368C1663.6 185.077 1662.08 195.381 1668.76 200.154L1680.96 208.87C1695.46 219.217 1692.16 241.577 1675.26 247.455C1663.75 251.461 1651.19 245.435 1647.19 233.995L1630.69 186.633L1641.74 182.78L1658.25 230.141C1658.69 231.418 1659.39 232.594 1660.29 233.603C1661.19 234.612 1662.28 235.433 1663.51 236.02C1664.73 236.607 1666.06 236.948 1667.43 237.024C1668.79 237.1 1670.15 236.91 1671.44 236.463C1679.38 233.702 1680.93 223.201 1674.12 218.337L1661.92 209.62C1647.55 199.359 1650.82 177.202 1667.57 171.376Z" fill="white"/>
<path fill-rule="evenodd" clip-rule="evenodd" d="M812.622 115.459C824.252 112.176 836.326 118.878 839.59 130.436L853.07 178.073L841.802 181.26L828.323 133.623C827.6 131.046 825.873 128.865 823.52 127.559C821.168 126.253 818.383 125.929 815.778 126.659C807.843 128.899 805.708 139.094 812.094 144.256L823.759 153.684C837.611 164.877 832.982 187 815.766 191.861C804.033 195.173 791.855 188.409 788.552 176.752L774.896 128.49L786.163 125.303L799.819 173.564C800.184 174.865 800.804 176.08 801.644 177.141C802.485 178.202 803.528 179.087 804.716 179.746C805.904 180.405 807.212 180.825 808.566 180.982C809.921 181.139 811.294 181.03 812.609 180.661C820.697 178.378 822.872 167.987 816.364 162.726L804.699 153.298C790.969 142.199 795.558 120.276 812.622 115.459Z" fill="white"/>
<path fill-rule="evenodd" clip-rule="evenodd" d="M5.41825 742.94C15.9534 748.859 29.2626 745.174 35.1458 734.705L59.4207 691.557L49.215 685.816L24.9401 728.964C23.6334 731.3 21.4427 733.015 18.8496 733.733C16.2566 734.451 13.4735 734.112 11.1126 732.792C3.92334 728.754 4.23897 718.343 11.6573 714.822L25.2079 708.392C41.2985 700.76 41.987 678.168 26.391 669.406C15.761 663.434 2.33725 667.154 -3.60802 677.712L-28.2005 721.425L-17.9947 727.165L6.5977 683.452C7.25742 682.273 8.14538 681.237 9.21089 680.403C10.2764 679.569 11.4986 678.954 12.8077 678.592C14.1168 678.23 15.4871 678.128 16.8405 678.293C18.1939 678.458 19.5038 678.886 20.6954 679.553C28.0218 683.669 27.7001 694.28 20.1394 697.868L6.58891 704.298C-9.36092 711.868 -10.0406 734.256 5.41825 742.94Z" fill="white"/>
<path fill-rule="evenodd" clip-rule="evenodd" d="M1532.58 188.616C1523.21 180.993 1509.47 182.362 1501.89 191.679L1470.64 230.074L1479.72 237.466L1510.97 199.071C1512.66 196.991 1515.11 195.674 1517.78 195.407C1520.46 195.14 1523.15 195.946 1525.25 197.648C1531.65 202.85 1529.57 213.056 1521.66 215.265L1507.21 219.298C1490.06 224.085 1485.54 246.231 1499.42 257.516C1508.88 265.208 1522.74 263.824 1530.39 254.43L1562.06 215.532L1552.98 208.14L1521.31 247.038C1520.46 248.088 1519.41 248.958 1518.22 249.598C1517.03 250.239 1515.72 250.638 1514.37 250.772C1513.02 250.907 1511.65 250.774 1510.34 250.381C1509.04 249.989 1507.82 249.344 1506.76 248.485C1500.24 243.183 1502.36 232.782 1510.42 230.531L1524.86 226.497C1541.87 221.748 1546.34 199.801 1532.58 188.616Z" fill="white"/>
<path fill-rule="evenodd" clip-rule="evenodd" d="M676.85 124.624C667.945 116.455 654.146 117.003 646.027 125.852L612.54 162.317L621.165 170.236L654.653 133.772C656.458 131.797 658.983 130.627 661.671 130.52C664.359 130.414 666.992 131.379 668.989 133.203C675.066 138.776 672.381 148.841 664.354 150.574L649.694 153.74C632.285 157.495 626.455 179.333 639.638 191.425C648.624 199.667 662.542 199.111 670.741 190.19L704.667 153.248L696.042 145.329L662.116 182.27C661.205 183.267 660.104 184.073 658.876 184.642C657.648 185.21 656.318 185.531 654.96 185.584C653.603 185.638 652.246 185.424 650.966 184.954C649.686 184.484 648.509 183.768 647.501 182.847C641.308 177.167 644.044 166.91 652.225 165.143L666.886 161.977C684.143 158.25 689.917 136.609 676.85 124.624Z" fill="white"/>
<path fill-rule="evenodd" clip-rule="evenodd" d="M1727.58 383.159C1722.32 394.037 1709.29 398.619 1698.48 393.39L1653.9 371.855L1659 361.312L1703.58 382.847C1705.98 384.016 1708.76 384.172 1711.3 383.279C1713.84 382.386 1715.93 380.518 1717.11 378.086C1720.7 370.663 1714.49 362.3 1706.39 363.651L1691.6 366.118C1674.03 369.051 1660.56 350.905 1668.35 334.802C1673.66 323.827 1686.8 319.207 1697.71 324.474L1742.87 346.291L1737.78 356.834L1692.62 335.017C1691.4 334.426 1690.08 334.084 1688.73 334.008C1687.38 333.933 1686.03 334.126 1684.74 334.577C1683.46 335.028 1682.28 335.728 1681.26 336.637C1680.25 337.545 1679.42 338.645 1678.82 339.874C1675.16 347.438 1681.49 355.962 1689.74 354.585L1704.54 352.118C1721.95 349.215 1735.31 367.198 1727.58 383.159Z" fill="white"/>
<path fill-rule="evenodd" clip-rule="evenodd" d="M859.907 330.441C854.006 340.986 840.729 344.785 830.249 338.92L787.032 314.767L792.746 304.546L835.962 328.699C838.295 330.01 841.059 330.331 843.646 329.591C846.232 328.851 848.43 327.111 849.756 324.754C853.784 317.558 848.084 308.84 839.919 309.705L825.004 311.286C807.294 313.167 794.924 294.251 803.66 278.641C809.615 268.001 823.008 264.173 833.588 270.08L877.37 294.55L871.656 304.771L827.874 280.301C826.696 279.64 825.398 279.219 824.054 279.063C822.71 278.907 821.346 279.019 820.041 279.393C818.735 279.767 817.513 280.395 816.444 281.242C815.375 282.088 814.481 283.137 813.812 284.327C809.708 291.66 815.517 300.546 823.839 299.664L838.754 298.082C856.311 296.222 868.568 314.969 859.907 330.441Z" fill="white"/>
<path fill-rule="evenodd" clip-rule="evenodd" d="M101.798 545.04C98.5343 533.406 86.5181 526.6 74.9548 529.843L27.2794 543.188L30.4368 554.464L78.1122 541.119C80.6875 540.391 83.4494 540.727 85.7906 542.053C88.1318 543.379 89.8605 545.586 90.5966 548.189C92.8247 556.128 85.2394 563.267 77.5043 560.511L63.3759 555.476C46.6014 549.495 30.1398 564.983 34.9722 582.207C38.266 593.946 50.3881 600.808 62.0577 597.546L110.357 584.026L107.2 572.75L58.9003 586.271C57.6003 586.638 56.2398 586.742 54.8967 586.579C53.5536 586.415 52.254 585.986 51.0723 585.316C49.8906 584.647 48.8498 583.749 48.0095 582.676C47.1691 581.602 46.5455 580.373 46.1744 579.059C43.9044 570.968 51.6348 563.693 59.5182 566.502L73.6467 571.537C90.2778 577.462 106.589 562.112 101.798 545.04Z" fill="white"/>
<path fill-rule="evenodd" clip-rule="evenodd" d="M1566.11 621.916C1560.85 632.794 1547.82 637.376 1537.01 632.147L1492.43 610.612L1497.53 600.069L1542.1 621.604C1544.51 622.774 1547.29 622.929 1549.83 622.036C1552.37 621.144 1554.46 619.275 1555.64 616.843C1559.23 609.421 1553.02 601.057 1544.92 602.408L1530.13 604.875C1512.56 607.808 1499.09 589.662 1506.88 573.559C1512.19 562.584 1525.33 557.964 1536.24 563.231L1581.4 585.048L1576.31 595.591L1531.15 573.774C1529.93 573.183 1528.61 572.841 1527.26 572.765C1525.91 572.69 1524.55 572.883 1523.27 573.334C1521.99 573.785 1520.81 574.485 1519.79 575.394C1518.78 576.303 1517.95 577.402 1517.35 578.631C1513.69 586.195 1520.02 594.719 1528.27 593.342L1543.07 590.875C1560.48 587.972 1573.83 605.955 1566.11 621.916Z" fill="white"/>
<path fill-rule="evenodd" clip-rule="evenodd" d="M1507.98 976.673C1502.71 987.551 1489.69 992.133 1478.87 986.904L1434.3 965.369L1439.39 954.826L1483.97 976.361C1486.38 977.53 1489.15 977.686 1491.69 976.793C1494.23 975.9 1496.32 974.032 1497.5 971.6C1501.1 964.177 1494.89 955.814 1486.79 957.164L1471.99 959.632C1454.43 962.565 1440.95 944.419 1448.74 928.316C1454.05 917.34 1467.19 912.721 1478.11 917.987L1523.27 939.804L1518.17 950.348L1473.01 928.531C1471.8 927.94 1470.48 927.598 1469.12 927.522C1467.77 927.447 1466.42 927.64 1465.14 928.091C1463.86 928.542 1462.67 929.242 1461.66 930.151C1460.64 931.059 1459.81 932.159 1459.21 933.387C1455.55 940.952 1461.88 949.476 1470.14 948.099L1484.93 945.632C1502.35 942.729 1515.7 960.712 1507.98 976.673Z" fill="white"/>
<path fill-rule="evenodd" clip-rule="evenodd" d="M684.495 559.151C678.594 569.697 665.317 573.495 654.836 567.63L611.62 543.477L617.333 533.256L660.55 557.409C662.883 558.72 665.647 559.041 668.233 558.301C670.82 557.561 673.018 555.821 674.344 553.464C678.372 546.268 672.672 537.55 664.507 538.415L649.591 539.996C631.882 541.877 619.511 522.961 628.248 507.351C634.203 496.711 647.596 492.883 658.175 498.79L701.957 523.26L696.244 533.481L652.462 509.011C651.284 508.35 649.986 507.929 648.642 507.773C647.298 507.617 645.934 507.729 644.629 508.103C643.323 508.477 642.101 509.105 641.032 509.952C639.963 510.798 639.069 511.847 638.4 513.037C634.296 520.37 640.105 529.256 648.427 528.374L663.342 526.792C680.899 524.932 693.156 543.679 684.495 559.151Z" fill="white"/>
<path fill-rule="evenodd" clip-rule="evenodd" d="M1403.97 367.257C1405.21 379.277 1415.9 388.026 1427.84 386.795L1477.09 381.746L1475.9 370.098L1426.65 375.147C1423.99 375.426 1421.32 374.625 1419.24 372.921C1417.16 371.216 1415.83 368.748 1415.55 366.057C1414.7 357.855 1423.39 352.109 1430.54 356.14L1443.61 363.503C1459.12 372.248 1477.98 359.783 1476.14 341.988C1474.89 329.86 1464.11 321.038 1452.06 322.269L1402.16 327.384L1403.36 339.032L1453.25 333.917C1454.6 333.776 1455.96 333.904 1457.25 334.294C1458.55 334.683 1459.76 335.327 1460.81 336.188C1461.86 337.048 1462.73 338.109 1463.38 339.31C1464.02 340.511 1464.43 341.828 1464.57 343.186C1465.43 351.545 1456.58 357.401 1449.29 353.293L1436.22 345.93C1420.84 337.265 1402.15 349.619 1403.97 367.257Z" fill="white"/>
<path fill-rule="evenodd" clip-rule="evenodd" d="M537.821 295.282C538.342 307.355 548.486 316.725 560.485 316.209L609.948 314.104L609.449 302.405L559.986 304.51C557.312 304.63 554.7 303.672 552.724 301.846C550.747 300.021 549.568 297.477 549.446 294.775C549.09 286.537 558.105 281.319 565.006 285.769L577.611 293.897C592.577 303.551 612.14 292.232 611.369 274.36C610.843 262.179 600.609 252.73 588.503 253.24L538.392 255.373L538.891 267.072L589.001 264.939C590.351 264.878 591.699 265.087 592.97 265.553C594.24 266.019 595.407 266.734 596.405 267.656C597.402 268.577 598.211 269.688 598.784 270.926C599.357 272.163 599.683 273.502 599.744 274.866C600.106 283.261 590.919 288.579 583.885 284.044L571.28 275.916C556.441 266.349 537.056 277.568 537.821 295.282Z" fill="white"/>
<path fill-rule="evenodd" clip-rule="evenodd" d="M1859.07 234.364C1853.8 245.242 1840.78 249.824 1829.97 244.595L1785.39 223.06L1790.48 212.517L1835.06 234.052C1837.47 235.221 1840.24 235.377 1842.78 234.484C1845.32 233.591 1847.41 231.723 1848.59 229.291C1852.19 221.868 1845.98 213.505 1837.88 214.855L1823.08 217.323C1805.52 220.255 1792.04 202.11 1799.83 186.007C1805.14 175.031 1818.28 170.412 1829.2 175.678L1874.36 197.495L1869.26 208.039L1824.1 186.222C1822.89 185.631 1821.57 185.288 1820.22 185.213C1818.86 185.138 1817.51 185.331 1816.23 185.782C1814.95 186.233 1813.76 186.933 1812.75 187.842C1811.73 188.75 1810.9 189.85 1810.3 191.078C1806.65 198.643 1812.97 207.166 1821.23 205.79L1836.02 203.323C1853.44 200.42 1866.79 218.403 1859.07 234.364Z" fill="white"/>
<path fill-rule="evenodd" clip-rule="evenodd" d="M1000.03 189.747C994.124 200.292 980.847 204.09 970.367 198.226L927.15 174.072L932.864 163.851L976.08 188.005C978.413 189.316 981.177 189.637 983.764 188.897C986.351 188.157 988.549 186.417 989.875 184.059C993.902 176.864 988.203 168.145 980.037 169.01L965.122 170.592C947.412 172.472 935.042 153.556 943.778 137.946C949.733 127.306 963.126 123.478 973.706 129.386L1017.49 153.855L1011.77 164.076L967.992 139.607C966.815 138.945 965.517 138.524 964.173 138.368C962.828 138.213 961.465 138.325 960.159 138.699C958.853 139.072 957.631 139.701 956.562 140.547C955.493 141.394 954.599 142.442 953.93 143.633C949.826 150.966 955.635 159.851 963.957 158.969L978.872 157.388C996.429 155.528 1008.69 174.275 1000.03 189.747Z" fill="white"/>
<path fill-rule="evenodd" clip-rule="evenodd" d="M205.016 714.67C201.752 703.035 189.736 696.23 178.173 699.473L130.497 712.818L133.655 724.094L181.33 710.749C183.905 710.021 186.667 710.357 189.008 711.683C191.35 713.009 193.078 715.216 193.814 717.819C196.042 725.758 188.457 732.897 180.722 730.141L166.594 725.106C149.819 719.125 133.358 734.613 138.19 751.837C141.484 763.576 153.606 770.438 165.275 767.176L213.575 753.656L210.417 742.38L162.118 755.9C160.818 756.268 159.458 756.372 158.114 756.208C156.771 756.045 155.472 755.616 154.29 754.946C153.108 754.277 152.068 753.379 151.227 752.306C150.387 751.232 149.763 750.003 149.392 748.689C147.122 740.598 154.853 733.323 162.736 736.132L176.864 741.167C193.496 747.092 209.807 731.742 205.016 714.67Z" fill="white"/>
<path fill-rule="evenodd" clip-rule="evenodd" d="M236.416 1030.67C233.152 1019.04 221.135 1012.23 209.572 1015.47L161.897 1028.82L165.054 1040.1L212.73 1026.75C215.305 1026.02 218.067 1026.36 220.408 1027.68C222.749 1029.01 224.478 1031.22 225.214 1033.82C227.442 1041.76 219.857 1048.9 212.122 1046.14L197.993 1041.11C181.219 1035.13 164.757 1050.61 169.59 1067.84C172.883 1079.58 185.006 1086.44 196.675 1083.18L244.974 1069.66L241.817 1058.38L193.518 1071.9C192.218 1072.27 190.857 1072.37 189.514 1072.21C188.171 1072.05 186.871 1071.62 185.69 1070.95C184.508 1070.28 183.467 1069.38 182.627 1068.31C181.786 1067.23 181.163 1066 180.792 1064.69C178.522 1056.6 186.252 1049.32 194.136 1052.13L208.264 1057.17C224.895 1063.09 241.206 1047.74 236.416 1030.67Z" fill="white"/>
<path fill-rule="evenodd" clip-rule="evenodd" d="M1331.09 182.553C1332.33 194.573 1343.01 203.322 1354.96 202.092L1404.21 197.043L1403.01 185.394L1353.76 190.443C1351.1 190.722 1348.44 189.922 1346.35 188.217C1344.27 186.513 1342.94 184.044 1342.66 181.354C1341.81 173.152 1350.5 167.406 1357.66 171.436L1370.72 178.799C1386.24 187.544 1405.09 175.079 1403.26 157.284C1402.01 145.156 1391.23 136.334 1379.17 137.565L1329.28 142.68L1330.47 154.328L1380.37 149.213C1381.71 149.072 1383.07 149.2 1384.36 149.59C1385.66 149.98 1386.87 150.623 1387.92 151.484C1388.97 152.345 1389.84 153.406 1390.49 154.606C1391.13 155.807 1391.54 157.124 1391.68 158.482C1392.54 166.842 1383.69 172.697 1376.4 168.589L1363.33 161.227C1347.95 152.561 1329.27 164.916 1331.09 182.553Z" fill="white"/>
<path fill-rule="evenodd" clip-rule="evenodd" d="M476.071 106.564C476.592 118.636 486.736 128.006 498.735 127.49L548.198 125.385L547.699 113.686L498.236 115.791C495.562 115.911 492.95 114.953 490.974 113.127C488.997 111.302 487.818 108.758 487.696 106.056C487.34 97.818 496.355 92.6001 503.256 97.0498L515.861 105.178C530.827 114.832 550.39 103.513 549.619 85.6408C549.093 73.4596 538.859 64.0106 526.753 64.521L476.642 66.6538L477.141 78.3526L527.251 76.2198C528.601 76.1594 529.949 76.3681 531.22 76.8343C532.49 77.3004 533.657 78.0148 534.655 78.9366C535.652 79.8584 536.461 80.9695 537.034 82.2067C537.607 83.4438 537.933 84.7827 537.994 86.1468C538.356 94.5425 529.169 99.8603 522.135 95.3251L509.53 87.1967C494.691 77.6298 475.306 88.849 476.071 106.564Z" fill="white"/>
<path fill-rule="evenodd" clip-rule="evenodd" d="M1674.81 931.062C1668.02 921.066 1670.56 907.493 1680.5 900.744L1721.44 872.905L1728.02 882.589L1687.08 910.428C1684.87 911.927 1683.34 914.255 1682.85 916.9C1682.35 919.544 1682.92 922.289 1684.44 924.53C1689.07 931.351 1699.42 930.156 1702.3 922.466L1707.56 908.42C1713.8 891.741 1736.25 889.144 1746.3 903.942C1753.15 914.029 1750.58 927.719 1740.57 934.536L1699.09 962.74L1692.51 953.056L1733.98 924.853C1735.1 924.096 1736.06 923.124 1736.8 921.991C1737.54 920.859 1738.05 919.589 1738.3 918.254C1738.55 916.919 1738.54 915.545 1738.26 914.21C1737.98 912.876 1737.44 911.607 1736.68 910.476C1731.95 903.524 1721.41 904.743 1718.47 912.58L1713.21 926.626C1707.02 943.159 1684.77 945.731 1674.81 931.062Z" fill="white"/>
<path fill-rule="evenodd" clip-rule="evenodd" d="M1765.96 650.505C1759.17 640.509 1761.72 626.936 1771.65 620.188L1812.59 592.348L1819.17 602.032L1778.23 629.871C1776.02 631.371 1774.49 633.699 1774 636.343C1773.5 638.988 1774.08 641.732 1775.59 643.973C1780.22 650.794 1790.57 649.599 1793.45 641.909L1798.71 627.863C1804.95 611.184 1827.41 608.587 1837.46 623.385C1844.31 633.472 1841.74 647.162 1831.72 653.98L1790.24 682.183L1783.66 672.499L1825.14 644.296C1826.25 643.539 1827.21 642.567 1827.95 641.434C1828.69 640.302 1829.2 639.032 1829.45 637.697C1829.7 636.362 1829.69 634.988 1829.41 633.654C1829.13 632.319 1828.59 631.05 1827.83 629.919C1823.11 622.967 1812.56 624.186 1809.63 632.023L1804.37 646.069C1798.17 662.602 1775.92 665.174 1765.96 650.505Z" fill="white"/>
<path fill-rule="evenodd" clip-rule="evenodd" d="M761.085 836.076C754.904 825.692 758.253 812.295 768.572 806.151L811.098 780.801L817.093 790.859L774.567 816.209C772.265 817.574 770.605 819.807 769.953 822.417C769.3 825.028 769.708 827.801 771.087 830.128C775.304 837.214 785.705 836.637 789.038 829.133L795.126 815.425C802.352 799.148 824.919 797.893 834.07 813.264C840.307 823.741 836.925 837.254 826.52 843.462L783.437 869.144L777.442 859.085L820.525 833.404C821.687 832.715 822.7 831.801 823.507 830.715C824.314 829.629 824.899 828.392 825.228 827.074C825.557 825.756 825.624 824.384 825.425 823.035C825.227 821.686 824.766 820.387 824.069 819.213C819.771 811.992 809.171 812.58 805.774 820.228L799.686 833.936C792.518 850.07 770.155 851.312 761.085 836.076Z" fill="white"/>
<path fill-rule="evenodd" clip-rule="evenodd" d="M1266.82 900.334C1276.61 893.25 1278.84 879.623 1271.8 869.892L1242.8 829.765L1233.31 836.624L1262.31 876.751C1263.88 878.917 1264.52 881.625 1264.09 884.28C1263.65 886.935 1262.18 889.32 1259.99 890.91C1253.31 895.744 1243.99 891.093 1243.9 882.882L1243.75 867.884C1243.56 850.076 1223.34 839.98 1208.85 850.467C1198.97 857.614 1196.72 871.36 1203.81 881.184L1233.19 921.836L1242.68 914.977L1213.3 874.325C1212.51 873.232 1211.94 871.991 1211.63 870.674C1211.32 869.357 1211.27 867.99 1211.49 866.649C1211.71 865.309 1212.19 864.022 1212.91 862.863C1213.63 861.703 1214.57 860.693 1215.67 859.891C1222.48 854.965 1231.98 859.705 1232.07 868.074L1232.22 883.072C1232.41 900.726 1252.45 910.728 1266.82 900.334Z" fill="white"/>
<path fill-rule="evenodd" clip-rule="evenodd" d="M376.939 852.534C387.134 846.046 390.176 832.576 383.73 822.443L357.175 780.659L347.293 786.941L373.848 828.725C375.288 830.98 375.765 833.721 375.172 836.346C374.579 838.97 372.966 841.263 370.687 842.72C363.731 847.147 354.704 841.949 355.107 833.747L355.844 818.767C356.722 800.979 337.137 789.696 322.045 799.3C311.759 805.846 308.693 819.434 315.188 829.663L342.09 871.994L351.973 865.713L325.07 823.382C324.343 822.243 323.85 820.971 323.618 819.638C323.387 818.305 323.422 816.937 323.721 815.612C324.021 814.287 324.579 813.032 325.364 811.917C326.149 810.802 327.145 809.85 328.296 809.115C335.386 804.603 344.585 809.901 344.174 818.26L343.437 833.241C342.571 850.875 361.98 862.053 376.939 852.534Z" fill="white"/>
<path fill-rule="evenodd" clip-rule="evenodd" d="M1586.49 488.461C1579.7 478.464 1582.25 464.891 1592.18 458.143L1633.12 430.304L1639.71 439.987L1598.77 467.826C1596.55 469.326 1595.03 471.654 1594.53 474.298C1594.03 476.943 1594.61 479.687 1596.12 481.928C1600.75 488.75 1611.1 487.554 1613.98 479.865L1619.24 465.819C1625.48 449.14 1647.94 446.542 1657.99 461.341C1664.84 471.427 1662.27 485.118 1652.25 491.935L1610.77 520.138L1604.19 510.455L1645.67 482.252C1646.79 481.495 1647.74 480.522 1648.48 479.39C1649.22 478.258 1649.73 476.988 1649.98 475.653C1650.23 474.318 1650.22 472.944 1649.94 471.609C1649.66 470.274 1649.12 469.005 1648.36 467.875C1643.64 460.923 1633.09 462.141 1630.16 469.978L1624.9 484.024C1618.7 500.558 1596.45 503.129 1586.49 488.461Z" fill="white"/>
<path fill-rule="evenodd" clip-rule="evenodd" d="M712.792 427.148C706.611 416.765 709.96 403.367 720.279 397.223L762.804 371.873L768.799 381.932L726.273 407.282C723.972 408.647 722.312 410.88 721.659 413.49C721.007 416.1 721.415 418.874 722.793 421.201C727.011 428.287 737.411 427.71 740.745 420.205L746.833 406.498C754.059 390.221 776.626 388.966 785.777 404.337C792.013 414.814 788.632 428.327 778.226 434.535L735.144 460.216L729.149 450.158L772.231 424.476C773.393 423.787 774.407 422.874 775.214 421.788C776.021 420.701 776.605 419.464 776.934 418.146C777.264 416.829 777.331 415.456 777.132 414.107C776.933 412.759 776.472 411.46 775.776 410.285C771.477 403.065 760.878 403.652 757.481 411.301L751.392 425.008C744.225 441.143 721.861 442.384 712.792 427.148Z" fill="white"/>
<path fill-rule="evenodd" clip-rule="evenodd" d="M-18.536 416.532C-26.9802 425.176 -26.8659 438.985 -18.2757 447.378L17.1196 481.993L25.3059 473.621L-10.0893 439.006C-12.0069 437.139 -13.0967 434.579 -13.119 431.889C-13.1413 429.198 -12.0943 426.597 -10.2082 424.658C-4.44679 418.759 5.52831 421.759 7.00897 429.836L9.71285 444.589C12.9203 462.107 34.564 468.619 47.064 455.822C55.5836 447.1 55.4651 433.171 46.8057 424.695L10.947 389.627L2.76061 397.999L38.6193 433.068C39.5872 434.01 40.3581 435.136 40.8879 436.381C41.4176 437.626 41.6959 438.966 41.7069 440.324C41.7178 441.682 41.4612 443.032 40.9517 444.297C40.4421 445.561 39.6896 446.716 38.7371 447.694C32.865 453.706 22.6991 450.649 21.19 442.417L18.4862 427.664C15.3021 410.298 -6.14679 403.847 -18.536 416.532Z" fill="white"/>
<path fill-rule="evenodd" clip-rule="evenodd" d="M128.293 43.9589C119.849 52.6031 119.963 66.4123 128.553 74.8049L163.949 109.42L172.135 101.048L136.74 66.4327C134.822 64.5661 133.732 62.0061 133.71 59.3156C133.688 56.6251 134.735 54.0244 136.621 52.0855C142.382 46.1865 152.357 49.186 153.838 57.2628L156.542 72.0159C159.749 89.5336 181.393 96.0458 193.893 83.2489C202.413 74.5268 202.294 60.5978 193.635 52.1225L157.776 17.0542L149.59 25.4264L185.448 60.4947C186.416 61.437 187.187 62.5629 187.717 63.8079C188.247 65.053 188.525 66.3928 188.536 67.7511C188.547 69.1093 188.29 70.4592 187.781 71.7238C187.271 72.9884 186.519 74.1429 185.566 75.1213C179.694 81.1327 169.528 78.0757 168.019 69.844L165.315 55.0909C162.131 37.7253 140.682 31.2744 128.293 43.9589Z" fill="white"/>
<path fill-rule="evenodd" clip-rule="evenodd" d="M1500.72 514.347C1510.51 507.264 1512.74 493.636 1505.7 483.905L1476.71 443.778L1467.22 450.637L1496.21 490.765C1497.79 492.93 1498.42 495.638 1497.99 498.293C1497.55 500.948 1496.08 503.333 1493.89 504.923C1487.21 509.757 1477.89 505.106 1477.8 496.895L1477.65 481.897C1477.46 464.089 1457.24 453.993 1442.75 464.48C1432.87 471.627 1430.62 485.374 1437.71 495.197L1467.09 535.85L1476.58 528.99L1447.2 488.338C1446.41 487.245 1445.84 486.005 1445.53 484.688C1445.22 483.371 1445.17 482.003 1445.39 480.663C1445.61 479.322 1446.1 478.036 1446.81 476.876C1447.53 475.717 1448.47 474.707 1449.57 473.904C1456.38 468.978 1465.88 473.719 1465.97 482.087L1466.13 497.085C1466.31 514.739 1486.35 524.741 1500.72 514.347Z" fill="white"/>
<path fill-rule="evenodd" clip-rule="evenodd" d="M625.628 447.877C635.823 441.389 638.865 427.919 632.419 417.786L605.864 376.003L595.982 382.284L622.537 424.068C623.977 426.323 624.454 429.064 623.861 431.689C623.268 434.313 621.655 436.606 619.376 438.063C612.42 442.49 603.393 437.292 603.796 429.091L604.533 414.11C605.411 396.323 585.826 385.04 570.734 394.644C560.448 401.19 557.382 414.778 563.877 425.007L590.779 467.337L600.662 461.056L573.759 418.725C573.032 417.587 572.539 416.315 572.307 414.981C572.076 413.648 572.111 412.28 572.41 410.955C572.71 409.631 573.268 408.375 574.053 407.26C574.838 406.145 575.834 405.193 576.985 404.458C584.075 399.947 593.274 405.244 592.863 413.603L592.126 428.584C591.26 446.218 610.669 457.397 625.628 447.877Z" fill="white"/>
<path fill-rule="evenodd" clip-rule="evenodd" d="M1815.1 72.2614C1808.31 62.2649 1810.86 48.6917 1820.79 41.9436L1861.73 14.1046L1868.32 23.7879L1827.38 51.627C1825.16 53.1266 1823.64 55.4546 1823.14 58.0991C1822.65 60.7436 1823.22 63.488 1824.73 65.7289C1829.37 72.5506 1839.71 71.355 1842.59 63.6654L1847.85 49.6193C1854.1 32.9405 1876.55 30.3428 1886.6 45.1414C1893.45 55.2279 1890.88 68.9183 1880.86 75.7356L1839.39 103.939L1832.8 94.2556L1874.28 66.0523C1875.4 65.2952 1876.35 64.3228 1877.1 63.1905C1877.84 62.0582 1878.35 60.7883 1878.6 59.4533C1878.85 58.1182 1878.83 56.7442 1878.55 55.4097C1878.27 54.0751 1877.74 52.8061 1876.97 51.6752C1872.25 44.7234 1861.7 45.9418 1858.77 53.779L1853.51 67.825C1847.32 84.3583 1825.07 86.93 1815.1 72.2614Z" fill="white"/>
<path fill-rule="evenodd" clip-rule="evenodd" d="M965.801 25.3126C959.62 14.9293 962.969 1.53192 973.288 -4.61216L1015.81 -29.962L1021.81 -19.9035L979.283 5.44635C976.981 6.81117 975.321 9.04423 974.669 11.6545C974.016 14.2647 974.424 17.0384 975.803 19.3655C980.02 26.4512 990.42 25.8744 993.754 18.3701L999.842 4.66248C1007.07 -11.6146 1029.64 -12.8697 1038.79 2.50161C1045.02 12.9784 1041.64 26.4912 1031.24 32.6995L988.153 58.381L982.158 48.3225L1025.24 22.641C1026.4 21.952 1027.42 21.0383 1028.22 19.9522C1029.03 18.8661 1029.61 17.6288 1029.94 16.3111C1030.27 14.9933 1030.34 13.6208 1030.14 12.272C1029.94 10.9232 1029.48 9.62444 1028.79 8.44993C1024.49 1.22912 1013.89 1.81692 1010.49 9.46526L1004.4 23.1728C997.234 39.3076 974.871 40.5488 965.801 25.3126Z" fill="white"/>
<path fill-rule="evenodd" clip-rule="evenodd" d="M1427.67 45.1458C1437.46 38.0624 1439.7 24.4347 1432.66 14.7043L1403.66 -25.4229L1394.17 -18.5637L1423.17 21.5635C1424.74 23.7288 1425.38 26.4368 1424.94 29.0919C1424.51 31.7471 1423.04 34.132 1420.85 35.7221C1414.17 40.5562 1404.85 35.905 1404.76 27.6941L1404.6 12.6962C1404.42 -5.11186 1384.2 -15.2076 1369.7 -4.72129C1359.83 2.42607 1357.58 16.1726 1364.67 25.9963L1394.05 66.6485L1403.54 59.7894L1374.16 19.1371C1373.37 18.044 1372.8 16.8035 1372.49 15.4865C1372.18 14.1696 1372.13 12.8019 1372.35 11.4616C1372.57 10.1213 1373.05 8.83458 1373.77 7.67499C1374.49 6.5154 1375.42 5.50559 1376.53 4.70326C1383.34 -0.222724 1392.84 4.51747 1392.92 12.8859L1393.08 27.8839C1393.27 45.538 1413.31 55.5403 1427.67 45.1458Z" fill="white"/>
<path fill-rule="evenodd" clip-rule="evenodd" d="M570.521 1034.95C580.716 1028.46 583.758 1014.99 577.311 1004.86L550.757 963.073L540.875 969.355L567.429 1011.14C568.87 1013.39 569.346 1016.13 568.754 1018.76C568.161 1021.38 566.548 1023.68 564.269 1025.13C557.312 1029.56 548.286 1024.36 548.689 1016.16L549.426 1001.18C550.304 983.393 530.719 972.11 515.627 981.714C505.341 988.26 502.275 1001.85 508.77 1012.08L535.672 1054.41L545.554 1048.13L518.652 1005.8C517.925 1004.66 517.431 1003.39 517.2 1002.05C516.969 1000.72 517.004 999.351 517.303 998.026C517.603 996.701 518.161 995.446 518.946 994.331C519.731 993.216 520.727 992.264 521.878 991.529C528.967 987.017 538.167 992.315 537.756 1000.67L537.019 1015.65C536.153 1033.29 555.562 1044.47 570.521 1034.95Z" fill="white"/>
<path fill-rule="evenodd" clip-rule="evenodd" d="M1608.06 843.122C1618.94 848.385 1623.52 861.412 1618.3 872.223L1596.76 916.802L1586.22 911.708L1607.75 867.129C1608.92 864.722 1609.08 861.944 1608.18 859.406C1607.29 856.868 1605.42 854.777 1602.99 853.594C1595.57 850.003 1587.21 856.212 1588.56 864.311L1591.02 879.106C1593.96 896.672 1575.81 910.147 1559.71 902.357C1548.73 897.046 1544.11 883.905 1549.38 872.993L1571.2 827.83L1581.74 832.924L1559.92 878.087C1559.33 879.302 1558.99 880.623 1558.91 881.974C1558.84 883.325 1559.03 884.679 1559.48 885.96C1559.93 887.242 1560.63 888.424 1561.54 889.441C1562.45 890.457 1563.55 891.287 1564.78 891.884C1572.34 895.544 1580.87 889.216 1579.49 880.961L1577.02 866.166C1574.12 848.752 1592.1 835.4 1608.06 843.122Z" fill="white"/>
<path fill-rule="evenodd" clip-rule="evenodd" d="M713.189 782.465C723.734 788.366 727.532 801.644 721.668 812.124L697.515 855.34L687.294 849.627L711.447 806.41C712.758 804.077 713.079 801.314 712.339 798.727C711.599 796.14 709.859 793.942 707.501 792.616C700.306 788.588 691.588 794.288 692.453 802.454L694.034 817.369C695.915 835.078 676.999 847.449 661.388 838.712C650.749 832.757 646.921 819.364 652.828 808.785L677.298 765.003L687.519 770.716L663.049 814.498C662.387 815.676 661.967 816.974 661.811 818.318C661.655 819.662 661.767 821.026 662.141 822.332C662.515 823.638 663.143 824.86 663.99 825.928C664.836 826.997 665.885 827.891 667.075 828.56C674.408 832.664 683.294 826.856 682.412 818.533L680.83 803.618C678.97 786.061 697.717 773.805 713.189 782.465Z" fill="white"/>
<path fill-rule="evenodd" clip-rule="evenodd" d="M65.1732 71.2159C76.8082 67.9518 83.6139 55.9356 80.3708 44.3723L67.0252 -3.3031L55.7495 -0.145741L69.095 47.5297C69.8224 50.105 69.4862 52.8669 68.1603 55.2081C66.8343 57.5493 64.6272 59.278 62.0244 60.0141C54.0854 62.2421 46.9465 54.6569 49.7026 46.9218L54.7375 32.7934C60.7186 16.0189 45.2307 -0.442684 28.0069 4.3897C16.2677 7.68351 9.40576 19.8056 12.6674 31.4752L26.1878 79.7745L37.4635 76.6172L23.9432 28.3178C23.5761 27.0177 23.4714 25.6573 23.6351 24.3142C23.7988 22.971 24.2278 21.6715 24.8974 20.4898C25.567 19.3081 26.4642 18.2673 27.5378 17.427C28.6114 16.5866 29.8403 15.963 31.1544 15.5919C39.2455 13.3219 46.521 21.0523 43.712 28.9357L38.6771 43.0642C32.7517 59.6953 48.1016 76.0064 65.1732 71.2159Z" fill="white"/>
<path fill-rule="evenodd" clip-rule="evenodd" d="M1359.54 840.413C1347.52 841.653 1338.77 852.337 1340 864.284L1345.05 913.533L1356.7 912.338L1351.65 863.088C1351.37 860.427 1352.17 857.762 1353.88 855.681C1355.58 853.599 1358.05 852.27 1360.74 851.987C1368.94 851.141 1374.69 859.829 1370.66 866.983L1363.29 880.05C1354.55 895.564 1367.01 914.419 1384.81 912.584C1396.94 911.333 1405.76 900.553 1404.53 888.499L1399.41 838.605L1387.76 839.8L1392.88 889.694C1393.02 891.038 1392.89 892.396 1392.5 893.692C1392.11 894.988 1391.47 896.196 1390.61 897.246C1389.75 898.297 1388.69 899.17 1387.49 899.816C1386.29 900.462 1384.97 900.867 1383.61 901.01C1375.25 901.871 1369.4 893.017 1373.5 885.726L1380.87 872.658C1389.53 857.276 1377.18 838.594 1359.54 840.413Z" fill="white"/>
<path fill-rule="evenodd" clip-rule="evenodd" d="M465.27 764.95C453.197 765.471 443.827 775.615 444.344 787.614L446.449 837.077L458.148 836.578L456.043 787.115C455.923 784.442 456.881 781.829 458.706 779.853C460.532 777.876 463.075 776.697 465.778 776.575C474.016 776.219 479.234 785.234 474.784 792.135L466.655 804.741C457.001 819.706 468.321 839.269 486.193 838.498C498.374 837.972 507.823 827.738 507.313 815.632L505.18 765.521L493.481 766.02L495.614 816.131C495.674 817.48 495.466 818.828 494.999 820.099C494.533 821.369 493.819 822.536 492.897 823.534C491.975 824.531 490.864 825.34 489.627 825.913C488.39 826.486 487.051 826.812 485.687 826.873C477.291 827.235 471.973 818.048 476.509 811.014L484.637 798.409C494.204 783.571 482.985 764.185 465.27 764.95Z" fill="white"/>
<path fill-rule="evenodd" clip-rule="evenodd" d="M410.637 1031.05C398.564 1031.57 389.194 1041.72 389.711 1053.71L391.816 1103.18L403.515 1102.68L401.41 1053.22C401.29 1050.54 402.248 1047.93 404.073 1045.95C405.899 1043.98 408.443 1042.8 411.145 1042.68C419.383 1042.32 424.601 1051.34 420.151 1058.24L412.023 1070.84C402.369 1085.81 413.688 1105.37 431.56 1104.6C443.741 1104.07 453.19 1093.84 452.68 1081.73L450.547 1031.62L438.848 1032.12L440.981 1082.23C441.041 1083.58 440.833 1084.93 440.367 1086.2C439.9 1087.47 439.186 1088.64 438.264 1089.63C437.342 1090.63 436.231 1091.44 434.994 1092.01C433.757 1092.59 432.418 1092.91 431.054 1092.97C422.658 1093.34 417.341 1084.15 421.876 1077.12L430.004 1064.51C439.571 1049.67 428.352 1030.29 410.637 1031.05Z" fill="white"/>
<path fill-rule="evenodd" clip-rule="evenodd" d="M1808.53 764.356C1796.51 765.595 1787.77 776.28 1789 788.226L1794.05 837.476L1805.69 836.281L1800.64 787.031C1800.37 784.369 1801.17 781.705 1802.87 779.623C1804.58 777.541 1807.04 776.213 1809.73 775.93C1817.94 775.083 1823.68 783.771 1819.65 790.926L1812.29 803.993C1803.54 819.507 1816.01 838.361 1833.8 836.526C1845.93 835.275 1854.75 824.496 1853.52 812.442L1848.41 762.547L1836.76 763.742L1841.87 813.637C1842.02 814.98 1841.89 816.339 1841.5 817.634C1841.11 818.93 1840.46 820.138 1839.6 821.189C1838.74 822.239 1837.68 823.113 1836.48 823.758C1835.28 824.404 1833.96 824.81 1832.61 824.952C1824.25 825.814 1818.39 816.959 1822.5 809.668L1829.86 796.601C1838.53 781.219 1826.17 762.536 1808.53 764.356Z" fill="white"/>
<path fill-rule="evenodd" clip-rule="evenodd" d="M917.998 715.785C905.925 716.306 896.555 726.45 897.072 738.449L899.177 787.912L910.876 787.413L908.771 737.95C908.651 735.277 909.609 732.664 911.434 730.688C913.26 728.711 915.803 727.532 918.506 727.41C926.744 727.054 931.962 736.069 927.512 742.97L919.383 755.576C909.729 770.541 921.049 790.104 938.921 789.333C951.102 788.807 960.551 778.573 960.041 766.467L957.908 716.356L946.209 716.855L948.342 766.966C948.402 768.315 948.193 769.664 947.727 770.934C947.261 772.204 946.547 773.371 945.625 774.369C944.703 775.366 943.592 776.175 942.355 776.748C941.118 777.321 939.779 777.647 938.415 777.708C930.019 778.07 924.701 768.883 929.237 761.849L937.365 749.244C946.932 734.406 935.713 715.02 917.998 715.785Z" fill="white"/>
<path fill-rule="evenodd" clip-rule="evenodd" d="M248.634 184.065C237.02 180.727 230.29 168.668 233.606 157.126L247.252 109.535L258.507 112.764L244.862 160.354C244.118 162.925 244.437 165.689 245.748 168.038C247.059 170.388 249.256 172.13 251.854 172.883C259.779 175.161 266.965 167.621 264.258 159.869L259.312 145.709C253.437 128.897 269.028 112.533 286.221 117.474C297.939 120.842 304.725 133.007 301.39 144.655L287.565 192.869L276.31 189.64L290.134 141.427C290.509 140.129 290.622 138.77 290.467 137.426C290.312 136.081 289.891 134.779 289.229 133.593C288.567 132.407 287.676 131.361 286.608 130.514C285.54 129.667 284.315 129.035 283.003 128.656C274.926 126.335 267.602 134.02 270.362 141.921L275.307 156.08C281.128 172.748 265.676 188.963 248.634 184.065Z" fill="white"/>
<path fill-rule="evenodd" clip-rule="evenodd" d="M1833.03 322.46C1843.91 327.723 1848.49 340.75 1843.26 351.561L1821.73 396.14L1811.19 391.046L1832.72 346.467C1833.89 344.06 1834.05 341.282 1833.15 338.744C1832.26 336.206 1830.39 334.116 1827.96 332.932C1820.54 329.341 1812.17 335.55 1813.53 343.649L1815.99 358.444C1818.93 376.01 1800.78 389.486 1784.68 381.695C1773.7 376.385 1769.08 363.243 1774.35 352.331L1796.17 307.168L1806.71 312.263L1784.89 357.425C1784.3 358.64 1783.96 359.961 1783.88 361.312C1783.81 362.663 1784 364.017 1784.45 365.299C1784.9 366.58 1785.6 367.762 1786.51 368.779C1787.42 369.795 1788.52 370.625 1789.75 371.222C1797.31 374.882 1805.84 368.554 1804.46 360.299L1801.99 345.505C1799.09 328.09 1817.07 314.738 1833.03 322.46Z" fill="white"/>
<path fill-rule="evenodd" clip-rule="evenodd" d="M968.789 276.135C979.334 282.037 983.132 295.314 977.267 305.794L953.114 349.011L942.893 343.297L967.047 300.081C968.358 297.748 968.678 294.984 967.938 292.397C967.199 289.81 965.458 287.612 963.101 286.286C955.906 282.259 947.187 287.958 948.052 296.124L949.634 311.039C951.514 328.749 932.598 341.119 916.988 332.383C906.348 326.428 902.52 313.035 908.428 302.455L932.897 258.673L943.118 264.387L918.648 308.169C917.987 309.346 917.566 310.644 917.41 311.989C917.254 313.333 917.367 314.696 917.74 316.002C918.114 317.308 918.742 318.53 919.589 319.599C920.436 320.668 921.484 321.562 922.674 322.231C930.008 326.335 938.893 320.526 938.011 312.204L936.43 297.289C934.57 279.732 953.316 267.475 968.789 276.135Z" fill="white"/>
<path fill-rule="evenodd" clip-rule="evenodd" d="M194.909 623.365C206.544 620.101 213.35 608.085 210.107 596.522L196.761 548.846L185.485 552.004L198.831 599.679C199.558 602.254 199.222 605.016 197.896 607.358C196.57 609.699 194.363 611.427 191.76 612.164C183.821 614.392 176.682 606.806 179.438 599.071L184.473 584.943C190.454 568.168 174.966 551.707 157.743 556.539C146.003 559.833 139.142 571.955 142.403 583.625L155.924 631.924L167.199 628.767L153.679 580.467C153.312 579.167 153.207 577.807 153.371 576.464C153.535 575.121 153.964 573.821 154.633 572.639C155.303 571.458 156.2 570.417 157.274 569.576C158.347 568.736 159.576 568.112 160.89 567.741C168.981 565.471 176.257 573.202 173.448 581.085L168.413 595.214C162.488 611.845 177.837 628.156 194.909 623.365Z" fill="white"/>
<path fill-rule="evenodd" clip-rule="evenodd" d="M-14.7572 604.911C-3.12228 601.647 3.68342 589.631 0.440333 578.067L-12.9052 530.392L-24.1809 533.549L-10.8354 581.225C-10.108 583.8 -10.4442 586.562 -11.7702 588.903C-13.0961 591.244 -15.3032 592.973 -17.906 593.709C-25.8451 595.937 -32.984 588.352 -30.2279 580.617L-25.193 566.488C-19.2119 549.714 -34.6998 533.252 -51.9235 538.085C-63.6628 541.379 -70.5247 553.501 -67.263 565.17L-53.7426 613.47L-42.4669 610.312L-55.9873 562.013C-56.3544 560.713 -56.4591 559.352 -56.2953 558.009C-56.1316 556.666 -55.7027 555.367 -55.0331 554.185C-54.3634 553.003 -53.4662 551.962 -52.3927 551.122C-51.3191 550.282 -50.0901 549.658 -48.776 549.287C-40.6849 547.017 -33.4095 554.747 -36.2185 562.631L-41.2534 576.759C-47.1787 593.39 -31.8289 609.701 -14.7572 604.911Z" fill="white"/>
<path fill-rule="evenodd" clip-rule="evenodd" d="M1325.53 274.248C1313.51 275.487 1304.76 286.172 1305.99 298.118L1311.04 347.368L1322.69 346.173L1317.64 296.923C1317.36 294.261 1318.16 291.597 1319.86 289.515C1321.57 287.433 1324.04 286.105 1326.73 285.821C1334.93 284.975 1340.68 293.663 1336.65 300.817L1329.28 313.885C1320.54 329.399 1333 348.253 1350.8 346.418C1362.93 345.167 1371.75 334.388 1370.52 322.333L1365.4 272.439L1353.75 273.634L1358.87 323.529C1359.01 324.872 1358.88 326.231 1358.49 327.526C1358.1 328.822 1357.46 330.03 1356.6 331.081C1355.74 332.131 1354.68 333.004 1353.48 333.65C1352.27 334.296 1350.96 334.701 1349.6 334.844C1341.24 335.706 1335.38 326.851 1339.49 319.56L1346.86 306.493C1355.52 291.111 1343.17 272.428 1325.53 274.248Z" fill="white"/>
<path fill-rule="evenodd" clip-rule="evenodd" d="M465.059 197.764C452.986 198.284 443.616 208.429 444.133 220.427L446.238 269.891L457.937 269.392L455.832 219.928C455.712 217.255 456.67 214.643 458.495 212.666C460.321 210.69 462.864 209.511 465.567 209.389C473.805 209.033 479.023 218.048 474.573 224.949L466.444 237.554C456.791 252.519 468.11 272.083 485.982 271.312C498.163 270.786 507.612 260.551 507.102 248.445L504.969 198.335L493.27 198.833L495.403 248.944C495.463 250.294 495.255 251.642 494.788 252.912C494.322 254.183 493.608 255.35 492.686 256.347C491.764 257.345 490.653 258.153 489.416 258.726C488.179 259.299 486.84 259.626 485.476 259.687C477.08 260.049 471.762 250.861 476.298 243.828L484.426 231.223C493.993 216.384 482.774 196.999 465.059 197.764Z" fill="white"/>
<path fill-rule="evenodd" clip-rule="evenodd" d="M1700.96 584.301C1711.84 589.564 1716.42 602.591 1711.19 613.402L1689.65 657.981L1679.11 652.887L1700.65 608.308C1701.82 605.901 1701.97 603.123 1701.08 600.585C1700.19 598.047 1698.32 595.957 1695.89 594.773C1688.46 591.182 1680.1 597.391 1681.45 605.49L1683.92 620.285C1686.85 637.851 1668.7 651.327 1652.6 643.536C1641.63 638.226 1637.01 625.084 1642.27 614.172L1664.09 569.009L1674.63 574.104L1652.82 619.266C1652.23 620.481 1651.88 621.802 1651.81 623.153C1651.73 624.504 1651.93 625.858 1652.38 627.14C1652.83 628.421 1653.53 629.603 1654.44 630.62C1655.35 631.636 1656.44 632.466 1657.67 633.063C1665.24 636.723 1673.76 630.395 1672.38 622.14L1669.92 607.346C1667.01 589.931 1685 576.579 1700.96 584.301Z" fill="white"/>
<path fill-rule="evenodd" clip-rule="evenodd" d="M821.343 529.64C831.888 535.541 835.687 548.819 829.822 559.299L805.669 602.515L795.448 596.802L819.601 553.585C820.912 551.252 821.233 548.489 820.493 545.902C819.753 543.315 818.013 541.117 815.656 539.791C808.46 535.763 799.742 541.463 800.607 549.629L802.188 564.544C804.069 582.253 785.153 594.624 769.543 585.887C758.903 579.932 755.075 566.539 760.982 555.96L785.452 512.178L795.673 517.891L771.203 561.673C770.542 562.851 770.121 564.149 769.965 565.493C769.809 566.837 769.921 568.201 770.295 569.507C770.669 570.813 771.297 572.035 772.144 573.103C772.99 574.172 774.039 575.066 775.229 575.735C782.562 579.839 791.448 574.031 790.566 565.708L788.984 550.793C787.124 533.236 805.871 520.98 821.343 529.64Z" fill="white"/>
<path fill-rule="evenodd" clip-rule="evenodd" d="M111.023 342.353C122.658 339.089 129.463 327.073 126.22 315.51L112.875 267.834L101.599 270.992L114.944 318.667C115.672 321.242 115.336 324.004 114.01 326.346C112.684 328.687 110.477 330.415 107.874 331.152C99.9347 333.38 92.7958 325.794 95.5519 318.059L100.587 303.931C106.568 287.156 91.08 270.695 73.8563 275.527C62.117 278.821 55.2551 290.943 58.5168 302.613L72.0372 350.912L83.3129 347.755L69.7925 299.455C69.4254 298.155 69.3207 296.795 69.4845 295.452C69.6482 294.109 70.0771 292.809 70.7467 291.627C71.4164 290.446 72.3136 289.405 73.3871 288.564C74.4607 287.724 75.6897 287.1 77.0038 286.729C85.0949 284.459 92.3703 292.19 89.5613 300.073L84.5264 314.202C78.6011 330.833 93.9509 347.144 111.023 342.353Z" fill="white"/>
<path fill-rule="evenodd" clip-rule="evenodd" d="M131.67 1018.75C143.305 1015.49 150.11 1003.47 146.867 991.911L133.522 944.235L122.246 947.393L135.592 995.068C136.319 997.643 135.983 1000.41 134.657 1002.75C133.331 1005.09 131.124 1006.82 128.521 1007.55C120.582 1009.78 113.443 1002.2 116.199 994.46L121.234 980.332C127.215 963.557 111.727 947.096 94.5035 951.928C82.7642 955.222 75.9023 967.344 79.164 979.014L92.6844 1027.31L103.96 1024.16L90.4397 975.856C90.0726 974.556 89.9679 973.196 90.1317 971.853C90.2954 970.51 90.7243 969.21 91.3939 968.028C92.0636 966.847 92.9607 965.806 94.0343 964.965C95.1079 964.125 96.3369 963.501 97.6509 963.13C105.742 960.86 113.018 968.591 110.209 976.474L105.174 990.603C99.2483 1007.23 114.598 1023.54 131.67 1018.75Z" fill="white"/>
<path fill-rule="evenodd" clip-rule="evenodd" d="M1360.44 565.428C1348.42 566.667 1339.67 577.352 1340.9 589.298L1345.95 638.548L1357.6 637.353L1352.55 588.103C1352.27 585.442 1353.07 582.777 1354.77 580.695C1356.48 578.614 1358.95 577.285 1361.64 577.002C1369.84 576.156 1375.58 584.844 1371.55 591.998L1364.19 605.065C1355.45 620.579 1367.91 639.433 1385.71 637.598C1397.83 636.348 1406.66 625.568 1405.42 613.514L1400.31 563.619L1388.66 564.815L1393.78 614.709C1393.92 616.053 1393.79 617.411 1393.4 618.707C1393.01 620.003 1392.37 621.21 1391.51 622.261C1390.65 623.312 1389.58 624.185 1388.38 624.831C1387.18 625.476 1385.87 625.882 1384.51 626.024C1376.15 626.886 1370.29 618.032 1374.4 610.74L1381.76 597.673C1390.43 582.291 1378.07 563.609 1360.44 565.428Z" fill="white"/>
<path fill-rule="evenodd" clip-rule="evenodd" d="M482.552 490.507C470.479 491.028 461.109 501.172 461.626 513.17L463.731 562.634L475.43 562.135L473.325 512.671C473.205 509.998 474.163 507.386 475.988 505.409C477.814 503.433 480.358 502.254 483.06 502.132C491.298 501.776 496.516 510.791 492.066 517.692L483.938 530.297C474.284 545.263 485.603 564.826 503.475 564.055C515.656 563.529 525.105 553.294 524.595 541.188L522.462 491.078L510.763 491.576L512.896 541.687C512.957 543.037 512.748 544.385 512.282 545.655C511.815 546.926 511.101 548.093 510.179 549.09C509.257 550.088 508.146 550.896 506.909 551.469C505.672 552.042 504.333 552.369 502.969 552.43C494.573 552.792 489.256 543.604 493.791 536.571L501.919 523.966C511.486 509.127 500.267 489.742 482.552 490.507Z" fill="white"/>
<path fill-rule="evenodd" clip-rule="evenodd" d="M1774.69 90.4288C1785.57 95.6914 1790.15 108.719 1784.92 119.53L1763.38 164.109L1752.84 159.015L1774.38 114.435C1775.54 112.029 1775.7 109.251 1774.81 106.712C1773.91 104.174 1772.05 102.084 1769.61 100.901C1762.19 97.3091 1753.83 103.518 1755.18 111.618L1757.65 126.412C1760.58 143.978 1742.43 157.454 1726.33 149.663C1715.36 144.353 1710.74 131.212 1716 120.299L1737.82 75.1366L1748.36 80.2308L1726.55 125.393C1725.95 126.608 1725.61 127.929 1725.54 129.28C1725.46 130.631 1725.65 131.986 1726.11 133.267C1726.56 134.548 1727.26 135.731 1728.17 136.747C1729.07 137.763 1730.17 138.594 1731.4 139.19C1738.97 142.85 1747.49 136.522 1746.11 128.267L1743.65 113.473C1740.74 96.0581 1758.73 82.706 1774.69 90.4288Z" fill="white"/>
<path fill-rule="evenodd" clip-rule="evenodd" d="M924.375 41.039C934.92 46.9405 938.718 60.2176 932.854 70.6979L908.7 113.914L898.479 108.201L922.633 64.9844C923.944 62.6515 924.264 59.8878 923.525 57.3009C922.785 54.7141 921.044 52.516 918.687 51.19C911.492 47.1624 902.773 52.862 903.638 61.0277L905.22 75.9429C907.1 93.6523 888.184 106.023 872.574 97.2862C861.934 91.3313 858.106 77.9381 864.014 67.3588L888.483 23.5768L898.704 29.2903L874.235 73.0723C873.573 74.25 873.152 75.548 872.996 76.8921C872.84 78.2362 872.953 79.6 873.326 80.9058C873.7 82.2116 874.328 83.4337 875.175 84.5024C876.022 85.5712 877.07 86.4655 878.26 87.1344C885.594 91.2385 894.479 85.4298 893.597 77.1075L892.016 62.1923C890.156 44.6354 908.902 32.3787 924.375 41.039Z" fill="white"/>
<path fill-rule="evenodd" clip-rule="evenodd" d="M96.6022 841.491C108.237 838.227 115.043 826.21 111.8 814.647L98.4542 766.972L87.1784 770.129L100.524 817.805C101.251 820.38 100.915 823.142 99.5892 825.483C98.2633 827.824 96.0562 829.553 93.4533 830.289C85.5143 832.517 78.3754 824.932 81.1315 817.197L86.1664 803.068C92.1475 786.294 76.6596 769.832 59.4358 774.665C47.6966 777.958 40.8347 790.081 44.0963 801.75L57.6167 850.049L68.8925 846.892L55.3721 798.593C55.005 797.293 54.9003 795.932 55.064 794.589C55.2278 793.246 55.6567 791.946 56.3263 790.765C56.9959 789.583 57.8931 788.542 58.9667 787.702C60.0403 786.861 61.2692 786.238 62.5833 785.867C70.6745 783.597 77.9499 791.327 75.1409 799.211L70.106 813.339C64.1807 829.97 79.5305 846.281 96.6022 841.491Z" fill="white"/>
<path fill-rule="evenodd" clip-rule="evenodd" d="M358.757 477.097C370.392 473.833 377.197 461.817 373.954 450.254L360.609 402.578L349.333 405.736L362.678 453.411C363.406 455.986 363.07 458.748 361.744 461.089C360.418 463.431 358.211 465.159 355.608 465.895C347.669 468.124 340.53 460.538 343.286 452.803L348.321 438.675C354.302 421.9 338.814 405.439 321.59 410.271C309.851 413.565 302.989 425.687 306.251 437.357L319.771 485.656L331.047 482.499L317.527 434.199C317.16 432.899 317.055 431.539 317.219 430.196C317.382 428.852 317.811 427.553 318.481 426.371C319.15 425.189 320.048 424.149 321.121 423.308C322.195 422.468 323.424 421.844 324.738 421.473C332.829 419.203 340.104 426.934 337.295 434.817L332.261 448.946C326.335 465.577 341.685 481.888 358.757 477.097Z" fill="white"/>
<path fill-rule="evenodd" clip-rule="evenodd" d="M1459.48 76.0025C1447.46 77.2417 1438.71 87.9266 1439.94 99.8728L1444.99 149.123L1456.64 147.928L1451.59 98.6777C1451.31 96.0162 1452.11 93.3516 1453.81 91.2698C1455.52 89.188 1457.99 87.8595 1460.68 87.5765C1468.88 86.7301 1474.62 95.4183 1470.59 102.572L1463.23 115.64C1454.49 131.154 1466.95 150.008 1484.74 148.173C1496.87 146.922 1505.7 136.143 1504.46 124.088L1499.35 74.1939L1487.7 75.389L1492.82 125.284C1492.96 126.627 1492.83 127.986 1492.44 129.281C1492.05 130.577 1491.41 131.785 1490.55 132.835C1489.68 133.886 1488.62 134.759 1487.42 135.405C1486.22 136.051 1484.91 136.456 1483.55 136.599C1475.19 137.461 1469.33 128.606 1473.44 121.315L1480.8 108.248C1489.47 92.8655 1477.11 74.183 1459.48 76.0025Z" fill="white"/>
<path fill-rule="evenodd" clip-rule="evenodd" d="M610.583 7.85343C598.51 8.37412 589.14 18.5186 589.657 30.5169L591.762 79.9802L603.461 79.4813L601.356 30.0181C601.236 27.3447 602.194 24.7326 604.019 22.756C605.845 20.7795 608.388 19.6005 611.091 19.4783C619.329 19.1222 624.547 28.1374 620.097 35.0386L611.968 47.6438C602.314 62.6091 613.634 82.1727 631.506 81.4015C643.687 80.8756 653.136 70.641 652.626 58.5349L650.493 8.42427L638.794 8.92308L640.927 59.0338C640.987 60.3833 640.779 61.7317 640.312 63.0019C639.846 64.2722 639.132 65.4394 638.21 66.437C637.288 67.4345 636.177 68.2429 634.94 68.8159C633.703 69.3889 632.364 69.7153 631 69.7765C622.604 70.1387 617.286 60.9511 621.822 53.9175L629.95 41.3122C639.517 26.4738 628.298 7.08828 610.583 7.85343Z" fill="white"/>
</g>
</svg>
