<svg width="254" height="80" viewBox="0 0 254 80" fill="none" xmlns="http://www.w3.org/2000/svg">
<path d="M0 0.249268L253.444 0.249273L253.444 79.7508L-1.73756e-06 79.7508L0 0.249268Z" fill="#BF512B"/>
<path fill-rule="evenodd" clip-rule="evenodd" d="M8.87113 32.7197C8.87108 23.1344 16.6415 15.3639 26.2269 15.3639L237.571 15.3639L237.571 24.1677L26.2269 24.1677C21.5038 24.1677 17.675 27.9966 17.675 32.7197C17.675 37.6464 21.827 41.5541 26.7447 41.2558L223.725 29.3069C233.619 28.7068 241.973 36.5688 241.973 46.4807C241.973 55.983 234.27 63.6862 224.767 63.6862L13.2731 63.6862L13.2731 54.8823L224.767 54.8823C229.407 54.8823 233.169 51.1208 233.169 46.4807C233.169 41.6407 229.09 37.8016 224.259 38.0946L27.2778 50.0435C17.2976 50.649 8.87119 42.7183 8.87113 32.7197Z" fill="black"/>
</svg>
