<svg width="150" height="50" viewBox="0 0 150 50" fill="none" xmlns="http://www.w3.org/2000/svg">
<path d="M148 0H2C0.895431 0 0 0.895432 0 2V48C0 49.1046 0.895429 50 2 50H148C149.105 50 150 49.1046 150 48V2C150 0.89543 149.105 0 148 0Z" fill="#D2ECFF"/>
<path d="M91.8679 14.5499C96.6457 14.5499 100.539 18.9843 100.539 24.3399C100.539 29.6956 96.6457 34.0147 91.8679 34.0147C89.3317 34.0147 87.4142 32.8014 86.2051 30.878V33.1558H82.8716V8.79388H86.2043V17.7994C87.4162 15.8489 89.3317 14.5499 91.8679 14.5499ZM91.8679 30.7596C94.8179 30.7596 97.2058 27.8898 97.2058 24.3399C97.2058 20.79 94.8167 17.8474 91.8679 17.8474C88.9191 17.8474 86.2051 20.7892 86.2051 24.3399C86.2051 27.8906 88.9187 30.7604 91.8679 30.7604V30.7596Z" fill="black"/>
<path d="M72.1491 34.0155C75.7792 33.9983 78.502 32.291 79.9626 29.7968L77.2961 28.0802C76.2257 29.7792 74.3983 30.834 72.1336 30.844C68.8276 30.8592 66.8056 28.7787 66.3591 25.5L80.6977 25.4324L80.7619 23.7015C80.919 18.7983 77.5927 14.5239 71.9857 14.5499C66.8108 14.5743 62.7677 18.4146 62.7948 24.2183C62.8219 29.9864 66.6143 34.0419 72.1491 34.0155ZM66.4169 22.4702C66.9786 19.6195 68.9097 17.6274 72.0004 17.613C75.019 17.5986 77.1852 19.7516 77.2698 22.4186L66.4169 22.4694V22.4702Z" fill="black"/>
<path d="M61.8801 15.5224V18.8623L48.0251 29.8168H61.2821V33.155H43.4099V30.3508H43.4151L43.4099 30.3444V29.6468L56.8727 18.8623H44.0067V15.5224H61.8801Z" fill="black"/>
<path d="M40.9749 15.5232H37.6426V33.1558H40.9749V15.5232Z" fill="black"/>
<path d="M39.236 14.0675C40.4386 14.0675 41.4134 13.0893 41.4134 11.8825C41.4134 10.6758 40.4386 9.69756 39.236 9.69756C38.0335 9.69756 37.0586 10.6758 37.0586 11.8825C37.0586 13.0893 38.0335 14.0675 39.236 14.0675Z" fill="black"/>
<path d="M110.19 14.5472C106.846 14.5472 103.966 15.9633 102.674 18.1575L105.521 19.9336C106.109 18.9019 107.793 17.8902 110.19 17.8902C112.815 17.8902 114.938 19.9908 114.938 22.5346V23.4811C113.965 22.0009 112.313 21.0545 109.806 21.0545C105.411 21.0545 101.843 23.9539 101.843 27.535C101.843 31.1161 105.411 34.0155 109.806 34.0155C112.313 34.0155 113.965 32.3578 114.938 30.8789V33.1566H118.271V22.5354C118.271 18.127 114.643 14.5472 110.19 14.5472ZM109.835 31.3213C107.181 31.3213 105.118 29.6052 105.118 27.5346C105.118 25.464 107.21 23.7775 109.835 23.7775C112.46 23.7775 114.472 25.434 114.472 27.5346C114.472 29.6352 112.46 31.3205 109.835 31.3205V31.3213Z" fill="black"/>
<path fill-rule="evenodd" clip-rule="evenodd" d="M14.0848 21.8337C14.0708 18.4015 16.843 15.6072 20.2782 15.5912L34.441 15.5248L34.4569 18.8503L20.2937 18.9167C19.5283 18.9188 18.795 19.2258 18.2551 19.7701C17.7151 20.3145 17.4125 21.0517 17.4139 21.8197C17.4235 24.1615 20.0705 25.5208 21.9824 24.1659L25.4742 21.6909C29.6201 18.7515 35.3635 21.7001 35.3846 26.7805C35.3989 30.2432 32.602 33.061 29.1362 33.0786L14.7876 33.1458L14.772 29.8204L29.1206 29.7532C29.507 29.7522 29.8895 29.6749 30.2462 29.5256C30.6028 29.3763 30.9267 29.158 31.1993 28.8831C31.4718 28.6082 31.6878 28.2822 31.8347 27.9235C31.9817 27.5649 32.0569 27.1807 32.0559 26.7929C32.0463 24.4063 29.3486 23.021 27.4 24.4019L23.9079 26.8801C19.797 29.792 14.1051 26.8689 14.0848 21.8337Z" fill="black"/>
<path fill-rule="evenodd" clip-rule="evenodd" d="M100.469 24.4123C100.469 19.0475 96.6208 14.6057 91.8999 14.6057C89.3938 14.6057 87.4994 15.915 86.3019 17.8609V8.84146H83.0087V33.2419H86.3034V30.9605C87.4977 32.8868 89.3938 34.1028 91.8999 34.1028C96.6208 34.1028 100.469 29.7772 100.469 24.4123ZM97.1745 24.4123C97.1745 27.9671 94.8149 30.8427 91.8999 30.8427C88.985 30.8427 86.3034 27.9687 86.3034 24.4123C86.3034 20.8559 88.985 17.9084 91.8999 17.9084C94.8149 17.9084 97.1745 20.8559 97.1745 24.4123ZM122.155 15.5745C122.155 15.5745 125.629 26.0064 126.33 27.9835C126.953 29.7396 128.247 29.99 129.067 30.1471C129.17 30.1667 129.265 30.1847 129.35 30.2044L134.082 15.5745H137.58C137.58 15.5745 131.272 35.2615 130.658 37.1208C129.474 40.6722 126.359 41.2663 123.626 41.2663H120.121V37.8949H123.349C124.357 37.8949 126.939 37.7819 127.599 35.7673C127.921 34.7967 128.337 33.5251 128.337 33.5251C126.317 33.1978 124.36 32.1503 123.523 30.0342C122.397 27.2044 118.695 15.5795 118.695 15.5795L122.155 15.5745ZM79.812 29.8705C78.3634 32.3696 75.6786 34.0799 72.0861 34.0963C66.6135 34.1225 62.868 30.0603 62.8407 24.2765C62.8149 18.4632 66.8099 14.6204 71.9251 14.5926C77.4652 14.5664 80.7537 18.8478 80.5975 23.7577L80.5347 25.4909L66.3705 25.5596C66.8115 28.8427 68.8106 30.9278 72.0765 30.9114C74.3154 30.9016 76.1213 29.8459 77.1788 28.1439L79.812 29.8705ZM66.4268 22.5318C66.9821 19.6776 68.8895 17.6825 71.9444 17.6678C74.927 17.6531 77.0677 19.8101 77.1514 22.4811L66.4268 22.5318ZM61.7816 15.5729V18.9182L48.089 29.8836H61.3518V33.2272H43.5274V30.4319V29.7281L56.8322 18.9264H43.9556V15.5795L61.7816 15.5729ZM41.2306 11.938C41.2302 12.5182 41.0033 13.0745 40.5998 13.4848C40.1963 13.895 39.6492 14.1257 39.0786 14.1261C38.508 14.1257 37.9608 13.895 37.5573 13.4848C37.1538 13.0745 36.927 12.5182 36.9265 11.938C36.9265 11.3576 37.1533 10.801 37.5569 10.3907C37.9604 9.98032 38.5078 9.74979 39.0786 9.74979C39.3612 9.74979 39.641 9.80638 39.9021 9.91635C40.1632 10.0263 40.4004 10.1875 40.6003 10.3907C40.8001 10.5939 40.9586 10.8351 41.0668 11.1006C41.1749 11.3661 41.2306 11.6506 41.2306 11.938ZM37.5044 15.5844H40.7976V33.2419H37.5044V15.5844ZM110.169 14.6024C106.864 14.6024 104.017 16.0197 102.74 18.2177L105.554 19.9967C106.135 18.964 107.807 17.9509 110.169 17.9509C112.762 17.9509 114.86 20.054 114.86 22.6022V23.558C113.895 22.0752 112.267 21.1276 109.789 21.1276C105.443 21.1276 101.92 24.0326 101.92 27.6185C101.92 31.2043 105.446 34.1094 109.789 34.1094C112.267 34.1094 113.9 32.4498 114.86 30.9687V33.2501H118.155V22.612C118.155 18.1882 114.569 14.604 110.169 14.604V14.6024ZM109.818 31.4024C107.194 31.4024 105.15 29.6839 105.15 27.6103C105.15 25.5367 107.217 23.8461 109.818 23.8461C112.419 23.8461 114.4 25.504 114.4 27.6103C114.4 29.7167 112.412 31.4024 109.818 31.4024ZM20.1822 15.6482C18.5559 15.653 16.998 16.3142 15.851 17.4866C14.7041 18.659 14.062 20.2465 14.0658 21.9001C14.0851 26.9426 19.7106 29.8705 23.7732 26.954L27.2241 24.4729C29.1556 23.0899 31.8162 24.4729 31.8258 26.8673C31.8267 27.2557 31.7523 27.6406 31.6069 27.9998C31.4616 28.3588 31.2483 28.6852 30.9792 28.9605C30.71 29.2398 30.3888 29.4618 30.0344 29.6135C29.6821 29.7637 29.3041 29.8416 28.9221 29.8427L14.7419 29.9098L14.7563 33.2403L28.9367 33.1732C30.5784 33.1689 32.1511 32.5018 33.3093 31.3187C34.4674 30.1356 35.116 28.5333 35.1126 26.864C35.0916 21.7757 29.4147 18.8233 25.3184 21.7675L21.8674 24.2454C19.9777 25.6022 17.3606 24.2454 17.3525 21.8952C17.3512 21.1263 17.6499 20.3882 18.1831 19.8429C18.7169 19.2977 19.4418 18.9905 20.1983 18.9886L34.2016 18.9214L34.1855 15.5909L20.1822 15.6482Z" fill="black"/>
</svg>
