<svg width="240" height="240" viewBox="0 0 240 240" fill="none" xmlns="http://www.w3.org/2000/svg">
<path d="M0 0H240V240H0V0Z" fill="#BF512B"/>
<path d="M74.8048 30.5972H85.375V110.908H75.3792V64.8355L68.1409 100.682H65.7282L58.4899 64.8355V110.908H48.4941V30.5972H59.0643L66.992 72.9929L74.8048 30.5972Z" fill="black"/>
<path d="M102.938 110.908H92.3673V30.5972H102.938V110.908Z" fill="black"/>
<path d="M138.821 30.5972L128.366 70.8099L138.821 110.908H127.217L122.966 86.3206L118.715 110.908H107.111L117.451 70.8099L107.111 30.5972H118.715L122.966 55.1844L127.217 30.5972H138.821Z" fill="black"/>
<path d="M192.011 73.6823H187.645V82.0695C187.645 88.2738 187.76 102.521 192.011 102.521V112.287C187.874 112.287 184.657 110.448 182.36 107.116C180.062 110.448 176.845 112.287 172.594 112.287C163.977 112.287 157.083 104.474 157.657 90.3419C157.772 84.9419 160.76 76.4397 165.126 73.6823H177.074C169.491 77.0142 168.457 87.5844 168.228 90.3419C168.113 92.9844 168.687 102.521 172.594 102.521C176.96 102.521 177.074 88.2738 177.074 82.0695V73.6823C166.849 73.6823 157.657 65.6397 157.657 51.3929C157.657 39.3291 162.483 29.1036 172.594 29.1036C182.819 29.1036 187.645 38.1802 187.645 50.244H177.074C177.074 49.3248 176.96 38.9844 172.594 38.9844C168.343 38.9844 168.228 50.4738 168.228 51.3929C168.228 53.0014 168.572 56.1036 169.721 58.7461C170.985 61.5036 173.168 63.8014 177.074 63.8014V57.3674H187.645V63.8014H192.011V73.6823Z" fill="black"/>
<path d="M64.7628 127.618H75.333V207.929H65.3373V161.857L58.099 197.704H55.6862L48.4479 161.857V207.929H38.4522V127.618H49.0224L56.95 170.014L64.7628 127.618Z" fill="black"/>
<path d="M105.419 127.618L112.083 207.929H101.398L100.364 192.304H91.8615L90.8275 207.929H80.1424L86.8062 127.618H105.419ZM92.436 182.538H99.7892L96.802 137.384H95.4232L92.436 182.538Z" fill="black"/>
<path d="M112.216 127.618H134.275V137.384H128.531V207.929H117.845V137.384H112.216V127.618Z" fill="black"/>
<path d="M150.979 199.542C154.77 199.542 155.23 188.972 155.345 174.84H165.915C165.226 198.508 160.975 209.423 150.979 209.423C140.064 209.423 136.043 196.44 136.043 167.716C136.043 139.108 140.064 126.125 150.979 126.125C160.975 126.125 165.226 136.925 165.915 160.593H155.345C155.23 146.461 154.77 136.006 150.979 136.006C146.728 136.006 146.613 150.138 146.613 167.716C146.613 185.295 146.728 199.542 150.979 199.542Z" fill="black"/>
<path d="M190.603 127.618H201.288V208.044H190.603V172.772H181.871V208.044H171.301V127.618H181.871V162.891H190.603V127.618Z" fill="black"/>
</svg>
