<svg width="1920" height="328" viewBox="0 0 1920 328" fill="none" xmlns="http://www.w3.org/2000/svg">
<rect x="-46.8236" y="0.212524" width="2042.99" height="150.194" transform="rotate(5 -46.8236 0.212524)" fill="black"/>
<path fill-rule="evenodd" clip-rule="evenodd" d="M1475.66 270.663C1456.25 269.046 1441.81 252.105 1443.42 232.815L1450 153.294L1468.8 154.852L1462.22 234.373C1461.86 238.671 1463.23 242.939 1466.05 246.24C1468.86 249.54 1472.88 251.603 1477.22 251.974C1490.47 253.079 1499.45 238.897 1492.73 227.496L1480.45 206.672C1465.87 181.949 1485.36 151.173 1514.09 153.568C1533.68 155.2 1548.23 172.291 1546.63 191.754L1539.96 272.316L1521.16 270.759L1527.82 190.197C1528.01 188.027 1527.76 185.842 1527.09 183.766C1526.42 181.691 1525.34 179.765 1523.92 178.099C1522.5 176.433 1520.77 175.06 1518.81 174.057C1516.86 173.055 1514.72 172.443 1512.53 172.256C1499.03 171.132 1489.87 185.585 1496.72 197.204L1509 218.028C1523.45 242.541 1504.13 273.037 1475.66 270.663Z" fill="white"/>
<path fill-rule="evenodd" clip-rule="evenodd" d="M911.964 220.139C931.359 221.917 948.517 207.74 950.285 188.465L957.615 109.01L938.822 107.278L931.492 186.733C931.106 191.029 929.011 194.994 925.669 197.756C922.326 200.518 918.008 201.852 913.666 201.463C900.432 200.251 894.046 184.724 902.645 174.664L918.352 156.288C937.006 134.473 923.156 100.78 894.445 98.1487C874.876 96.3555 857.572 110.659 855.77 130.105L848.345 210.601L867.138 212.333L874.563 131.837C874.758 129.669 875.383 127.56 876.402 125.632C877.421 123.704 878.814 121.994 880.502 120.6C882.19 119.206 884.14 118.155 886.239 117.508C888.339 116.86 890.548 116.628 892.74 116.825C906.228 118.061 912.735 133.885 903.971 144.138L888.264 162.514C869.777 184.145 883.505 217.532 911.964 220.139Z" fill="white"/>
<path fill-rule="evenodd" clip-rule="evenodd" d="M321.656 167.663C302.247 166.046 287.811 149.105 289.417 129.815L295.996 50.294L314.803 51.8516L308.225 131.373C307.859 135.671 309.233 139.939 312.046 143.24C314.858 146.54 318.879 148.603 323.222 148.974C336.466 150.079 345.451 135.897 338.73 124.496L326.452 103.672C311.87 78.9493 331.36 48.1733 360.092 50.5675C379.675 52.1997 394.232 69.2911 392.63 88.7541L385.964 169.316L367.156 167.759L373.822 87.1966C374.006 85.0271 373.757 82.8422 373.088 80.7665C372.419 78.6908 371.344 76.765 369.924 75.099C368.504 73.4331 366.767 72.0597 364.811 71.0571C362.856 70.0546 360.721 69.4426 358.528 69.2561C345.03 68.1316 335.874 82.5847 342.724 94.2042L355.002 115.028C369.452 139.541 350.134 170.037 321.656 167.663Z" fill="white"/>
<path d="M-143.347 3L244.82 36.9602L234.167 158.722L-154 124.762L-143.347 3Z" fill="#BF512B"/>
<path fill-rule="evenodd" clip-rule="evenodd" d="M-132.377 53.4676C-131.093 38.787 -118.15 27.9271 -103.47 29.2115L220.218 57.5305L219.038 71.0142L-104.65 42.6952C-111.883 42.0624 -118.26 47.4135 -118.893 54.6472C-119.553 62.1928 -113.718 68.7342 -106.146 68.9362L197.144 77.0301C212.378 77.4366 224.118 90.5971 222.79 105.778C221.517 120.331 208.687 131.097 194.133 129.824L-129.784 101.485L-128.605 88.001L195.313 116.34C202.42 116.962 208.685 111.705 209.306 104.598C209.955 97.1854 204.222 90.759 196.783 90.5605L-106.507 82.4666C-121.874 82.0566 -133.717 68.7811 -132.377 53.4676Z" fill="black"/>
<path d="M1010.65 106L1398.82 139.96L1388.17 261.722L1000 227.762L1010.65 106Z" fill="#BF512B"/>
<path fill-rule="evenodd" clip-rule="evenodd" d="M1021.62 156.468C1022.91 141.787 1035.85 130.927 1050.53 132.212L1374.22 160.531L1373.04 174.014L1049.35 145.695C1042.12 145.062 1035.74 150.413 1035.11 157.647C1034.45 165.193 1040.28 171.734 1047.85 171.936L1351.14 180.03C1366.38 180.437 1378.12 193.597 1376.79 208.778C1375.52 223.331 1362.69 234.097 1348.13 232.824L1024.22 204.485L1025.4 191.001L1349.31 219.34C1356.42 219.962 1362.68 214.705 1363.31 207.598C1363.95 200.185 1358.22 193.759 1350.78 193.56L1047.49 185.467C1032.13 185.057 1020.28 171.781 1021.62 156.468Z" fill="black"/>
<path d="M1961 191.376L1602.37 160L1592 278.547L1950.63 309.923L1961 191.376Z" fill="#D2ECFF"/>
<path d="M1819 213.713C1830.42 214.713 1838.81 226.041 1837.7 238.739C1836.59 251.437 1826.38 260.863 1814.96 259.863C1808.9 259.333 1804.56 256.055 1802.07 251.242L1801.6 256.642L1793.63 255.945L1798.68 198.184L1806.65 198.882L1804.78 220.233C1808.08 215.862 1812.93 213.183 1819 213.713ZM1815.63 252.146C1822.69 252.763 1828.99 246.458 1829.73 238.042C1830.47 229.625 1825.36 222.148 1818.31 221.532C1811.26 220.915 1804.16 227.322 1803.43 235.74C1802.69 244.159 1808.58 251.531 1815.63 252.148L1815.63 252.146Z" fill="black"/>
<path d="M1767.81 255.741C1776.5 256.459 1783.36 252.981 1787.37 247.373L1781.35 242.745C1778.44 246.549 1773.85 248.668 1768.44 248.218C1760.53 247.562 1756.13 242.207 1755.74 234.34L1790.03 237.179L1790.55 233.088C1791.94 221.496 1784.87 210.666 1771.46 209.555C1759.08 208.53 1748.62 216.789 1747.48 230.555C1746.35 244.237 1754.58 254.645 1767.81 255.741ZM1756.5 227.168C1758.44 220.527 1763.47 216.208 1770.86 216.82C1778.08 217.417 1782.81 222.975 1782.46 229.316L1756.5 227.166L1756.5 227.168Z" fill="black"/>
<path d="M1747.1 209.746L1746.41 217.665L1711.01 240.739L1742.7 243.512L1742.01 251.427L1699.28 247.689L1699.86 241.04L1699.88 241.041L1699.86 241.025L1700.01 239.371L1734.43 216.618L1703.67 213.926L1704.37 206.008L1747.1 209.746Z" fill="black"/>
<path d="M1697.12 205.376L1689.15 204.679L1685.49 246.484L1693.46 247.182L1697.12 205.376Z" fill="black"/>
<path d="M1693.26 201.56C1696.14 201.812 1698.67 199.697 1698.92 196.835C1699.17 193.974 1697.04 191.451 1694.17 191.2C1691.29 190.948 1688.76 193.063 1688.51 195.925C1688.26 198.786 1690.39 201.309 1693.26 201.56Z" fill="black"/>
<path d="M1862.8 217.539C1854.81 216.84 1847.63 219.595 1844.09 224.527L1850.52 229.334C1852.14 227.011 1856.38 224.964 1862.11 225.465C1868.39 226.015 1873.03 231.439 1872.5 237.47L1872.3 239.714C1870.28 236.001 1866.53 233.412 1860.54 232.888C1850.03 231.968 1840.9 238.096 1840.15 246.587C1839.41 255.077 1847.34 262.698 1857.85 263.617C1863.84 264.142 1868.13 260.557 1870.77 257.254L1870.3 262.655L1878.26 263.352L1880.47 238.169C1881.38 227.717 1873.45 218.471 1862.8 217.539ZM1858.48 257.236C1852.13 256.68 1847.55 252.18 1847.98 247.271C1848.41 242.362 1853.76 238.801 1860.04 239.35C1866.32 239.899 1870.78 244.247 1870.35 249.228C1869.91 254.208 1864.75 257.783 1858.48 257.234L1858.48 257.236Z" fill="black"/>
<path fill-rule="evenodd" clip-rule="evenodd" d="M1631.52 214.713C1632.2 206.572 1639.4 200.527 1647.62 201.208L1681.5 204.013L1680.84 211.901L1646.97 209.095C1645.14 208.94 1643.32 209.515 1641.92 210.692C1640.51 211.87 1639.64 213.555 1639.48 215.376C1639.02 220.93 1645.06 224.707 1649.92 221.894L1658.78 216.756C1669.3 210.654 1682.42 218.847 1681.42 230.897C1680.73 239.109 1673.46 245.205 1665.17 244.522L1630.85 241.68L1631.5 233.792L1665.82 236.634C1666.75 236.713 1667.68 236.61 1668.56 236.33C1669.45 236.051 1670.26 235.601 1670.97 235.006C1671.68 234.412 1672.27 233.684 1672.69 232.864C1673.12 232.045 1673.38 231.149 1673.46 230.23C1673.93 224.569 1667.76 220.721 1662.82 223.587L1653.96 228.732C1643.52 234.776 1630.52 226.655 1631.52 214.713Z" fill="black"/>
<path fill-rule="evenodd" clip-rule="evenodd" d="M1837.52 238.896C1838.63 226.176 1830.35 214.84 1819.06 213.852C1813.07 213.328 1808.27 216.036 1805 220.399L1806.87 199.015L1799 198.326L1793.94 256.178L1801.82 256.867L1802.29 251.458C1804.75 256.275 1809.03 259.555 1815.02 260.079C1826.31 261.066 1836.4 251.616 1837.52 238.896ZM1829.64 238.207C1828.9 246.635 1822.66 252.959 1815.69 252.349C1808.73 251.74 1802.91 244.365 1803.65 235.933C1804.39 227.501 1811.41 221.073 1818.38 221.683C1825.35 222.293 1830.38 229.775 1829.64 238.207ZM1891.2 222.478C1891.2 222.478 1897.34 247.938 1898.61 252.772C1899.73 257.066 1902.77 257.931 1904.7 258.474C1904.94 258.543 1905.16 258.605 1905.36 258.669L1919.71 224.973L1928.08 225.704C1928.08 225.704 1908.91 271.062 1907.06 275.342C1903.49 283.514 1895.92 284.271 1889.39 283.7L1881 282.966L1881.7 274.973L1889.42 275.648C1891.83 275.859 1898.03 276.131 1900.02 271.492C1900.99 269.259 1902.26 266.331 1902.26 266.331C1897.49 265.132 1893.03 262.24 1891.47 257.047C1889.36 250.102 1882.92 221.766 1882.92 221.766L1891.2 222.478ZM1787 247.516C1783.01 253.138 1776.24 256.632 1767.65 255.919C1754.56 254.836 1746.45 244.422 1747.58 230.703C1748.72 216.914 1759.07 208.639 1771.31 209.643C1784.56 210.74 1791.53 221.579 1790.14 233.187L1789.63 237.283L1755.75 234.483C1756.13 242.36 1760.47 247.721 1768.29 248.366C1773.64 248.811 1778.18 246.686 1781.06 242.871L1787 247.516ZM1756.52 227.317C1758.44 220.665 1763.41 216.334 1770.72 216.938C1777.85 217.527 1782.52 223.089 1782.17 229.44L1756.52 227.317ZM1746.85 209.846L1746.16 217.777L1711.15 240.911L1742.86 243.686L1742.16 251.613L1699.55 247.885L1700.13 241.257L1700.27 239.589L1734.32 216.761L1703.54 214.068L1704.23 206.132L1746.85 209.846ZM1698.47 196.929C1698.35 198.304 1697.69 199.576 1696.64 200.464C1695.59 201.352 1694.24 201.785 1692.87 201.667C1691.51 201.546 1690.25 200.885 1689.37 199.828C1688.49 198.771 1688.06 197.404 1688.18 196.028C1688.3 194.652 1688.96 193.38 1690.01 192.492C1691.06 191.603 1692.42 191.171 1693.78 191.29C1694.46 191.35 1695.11 191.542 1695.72 191.858C1696.32 192.173 1696.85 192.605 1697.29 193.128C1697.72 193.652 1698.05 194.257 1698.25 194.909C1698.46 195.561 1698.53 196.247 1698.47 196.929ZM1688.81 204.795L1696.68 205.484L1693.02 247.349L1685.14 246.66L1688.81 204.795ZM1862.74 217.666C1854.84 216.975 1847.74 219.739 1844.23 224.684L1850.59 229.49C1852.19 227.163 1856.4 225.111 1862.05 225.605C1868.25 226.147 1872.83 231.573 1872.3 237.614L1872.1 239.881C1870.1 236.163 1866.41 233.576 1860.48 233.057C1850.09 232.148 1841.06 238.299 1840.32 246.801C1839.58 255.303 1847.4 262.928 1857.79 263.836C1863.71 264.355 1867.96 260.762 1870.56 257.451L1870.09 262.86L1877.97 263.549L1880.17 238.327C1881.09 227.838 1873.26 218.59 1862.74 217.67L1862.74 217.666ZM1858.42 257.424C1852.14 256.876 1847.61 252.374 1848.04 247.457C1848.47 242.541 1853.77 238.965 1859.99 239.509C1866.2 240.053 1870.6 244.398 1870.16 249.392C1869.72 254.386 1864.62 257.967 1858.42 257.424ZM1647.38 201.323C1643.49 200.994 1639.63 202.236 1636.64 204.775C1633.66 207.315 1631.79 210.945 1631.46 214.866C1630.46 226.826 1643.3 234.944 1653.62 228.879L1662.38 223.718C1667.29 220.844 1673.36 224.679 1672.89 230.358C1672.81 231.279 1672.55 232.176 1672.13 232.997C1671.71 233.818 1671.13 234.547 1670.43 235.144C1669.73 235.75 1668.92 236.209 1668.04 236.494C1667.16 236.777 1666.24 236.882 1665.33 236.805L1631.41 233.998L1630.76 241.898L1664.67 244.705C1668.6 245.038 1672.5 243.785 1675.51 241.222C1678.53 238.66 1680.41 234.996 1680.75 231.038C1681.75 218.969 1668.79 210.782 1658.39 216.906L1649.62 222.059C1644.83 224.88 1638.85 221.116 1639.32 215.542C1639.47 213.719 1640.34 212.031 1641.73 210.85C1643.12 209.669 1644.92 209.092 1646.72 209.246L1680.22 212.016L1680.87 204.116L1647.38 201.323Z" fill="black"/>
<path d="M807.002 88.3761L448.372 57L438 175.547L796.63 206.923L807.002 88.3761Z" fill="#D2ECFF"/>
<path d="M664.997 110.713C676.421 111.713 684.81 123.041 683.699 135.739C682.588 148.437 672.383 157.863 660.96 156.863C654.896 156.333 650.563 153.055 648.071 148.242L647.599 153.642L639.629 152.945L644.682 95.1844L652.65 95.8815L650.782 117.233C654.085 112.862 658.934 110.183 664.997 110.713ZM661.635 149.146C668.688 149.763 674.993 143.458 675.729 135.041C676.465 126.625 671.364 119.148 664.313 118.532C657.263 117.915 650.164 124.322 649.428 132.74C648.691 141.159 654.584 148.531 661.635 149.148L661.635 149.146Z" fill="black"/>
<path d="M613.814 152.741C622.497 153.459 629.361 149.981 633.371 144.373L627.351 139.745C624.44 143.549 619.852 145.668 614.435 145.218C606.528 144.562 602.125 139.207 601.738 131.34L636.034 134.179L636.546 130.088C637.939 118.496 630.872 107.666 617.461 106.555C605.084 105.53 594.621 113.789 593.482 127.555C592.35 141.237 600.576 151.645 613.814 152.741ZM602.504 124.168C604.439 117.527 609.469 113.208 616.861 113.82C624.081 114.417 628.814 119.975 628.463 126.316L602.505 124.166L602.504 124.168Z" fill="black"/>
<path d="M593.099 106.747L592.406 114.665L557.008 137.739L588.704 140.513L588.012 148.427L545.281 144.689L545.863 138.04L545.876 138.041L545.864 138.025L546.009 136.371L580.434 113.618L549.673 110.926L550.366 103.008L593.099 106.747Z" fill="black"/>
<path d="M543.117 102.376L535.15 101.679L531.492 143.484L539.46 144.181L543.117 102.376Z" fill="black"/>
<path d="M539.261 98.5604C542.137 98.812 544.67 96.6965 544.921 93.8354C545.171 90.9743 543.043 88.4511 540.168 88.1995C537.293 87.948 534.759 90.0634 534.509 92.9245C534.258 95.7856 536.386 98.3089 539.261 98.5604Z" fill="black"/>
<path d="M708.803 114.539C700.809 113.84 693.628 116.595 690.086 121.527L696.523 126.334C698.144 124.011 702.379 121.964 708.11 122.465C714.386 123.015 719.026 128.439 718.499 134.47L718.302 136.714C716.283 133.001 712.53 130.412 706.536 129.888C696.029 128.968 686.895 135.096 686.153 143.587C685.41 152.077 693.341 159.698 703.848 160.617C709.842 161.142 714.135 157.557 716.768 154.254L716.295 159.655L724.264 160.352L726.468 135.169C727.382 124.717 719.451 115.471 708.803 114.539ZM704.475 154.236C698.129 153.68 693.555 149.18 693.984 144.271C694.414 139.362 699.764 135.801 706.04 136.35C712.316 136.899 716.784 141.247 716.348 146.228C715.913 151.208 710.753 154.783 704.475 154.234L704.475 154.236Z" fill="black"/>
<path fill-rule="evenodd" clip-rule="evenodd" d="M477.517 111.713C478.196 103.572 485.403 97.527 493.62 98.2076L527.495 101.013L526.843 108.9L492.967 106.095C491.137 105.94 489.32 106.515 487.916 107.692C486.512 108.87 485.636 110.555 485.48 112.376C485.017 117.93 491.064 121.707 495.916 118.894L504.777 113.756C515.3 107.654 528.419 115.847 527.416 127.897C526.732 136.109 519.461 142.205 511.171 141.522L476.851 138.68L477.504 130.792L511.823 133.634C512.747 133.713 513.678 133.61 514.562 133.33C515.445 133.051 516.265 132.601 516.973 132.006C517.682 131.412 518.266 130.684 518.692 129.864C519.118 129.045 519.377 128.149 519.455 127.23C519.927 121.569 513.765 117.721 508.82 120.587L499.956 125.732C489.524 131.776 476.521 123.655 477.517 111.713Z" fill="black"/>
<path fill-rule="evenodd" clip-rule="evenodd" d="M683.517 135.896C684.629 123.176 676.349 111.84 665.063 110.852C659.071 110.328 654.27 113.036 651.003 117.399L652.874 96.0147L645 95.3259L639.939 153.178L647.816 153.867L648.29 148.458C650.745 153.275 655.026 156.555 661.018 157.079C672.305 158.066 682.404 148.616 683.517 135.896ZM675.639 135.207C674.902 143.635 668.664 149.959 661.694 149.349C654.725 148.74 648.91 141.365 649.648 132.933C650.386 124.501 657.408 118.073 664.377 118.683C671.347 119.293 676.377 126.775 675.639 135.207ZM737.198 119.478C737.198 119.478 743.338 144.938 744.606 149.772C745.731 154.066 748.773 154.931 750.699 155.474C750.942 155.543 751.165 155.605 751.365 155.669L765.713 121.973L774.076 122.704C774.076 122.704 754.911 168.062 753.059 172.342C749.49 180.514 741.92 181.271 735.386 180.7L727.004 179.966L727.703 171.973L735.423 172.648C737.832 172.859 744.028 173.131 746.024 168.492C746.995 166.259 748.255 163.331 748.255 163.331C743.494 162.132 739.031 159.239 737.469 154.047C735.362 147.102 728.923 118.766 728.923 118.766L737.198 119.478ZM632.996 144.516C629.014 150.138 622.24 153.632 613.647 152.919C600.558 151.836 592.445 141.422 593.58 127.703C594.724 113.914 605.072 105.639 617.308 106.643C630.559 107.74 637.533 118.579 636.142 130.187L635.632 134.283L601.753 131.483C602.126 139.36 606.473 144.721 614.285 145.366C619.64 145.811 624.177 143.686 627.058 139.871L632.996 144.516ZM602.516 124.317C604.435 117.665 609.409 113.334 616.716 113.938C623.85 114.527 628.521 120.089 628.167 126.44L602.516 124.317ZM592.853 106.846L592.159 114.777L557.147 137.911L588.857 140.686L588.163 148.613L545.548 144.885L546.128 138.257L546.273 136.588L580.324 113.761L549.538 111.068L550.232 103.132L592.853 106.846ZM544.472 93.9286C544.351 95.3041 543.693 96.5757 542.643 97.464C541.593 98.3523 540.237 98.7848 538.873 98.6665C537.509 98.5461 536.249 97.8847 535.369 96.8276C534.49 95.7705 534.062 94.404 534.182 93.0283C534.302 91.6524 534.96 90.3802 536.01 89.4916C537.06 88.6031 538.416 88.171 539.781 88.2904C540.457 88.3495 541.114 88.5423 541.715 88.8576C542.317 89.1729 542.851 89.6047 543.286 90.1283C543.722 90.6518 544.051 91.2569 544.254 91.909C544.458 92.561 544.532 93.2473 544.472 93.9286ZM534.807 101.795L542.681 102.483L539.018 144.349L531.144 143.66L534.807 101.795ZM708.741 114.666C700.841 113.975 693.739 116.739 690.231 121.684L696.589 126.49C698.193 124.163 702.401 122.111 708.047 122.605C714.246 123.147 718.828 128.573 718.299 134.614L718.101 136.881C716.1 133.163 712.406 130.576 706.479 130.057C696.089 129.148 687.063 135.299 686.319 143.801C685.575 152.303 693.404 159.928 703.787 160.836C709.713 161.355 713.959 157.762 716.564 154.451L716.091 159.86L723.968 160.549L726.175 135.327C727.092 124.838 719.262 115.59 708.741 114.67L708.741 114.666ZM704.417 154.424C698.145 153.875 693.614 149.374 694.044 144.457C694.474 139.541 699.766 135.965 705.985 136.509C712.204 137.053 716.597 141.398 716.16 146.392C715.723 151.386 710.621 154.967 704.417 154.424ZM493.379 98.3226C489.489 97.9937 485.628 99.2356 482.642 101.775C479.657 104.315 477.792 107.945 477.458 111.866C476.459 123.826 489.301 131.944 499.619 125.879L508.384 120.718C513.289 117.844 519.363 121.679 518.89 127.358C518.811 128.279 518.554 129.176 518.132 129.997C517.71 130.818 517.132 131.547 516.432 132.144C515.73 132.75 514.916 133.209 514.037 133.494C513.164 133.777 512.244 133.882 511.33 133.805L477.413 130.998L476.757 138.898L510.674 141.705C514.6 142.038 518.499 140.785 521.513 138.222C524.528 135.66 526.411 131.996 526.749 128.038C527.754 115.969 514.794 107.782 504.389 113.906L495.624 119.059C490.825 121.88 484.849 118.116 485.318 112.542C485.474 110.719 486.341 109.031 487.729 107.85C489.118 106.669 490.915 106.092 492.724 106.246L526.218 109.016L526.871 101.116L493.379 98.3226Z" fill="black"/>
</svg>
